<svg width="60" height="60" viewBox="0 0 60 60" fill="none" xmlns="http://www.w3.org/2000/svg">
<path d="M8.34961 14.8856L25.0265 5.32097L30.8859 1.96228L35.7687 5.03958L13.4584 18.1223L8.34961 14.8856Z" fill="#1C80E3"/>
<path d="M17.4043 20.1218L22.4364 23.1228L35.7539 15.3714L30.7413 12.3135L17.4043 20.1218Z" fill="#1C80E3"/>
<path d="M26.1406 25.1747L31.3541 28.2118L53.7955 15.4022L48.4398 12.2223L26.1406 25.1747Z" fill="#1C80E3"/>
<path d="M28.3993 30.8534L6.17829 18.1215L5.98438 24.2761L28.3993 37.008V30.8534Z" fill="white"/>
<path d="M15.043 33.3542V39.4714L28.3996 47.1647V40.9685L15.043 33.3542Z" fill="white"/>
<path d="M5.98438 38.3162V44.5484L28.3993 57.3566V51.202L5.98438 38.3162Z" fill="white"/>
<path d="M32.0122 31.8685L37.1224 29.0463V54.7403C37.1224 54.7403 32.0638 57.8689 32.0122 57.7178C31.9606 57.5667 32.0122 31.8685 32.0122 31.8685Z" fill="white"/>
<path d="M40.7578 26.7377C40.8345 26.7377 45.8931 23.8656 45.8931 23.8656V39.5293L40.7578 42.3308V26.7377Z" fill="white"/>
<path d="M49.7686 21.815L54.8788 18.814V44.5871L49.7686 47.5105V21.815Z" fill="white"/>
</svg>
