<svg width="468" height="270" viewBox="0 0 468 270" fill="none" xmlns="http://www.w3.org/2000/svg">
<g opacity="0.3" clip-path="url(#clip0_1052_1015)">
<path d="M459.226 -134.156H375.57M459.226 -134.156C463.609 -134.156 467.161 -137.641 467.161 -141.94V-223.811C467.161 -228.11 463.609 -231.595 459.226 -231.595H375.57C371.187 -231.595 367.634 -228.11 367.634 -223.811M459.226 -134.156C463.609 -134.156 467.161 -130.671 467.161 -126.371V-44.5007C467.161 -40.2016 463.609 -36.7165 459.226 -36.7165M367.634 -141.94V-223.811M367.634 -141.94C367.634 -137.641 371.187 -134.156 375.57 -134.156M367.634 -141.94C367.634 -137.641 364.082 -134.156 359.699 -134.156M375.57 -134.156C371.187 -134.156 367.634 -130.671 367.634 -126.371M367.634 -223.811C367.634 -228.11 364.082 -231.595 359.699 -231.595H276.043C271.66 -231.595 268.108 -228.11 268.108 -223.811M359.699 -134.156H276.043M359.699 -134.156C364.082 -134.156 367.634 -130.671 367.634 -126.371M268.108 -141.94V-223.811M268.108 -141.94C268.108 -137.641 271.66 -134.156 276.043 -134.156M268.108 -141.94C268.108 -137.641 264.555 -134.156 260.172 -134.156M276.043 -134.156C271.66 -134.156 268.108 -130.671 268.108 -126.372M268.108 -223.811C268.108 -228.11 264.555 -231.595 260.172 -231.595H176.516C172.133 -231.595 168.581 -228.11 168.581 -223.811M260.172 -134.156H176.516M260.172 -134.156C264.555 -134.156 268.108 -130.671 268.108 -126.372M168.581 -141.94V-223.811M168.581 -141.94C168.581 -137.641 172.133 -134.156 176.516 -134.156M168.581 -141.94C168.581 -137.641 165.028 -134.156 160.646 -134.156M176.516 -134.156C172.133 -134.156 168.581 -130.671 168.581 -126.372M168.581 -223.811C168.581 -228.11 165.028 -231.595 160.646 -231.595H76.989C72.6065 -231.595 69.0538 -228.11 69.0538 -223.811M160.646 -134.156H76.989M160.646 -134.156C165.028 -134.156 168.581 -130.671 168.581 -126.372M69.0538 -141.94V-223.811M69.0538 -141.94C69.0538 -137.641 72.6065 -134.156 76.989 -134.156M69.0538 -141.94C69.0538 -137.641 65.5011 -134.156 61.1186 -134.156M76.989 -134.156C72.6065 -134.156 69.0538 -130.671 69.0538 -126.372M69.0538 -223.811C69.0538 -228.11 65.5011 -231.595 61.1186 -231.595H-22.5379C-26.9204 -231.595 -30.4731 -228.11 -30.4731 -223.811M61.1186 -134.156H-22.5379M61.1186 -134.156C65.5011 -134.156 69.0538 -130.671 69.0538 -126.372M-30.4731 -141.94V-223.811M-30.4731 -141.94C-30.4731 -137.641 -26.9204 -134.156 -22.5379 -134.156M-30.4731 -141.94C-30.4731 -137.641 -34.0258 -134.156 -38.4083 -134.156M-22.5379 -134.156C-26.9204 -134.156 -30.4731 -130.671 -30.4731 -126.372M-30.4731 -223.811C-30.4731 -228.11 -34.0258 -231.595 -38.4082 -231.595H-122.065C-126.447 -231.595 -130 -228.11 -130 -223.811V-141.94C-130 -137.641 -126.447 -134.156 -122.065 -134.156M-38.4083 -134.156H-122.065M-38.4083 -134.156C-34.0258 -134.156 -30.4731 -130.671 -30.4731 -126.372M-122.065 -134.156C-126.447 -134.156 -130 -130.671 -130 -126.372V-44.5008C-130 -40.2017 -126.447 -36.7166 -122.065 -36.7166M459.226 -36.7165H375.57M459.226 -36.7165C463.609 -36.7165 467.161 -33.2318 467.161 -28.9327V52.938C467.161 57.2371 463.609 60.7222 459.226 60.7222M367.634 -44.5007V-126.371M367.634 -44.5007C367.634 -40.2016 371.187 -36.7165 375.57 -36.7165M367.634 -44.5007C367.634 -40.2016 364.082 -36.7166 359.699 -36.7166M375.57 -36.7165C371.187 -36.7165 367.634 -33.2318 367.634 -28.9327M359.699 -36.7166H276.043M359.699 -36.7166C364.082 -36.7166 367.634 -33.2318 367.634 -28.9327M268.108 -44.5008V-126.372M268.108 -44.5008C268.108 -40.2017 271.66 -36.7166 276.043 -36.7166M268.108 -44.5008C268.108 -40.2017 264.555 -36.7166 260.172 -36.7166M276.043 -36.7166C271.66 -36.7166 268.108 -33.2318 268.108 -28.9327M260.172 -36.7166H176.516M260.172 -36.7166C264.555 -36.7166 268.108 -33.2318 268.108 -28.9327M168.581 -44.5008V-126.372M168.581 -44.5008C168.581 -40.2017 172.133 -36.7166 176.516 -36.7166M168.581 -44.5008C168.581 -40.2017 165.028 -36.7166 160.646 -36.7166M176.516 -36.7166C172.133 -36.7166 168.581 -33.2318 168.581 -28.9327M160.646 -36.7166H76.989M160.646 -36.7166C165.028 -36.7166 168.581 -33.2318 168.581 -28.9327M69.0538 -44.5008V-126.372M69.0538 -44.5008C69.0538 -40.2017 72.6065 -36.7166 76.989 -36.7166M69.0538 -44.5008C69.0538 -40.2017 65.5011 -36.7166 61.1186 -36.7166M76.989 -36.7166C72.6065 -36.7166 69.0538 -33.2318 69.0538 -28.9327M61.1186 -36.7166H-22.5379M61.1186 -36.7166C65.5011 -36.7166 69.0538 -33.2318 69.0538 -28.9327M-30.4731 -44.5008V-126.372M-30.4731 -44.5008C-30.4731 -40.2017 -26.9204 -36.7166 -22.5379 -36.7166M-30.4731 -44.5008C-30.4731 -40.2017 -34.0258 -36.7166 -38.4083 -36.7166M-22.5379 -36.7166C-26.9204 -36.7166 -30.4731 -33.2318 -30.4731 -28.9327M-38.4083 -36.7166H-122.065M-38.4083 -36.7166C-34.0258 -36.7166 -30.4731 -33.2318 -30.4731 -28.9327M-122.065 -36.7166C-126.447 -36.7166 -130 -33.2318 -130 -28.9327V52.9381C-130 57.2371 -126.447 60.7222 -122.065 60.7222M459.226 60.7222H375.57M459.226 60.7222C463.609 60.7222 467.161 64.2075 467.161 68.5066V150.377C467.161 154.676 463.609 158.161 459.226 158.161M367.634 52.938V-28.9327M367.634 52.938C367.634 57.2371 371.187 60.7222 375.57 60.7222M367.634 52.938C367.634 57.2371 364.082 60.7222 359.699 60.7222M375.57 60.7222C371.187 60.7222 367.634 64.2075 367.634 68.5066M359.699 60.7222H276.043M359.699 60.7222C364.082 60.7222 367.634 64.2075 367.634 68.5066M268.108 52.9381V-28.9327M268.108 52.9381C268.108 57.2371 271.66 60.7222 276.043 60.7222M268.108 52.9381C268.108 57.2371 264.555 60.7222 260.172 60.7222M276.043 60.7222C271.66 60.7222 268.108 64.2074 268.108 68.5065M260.172 60.7222H176.516M260.172 60.7222C264.555 60.7222 268.108 64.2074 268.108 68.5065M168.581 52.9381V-28.9327M168.581 52.9381C168.581 57.2371 172.133 60.7222 176.516 60.7222M168.581 52.9381C168.581 57.2371 165.028 60.7222 160.646 60.7222M176.516 60.7222C172.133 60.7222 168.581 64.2074 168.581 68.5065M160.646 60.7222H76.989M160.646 60.7222C165.028 60.7222 168.581 64.2074 168.581 68.5065M69.0538 52.9381V-28.9327M69.0538 52.9381C69.0538 57.2371 72.6065 60.7222 76.989 60.7222M69.0538 52.9381C69.0538 57.2371 65.5011 60.7222 61.1186 60.7222M76.989 60.7222C72.6065 60.7222 69.0538 64.2074 69.0538 68.5065M61.1186 60.7222H-22.5379M61.1186 60.7222C65.5011 60.7222 69.0538 64.2074 69.0538 68.5065M-30.4731 52.9381V-28.9327M-30.4731 52.9381C-30.4731 57.2371 -26.9204 60.7222 -22.5379 60.7222M-30.4731 52.9381C-30.4731 57.2371 -34.0258 60.7222 -38.4083 60.7222M-22.5379 60.7222C-26.9204 60.7222 -30.4731 64.2074 -30.4731 68.5065M-38.4083 60.7222H-122.065M-38.4083 60.7222C-34.0258 60.7222 -30.4731 64.2074 -30.4731 68.5065M-122.065 60.7222C-126.447 60.7222 -130 64.2074 -130 68.5065V150.377C-130 154.676 -126.447 158.161 -122.065 158.161M459.226 158.161H375.57M459.226 158.161C463.609 158.161 467.161 161.647 467.161 165.946V247.817C467.161 252.116 463.609 255.601 459.226 255.601M367.634 150.377V68.5066M367.634 150.377C367.634 154.676 371.187 158.161 375.57 158.161M367.634 150.377C367.634 154.676 364.082 158.161 359.699 158.161M375.57 158.161C371.187 158.161 367.634 161.647 367.634 165.946M359.699 158.161H276.043M359.699 158.161C364.082 158.161 367.634 161.647 367.634 165.946M268.108 150.377V68.5065M268.108 150.377C268.108 154.676 271.66 158.161 276.043 158.161M268.108 150.377C268.108 154.676 264.555 158.161 260.172 158.161M276.043 158.161C271.66 158.161 268.108 161.647 268.108 165.946M260.172 158.161H176.516M260.172 158.161C264.555 158.161 268.108 161.647 268.108 165.946M168.581 150.377V68.5065M168.581 150.377C168.581 154.676 172.133 158.161 176.516 158.161M168.581 150.377C168.581 154.676 165.028 158.161 160.646 158.161M176.516 158.161C172.133 158.161 168.581 161.647 168.581 165.946M160.646 158.161H76.989M160.646 158.161C165.028 158.161 168.581 161.647 168.581 165.946M69.0538 150.377V68.5065M69.0538 150.377C69.0538 154.676 72.6065 158.161 76.989 158.161M69.0538 150.377C69.0538 154.676 65.5011 158.161 61.1186 158.161M76.989 158.161C72.6065 158.161 69.0538 161.647 69.0538 165.946M61.1186 158.161H-22.5379M61.1186 158.161C65.5011 158.161 69.0538 161.647 69.0538 165.946M-30.4731 150.377V68.5065M-30.4731 150.377C-30.4731 154.676 -26.9204 158.161 -22.5379 158.161M-30.4731 150.377C-30.4731 154.676 -34.0258 158.161 -38.4083 158.161M-22.5379 158.161C-26.9204 158.161 -30.4731 161.647 -30.4731 165.946M-38.4083 158.161H-122.065M-38.4083 158.161C-34.0258 158.161 -30.4731 161.647 -30.4731 165.946M-122.065 158.161C-126.447 158.161 -130 161.647 -130 165.946V247.817C-130 252.116 -126.447 255.601 -122.065 255.601M459.226 255.601H375.57M459.226 255.601C463.609 255.601 467.161 259.085 467.161 263.385V345.255C467.161 349.554 463.609 353.039 459.226 353.039M367.634 247.817V165.946M367.634 247.817C367.634 252.116 371.187 255.601 375.57 255.601M367.634 247.817C367.634 252.116 364.082 255.601 359.699 255.601M375.57 255.601C371.187 255.601 367.634 259.085 367.634 263.385M359.699 255.601H276.043M359.699 255.601C364.082 255.601 367.634 259.085 367.634 263.385M268.108 247.817V165.946M268.108 247.817C268.108 252.116 271.66 255.601 276.043 255.601M268.108 247.817C268.108 252.116 264.555 255.601 260.172 255.601M276.043 255.601C271.66 255.601 268.108 259.085 268.108 263.385M260.172 255.601H176.516M260.172 255.601C264.555 255.601 268.108 259.085 268.108 263.385M168.581 247.817V165.946M168.581 247.817C168.581 252.116 172.133 255.601 176.516 255.601M168.581 247.817C168.581 252.116 165.028 255.601 160.646 255.601M176.516 255.601C172.133 255.601 168.581 259.085 168.581 263.385M160.646 255.601H76.989M160.646 255.601C165.028 255.601 168.581 259.085 168.581 263.385M69.0538 247.817V165.946M69.0538 247.817C69.0538 252.116 72.6065 255.601 76.989 255.601M69.0538 247.817C69.0538 252.116 65.5011 255.601 61.1186 255.601M76.989 255.601C72.6065 255.601 69.0538 259.085 69.0538 263.385M61.1186 255.601H-22.5379M61.1186 255.601C65.5011 255.601 69.0538 259.085 69.0538 263.385M-30.4731 247.817V165.946M-30.4731 247.817C-30.4731 252.116 -26.9204 255.601 -22.5379 255.601M-30.4731 247.817C-30.4731 252.116 -34.0258 255.601 -38.4083 255.601M-22.5379 255.601C-26.9204 255.601 -30.4731 259.085 -30.4731 263.385M-38.4083 255.601H-122.065M-38.4083 255.601C-34.0258 255.601 -30.4731 259.085 -30.4731 263.385M-122.065 255.601C-126.447 255.601 -130 259.085 -130 263.385V345.255C-130 349.554 -126.447 353.039 -122.065 353.039M459.226 353.039H375.57M459.226 353.039C463.609 353.039 467.161 356.525 467.161 360.824V442.695C467.161 446.994 463.609 450.479 459.226 450.479H375.57C371.187 450.479 367.634 446.994 367.634 442.695M367.634 345.255V263.385M367.634 345.255C367.634 349.554 371.187 353.039 375.57 353.039M367.634 345.255C367.634 349.554 364.082 353.039 359.699 353.039M375.57 353.039C371.187 353.039 367.634 356.525 367.634 360.824M359.699 353.039H276.043M359.699 353.039C364.082 353.039 367.634 356.525 367.634 360.824M268.108 345.255V263.385M268.108 345.255C268.108 349.554 271.66 353.039 276.043 353.039M268.108 345.255C268.108 349.554 264.555 353.039 260.172 353.039M276.043 353.039C271.66 353.039 268.108 356.525 268.108 360.824M260.172 353.039H176.516M260.172 353.039C264.555 353.039 268.108 356.525 268.108 360.824M168.581 345.255V263.385M168.581 345.255C168.581 349.554 172.133 353.039 176.516 353.039M168.581 345.255C168.581 349.554 165.028 353.039 160.646 353.039M176.516 353.039C172.133 353.039 168.581 356.525 168.581 360.824M160.646 353.039H76.989M160.646 353.039C165.028 353.039 168.581 356.525 168.581 360.824M69.0538 345.255V263.385M69.0538 345.255C69.0538 349.554 72.6065 353.039 76.989 353.039M69.0538 345.255C69.0538 349.554 65.5011 353.039 61.1186 353.039M76.989 353.039C72.6065 353.039 69.0538 356.525 69.0538 360.824M61.1186 353.039H-22.5379M61.1186 353.039C65.5011 353.039 69.0538 356.525 69.0538 360.824M-30.4731 345.255V263.385M-30.4731 345.255C-30.4731 349.554 -26.9204 353.039 -22.5379 353.039M-30.4731 345.255C-30.4731 349.554 -34.0258 353.039 -38.4083 353.039M-22.5379 353.039C-26.9204 353.039 -30.4731 356.525 -30.4731 360.824M-38.4083 353.039H-122.065M-38.4083 353.039C-34.0258 353.039 -30.4731 356.525 -30.4731 360.824M-122.065 353.039C-126.447 353.039 -130 356.525 -130 360.824V442.695C-130 446.994 -126.447 450.479 -122.065 450.479H-38.4083C-34.0258 450.479 -30.4731 446.994 -30.4731 442.695M367.634 442.695V360.824M367.634 442.695C367.634 446.994 364.082 450.479 359.699 450.479H276.043C271.66 450.479 268.108 446.994 268.108 442.695M268.108 442.695V360.824M268.108 442.695C268.108 446.994 264.555 450.479 260.172 450.479H176.516C172.133 450.479 168.581 446.994 168.581 442.695M168.581 442.695V360.824M168.581 442.695C168.581 446.994 165.028 450.479 160.646 450.479H76.989C72.6065 450.479 69.0538 446.994 69.0538 442.695M69.0538 442.695V360.824M69.0538 442.695C69.0538 446.994 65.5011 450.479 61.1186 450.479H-22.5379C-26.9204 450.479 -30.4731 446.994 -30.4731 442.695M-30.4731 442.695V360.824" stroke="#A8ABBD" stroke-width="0.431035"/>
<path d="M367.634 -223.726V-145.103C367.634 -139.165 362.718 -134.351 356.652 -134.351H279.09C273.025 -134.351 268.108 -129.537 268.108 -123.599V-47.6636C268.108 -41.7255 263.191 -36.9117 257.125 -36.9117H179.563C173.498 -36.9117 168.581 -32.0979 168.581 -26.1598V49.7755C168.581 55.7136 163.664 60.5274 157.598 60.5274H80.0361C73.9708 60.5274 69.0538 65.3412 69.0538 71.2793V147.215C69.0538 153.153 64.1369 157.966 58.0716 157.966H-22.2363M467.161 -223.726V-145.103C467.161 -139.165 462.244 -134.351 456.179 -134.351H378.617C372.551 -134.351 367.634 -129.537 367.634 -123.599V-47.6636C367.634 -41.7255 362.718 -36.9117 356.652 -36.9117H279.09C273.025 -36.9117 268.108 -32.0979 268.108 -26.1598V49.7755C268.108 55.7136 273.025 60.5274 279.09 60.5274H356.652C362.718 60.5274 367.634 55.7136 367.634 49.7755V-27.5038L367.731 -28.1389C368.468 -33.0088 372.69 -36.6451 377.717 -36.7397L386.853 -36.9117H456.179C462.244 -36.9117 467.161 -32.0979 467.161 -26.1598V49.7755C467.161 55.7136 462.244 60.5274 456.179 60.5274H377.93L375.323 60.6975C370.997 60.9799 367.634 64.4982 367.634 68.7436V76.9912M367.634 68.5913V147.215C367.634 153.153 362.718 157.966 356.652 157.966H279.09C273.025 157.966 268.108 162.78 268.108 168.718V244.654C268.108 250.592 263.191 255.406 257.125 255.406H179.563C173.498 255.406 168.581 260.219 168.581 266.157V342.093C168.581 348.031 163.664 352.845 157.598 352.845H80.0361C73.9708 352.845 69.0538 357.658 69.0538 363.597V439.532C69.0538 445.47 64.1369 450.284 58.0716 450.284H-22.2363" stroke="#597CF3"/>
</g>
<defs>
<clipPath id="clip0_1052_1015">
<rect width="468" height="602" fill="white" transform="matrix(-1 0 0 1 468 -166)"/>
</clipPath>
</defs>
</svg>
