<svg width="60" height="60" viewBox="0 0 60 60" fill="none" xmlns="http://www.w3.org/2000/svg">
<rect width="60" height="60" rx="4" fill="#18587F"/>
<mask id="mask0_553_2028" style="mask-type:luminance" maskUnits="userSpaceOnUse" x="0" y="24" width="60" height="13">
<path d="M60 24H0V36.3664H60V24Z" fill="white"/>
</mask>
<g mask="url(#mask0_553_2028)">
<path d="M13.4658 30.8328H14.9857C15.5264 30.8328 15.8067 31.0853 15.8067 31.5271C15.8067 31.8032 15.6804 32.0833 15.254 32.1741V32.182C15.8027 32.2372 15.9014 32.6356 15.9014 32.8763C15.9014 33.18 15.7357 33.6494 14.9581 33.6494H13.4658V30.8328ZM13.6476 32.1108H14.9028C15.0488 32.1108 15.6252 32.1108 15.6252 31.5389C15.6252 30.9905 15.1751 30.9905 14.875 30.9905H13.6476V32.1108ZM13.6476 33.4914H14.9185C15.0606 33.4914 15.7199 33.4914 15.7199 32.8603C15.7199 32.2687 15.183 32.2687 14.8712 32.2687H13.6476V33.4914Z" fill="white"/>
</g>
<mask id="mask1_553_2028" style="mask-type:luminance" maskUnits="userSpaceOnUse" x="0" y="24" width="60" height="13">
<path d="M60 24H0V36.3664H60V24Z" fill="white"/>
</mask>
<g mask="url(#mask1_553_2028)">
<path d="M17.6894 30.7697C18.8341 30.7697 19.1854 31.6888 19.1854 32.241C19.1854 32.7932 18.8341 33.7122 17.6894 33.7122C16.5447 33.7122 16.1934 32.7932 16.1934 32.241C16.1934 31.6888 16.5447 30.7697 17.6894 30.7697ZM17.6894 33.5545C18.5381 33.5545 19.0039 32.9156 19.0039 32.2409C19.0039 31.5664 18.5381 30.9274 17.6894 30.9274C16.8407 30.9274 16.3748 31.5664 16.3748 32.2409C16.3748 32.9156 16.8408 33.5545 17.6894 33.5545Z" fill="white"/>
</g>
<mask id="mask2_553_2028" style="mask-type:luminance" maskUnits="userSpaceOnUse" x="0" y="24" width="60" height="13">
<path d="M60 24H0V36.3664H60V24Z" fill="white"/>
</mask>
<g mask="url(#mask2_553_2028)">
<path d="M20.5508 30.8328H20.756L22.0508 33.6492H21.8454L21.431 32.742H19.8757L19.4613 33.6492H19.2559L20.5508 30.8328ZM19.9467 32.5842H21.3598L20.6533 31.0379L19.9467 32.5842Z" fill="white"/>
</g>
<mask id="mask3_553_2028" style="mask-type:luminance" maskUnits="userSpaceOnUse" x="0" y="24" width="60" height="13">
<path d="M60 24H0V36.3664H60V24Z" fill="white"/>
</mask>
<g mask="url(#mask3_553_2028)">
<path d="M21.6719 30.8328H24.1272V30.9905H22.9903V33.6492H22.8087V30.9905H21.6719V30.8328Z" fill="white"/>
</g>
<mask id="mask4_553_2028" style="mask-type:luminance" maskUnits="userSpaceOnUse" x="0" y="24" width="60" height="13">
<path d="M60 24H0V36.3664H60V24Z" fill="white"/>
</mask>
<g mask="url(#mask4_553_2028)">
<path d="M24.3047 30.8328H25.8245C26.3653 30.8328 26.6455 31.0853 26.6455 31.5271C26.6455 31.8032 26.5193 32.0833 26.0929 32.1741V32.182C26.6416 32.2372 26.7402 32.6356 26.7402 32.8763C26.7402 33.18 26.5745 33.6494 25.7968 33.6494H24.3047V30.8328ZM24.4864 32.1108H25.7417C25.8877 32.1108 26.464 32.1108 26.464 31.5389C26.464 30.9905 26.0139 30.9905 25.714 30.9905H24.4864V32.1108ZM24.4864 33.4914H25.7574C25.8995 33.4914 26.5586 33.4914 26.5586 32.8603C26.5586 32.2687 26.0219 32.2687 25.71 32.2687H24.4864V33.4914Z" fill="white"/>
</g>
<mask id="mask5_553_2028" style="mask-type:luminance" maskUnits="userSpaceOnUse" x="0" y="24" width="60" height="13">
<path d="M60 24H0V36.3664H60V24Z" fill="white"/>
</mask>
<g mask="url(#mask5_553_2028)">
<path d="M28.5282 30.7697C29.673 30.7697 30.0243 31.6888 30.0243 32.241C30.0243 32.7932 29.673 33.7122 28.5282 33.7122C27.3835 33.7122 27.0322 32.7932 27.0322 32.241C27.0322 31.6888 27.3835 30.7697 28.5282 30.7697ZM28.5282 33.5545C29.377 33.5545 29.8427 32.9156 29.8427 32.2409C29.8427 31.5664 29.377 30.9274 28.5282 30.9274C27.6796 30.9274 27.2138 31.5664 27.2138 32.2409C27.2138 32.9156 27.6796 33.5545 28.5282 33.5545Z" fill="white"/>
</g>
<mask id="mask6_553_2028" style="mask-type:luminance" maskUnits="userSpaceOnUse" x="0" y="24" width="60" height="13">
<path d="M60 24H0V36.3664H60V24Z" fill="white"/>
</mask>
<g mask="url(#mask6_553_2028)">
<path d="M31.75 30.7697C32.8945 30.7697 33.2459 31.6888 33.2459 32.241C33.2459 32.7932 32.8945 33.7122 31.75 33.7122C30.6052 33.7122 30.2539 32.7932 30.2539 32.241C30.2539 31.6888 30.6051 30.7697 31.75 30.7697ZM31.75 33.5545C32.5986 33.5545 33.0644 32.9156 33.0644 32.2409C33.0644 31.5664 32.5986 30.9274 31.75 30.9274C30.9012 30.9274 30.4354 31.5664 30.4354 32.2409C30.4354 32.9156 30.9012 33.5545 31.75 33.5545Z" fill="white"/>
</g>
<mask id="mask7_553_2028" style="mask-type:luminance" maskUnits="userSpaceOnUse" x="0" y="24" width="60" height="13">
<path d="M60 24H0V36.3664H60V24Z" fill="white"/>
</mask>
<g mask="url(#mask7_553_2028)">
<path d="M33.5967 30.8328H33.7783V32.4502L35.8073 30.8328H36.0953L34.6348 31.9964L36.198 33.6492H35.9453L34.4928 32.1108L33.7783 32.6789V33.6492H33.5967V30.8328Z" fill="white"/>
</g>
<mask id="mask8_553_2028" style="mask-type:luminance" maskUnits="userSpaceOnUse" x="0" y="24" width="60" height="13">
<path d="M60 24H0V36.3664H60V24Z" fill="white"/>
</mask>
<g mask="url(#mask8_553_2028)">
<path d="M36.5579 30.8328H36.376V33.6492H36.5579V30.8328Z" fill="white"/>
</g>
<mask id="mask9_553_2028" style="mask-type:luminance" maskUnits="userSpaceOnUse" x="0" y="24" width="60" height="13">
<path d="M60 24H0V36.3664H60V24Z" fill="white"/>
</mask>
<g mask="url(#mask9_553_2028)">
<path d="M37.0312 30.8328H37.26L39.3641 33.3968H39.372V30.8328H39.5535V33.6492H39.3246L37.2206 31.0853H37.2128V33.6492H37.0312V30.8328Z" fill="white"/>
</g>
<mask id="mask10_553_2028" style="mask-type:luminance" maskUnits="userSpaceOnUse" x="0" y="24" width="60" height="13">
<path d="M60 24H0V36.3664H60V24Z" fill="white"/>
</mask>
<g mask="url(#mask10_553_2028)">
<path d="M41.5274 32.2451H42.842V33.6492H42.6839V32.9549H42.6759C42.463 33.4599 41.9852 33.7121 41.4445 33.7121C40.5878 33.7121 39.9443 33.1718 39.9443 32.241C39.9443 31.5585 40.4103 30.7697 41.4445 30.7697C42.1353 30.7697 42.6445 31.1089 42.7826 31.7164H42.6009C42.4827 31.1957 42.0089 30.9275 41.4445 30.9275C40.639 30.9275 40.1258 31.531 40.1258 32.241C40.1258 32.9471 40.5799 33.5546 41.4445 33.5546C42.1549 33.5546 42.6167 33.1167 42.6601 32.4028H41.5274V32.2451Z" fill="white"/>
</g>
<mask id="mask11_553_2028" style="mask-type:luminance" maskUnits="userSpaceOnUse" x="0" y="24" width="60" height="13">
<path d="M60 24H0V36.3664H60V24Z" fill="white"/>
</mask>
<g mask="url(#mask11_553_2028)">
<path d="M43.3701 32.7182C43.3742 33.243 43.6939 33.5544 44.452 33.5544C45.1426 33.5544 45.3951 33.2585 45.3951 32.9272C45.3951 32.6118 45.245 32.4698 44.6531 32.3476L44.1282 32.2371C43.5124 32.1069 43.2754 31.9254 43.2754 31.4995C43.2754 31.0774 43.6424 30.7697 44.3412 30.7697C45.0517 30.7697 45.5017 31.03 45.5215 31.6296H45.3399C45.3163 31.3061 45.1345 30.9275 44.3926 30.9275C43.7057 30.9275 43.4806 31.1798 43.4806 31.5033C43.4806 31.8031 43.611 31.9529 44.1477 32.0596L44.7282 32.1738C45.2926 32.2844 45.6005 32.4658 45.6005 32.9155C45.6005 33.2981 45.3478 33.7121 44.4674 33.7121C43.5438 33.7121 43.1885 33.3137 43.1885 32.7181L43.3701 32.7182Z" fill="white"/>
</g>
<mask id="mask12_553_2028" style="mask-type:luminance" maskUnits="userSpaceOnUse" x="0" y="24" width="60" height="13">
<path d="M60 24H0V36.3664H60V24Z" fill="white"/>
</mask>
<g mask="url(#mask12_553_2028)">
<path d="M46.4269 31.1247C46.4269 31.2366 46.339 31.3243 46.2247 31.3243C46.1118 31.3243 46.0215 31.2366 46.0215 31.1247C46.0215 31.0153 46.1117 30.9275 46.2247 30.9275C46.339 30.9275 46.4269 31.0154 46.4269 31.1247ZM46.0718 31.1247C46.0718 31.2125 46.1369 31.2822 46.226 31.2822C46.3127 31.2822 46.3765 31.2125 46.3765 31.126C46.3765 31.0382 46.3127 30.9673 46.2248 30.9673C46.137 30.9673 46.0718 31.0382 46.0718 31.1247ZM46.1935 31.2283H46.1478V31.0311C46.1657 31.0275 46.1911 31.025 46.2236 31.025C46.2608 31.025 46.2776 31.0311 46.2922 31.0394C46.3029 31.0479 46.3113 31.0635 46.3113 31.0828C46.3113 31.1044 46.2944 31.1213 46.2704 31.1284V31.1308C46.2897 31.1381 46.3005 31.1525 46.3066 31.1789C46.3126 31.2089 46.3162 31.221 46.3211 31.2283H46.2717C46.2657 31.221 46.2621 31.2031 46.256 31.1801C46.2524 31.1584 46.2404 31.1488 46.2151 31.1488H46.1935V31.2283ZM46.1947 31.1163H46.2164C46.2417 31.1163 46.2622 31.1079 46.2622 31.0875C46.2622 31.0694 46.2489 31.0575 46.2201 31.0575C46.2079 31.0575 46.1996 31.0587 46.1947 31.0598V31.1163Z" fill="white"/>
</g>
<mask id="mask13_553_2028" style="mask-type:luminance" maskUnits="userSpaceOnUse" x="0" y="24" width="60" height="13">
<path d="M60 24H0V36.3664H60V24Z" fill="white"/>
</mask>
<g mask="url(#mask13_553_2028)">
<path d="M3.05762 32.9196C11.5926 30.3729 20.6362 29.0046 29.9997 29.0046C39.3632 29.0046 48.4069 30.3729 56.942 32.9196C49.026 30.1539 39.86 28.4143 29.9997 28.4143C20.1394 28.4143 10.9736 30.1539 3.05762 32.9196Z" fill="white"/>
</g>
<mask id="mask14_553_2028" style="mask-type:luminance" maskUnits="userSpaceOnUse" x="0" y="24" width="60" height="13">
<path d="M60 24H0V36.3664H60V24Z" fill="white"/>
</mask>
<g mask="url(#mask14_553_2028)">
<path d="M25.6152 27.6883C25.8156 27.6378 26.028 27.5846 26.2569 27.5273C29.6073 26.6903 31.8613 27.304 32.3435 27.4352C31.7022 27.1345 30.1369 26.6543 28.6592 26.6543H26.8621C26.5122 26.6543 26.3473 26.7544 26.3473 26.7544H27.7558C27.1682 26.909 26.2244 27.372 25.6152 27.6883Z" fill="white"/>
</g>
<mask id="mask15_553_2028" style="mask-type:luminance" maskUnits="userSpaceOnUse" x="0" y="24" width="60" height="13">
<path d="M60 24H0V36.3664H60V24Z" fill="white"/>
</mask>
<g mask="url(#mask15_553_2028)">
<path d="M34.8276 27.082C34.9623 27.016 35.1019 26.9532 35.2464 26.8941C31.9778 26.6431 26.9294 27.4317 24.7539 28.5307C27.087 27.576 31.3964 26.921 34.8276 27.082Z" fill="white"/>
</g>
<mask id="mask16_553_2028" style="mask-type:luminance" maskUnits="userSpaceOnUse" x="0" y="24" width="60" height="13">
<path d="M60 24H0V36.3664H60V24Z" fill="white"/>
</mask>
<g mask="url(#mask16_553_2028)">
<path d="M34.2019 27.4338C30.7822 27.3158 26.6521 27.9253 24.7539 28.5307H32.9257C33.2728 28.1327 33.6947 27.7582 34.2019 27.4338Z" fill="white"/>
</g>
</svg>
