<svg width="61" height="60" viewBox="0 0 61 60" fill="none" xmlns="http://www.w3.org/2000/svg">
<path d="M8.8488 14.8856L25.5257 5.32097L31.3851 1.96228L36.2679 5.03958L13.9576 18.1223L8.8488 14.8856Z" fill="#1C80E3"/>
<path d="M17.9042 20.1217L22.9363 23.1228L36.2538 15.3713L31.2412 12.3134L17.9042 20.1217Z" fill="#1C80E3"/>
<path d="M26.6405 25.1747L31.854 28.2118L54.2954 15.4022L48.9397 12.2223L26.6405 25.1747Z" fill="#1C80E3"/>
<path d="M28.8989 30.8534L6.67796 18.1215L6.48404 24.2761L28.8989 37.008V30.8534Z" fill="#1C80E3"/>
<path d="M15.5425 33.3542V39.4714L28.8991 47.1646V40.9685L15.5425 33.3542Z" fill="#1C80E3"/>
<path d="M6.48409 38.3162V44.5485L28.899 57.3567V51.2021L6.48409 38.3162Z" fill="#1C80E3"/>
<path d="M32.5122 31.8686L37.6224 29.0463V54.7404C37.6224 54.7404 32.5638 57.869 32.5122 57.7179C32.4606 57.5668 32.5122 31.8686 32.5122 31.8686Z" fill="#1C80E3"/>
<path d="M41.258 26.7378C41.3347 26.7378 46.3933 23.8656 46.3933 23.8656V39.5294L41.258 42.3308V26.7378Z" fill="#1C80E3"/>
<path d="M50.2687 21.8151L55.3789 18.814V44.5871L50.2687 47.5105V21.8151Z" fill="#1C80E3"/>
</svg>
