<svg width="37" height="37" viewBox="0 0 37 37" fill="none" xmlns="http://www.w3.org/2000/svg">
<path d="M6.16667 24.6666C4.46379 24.6666 3.08333 23.2862 3.08333 21.5833C3.08333 19.8804 4.46379 18.5 6.16667 18.5C7.86954 18.5 9.25 19.8804 9.25 21.5833C9.24779 23.2853 7.86863 24.6644 6.16667 24.6666ZM6.16667 9.24998C4.46379 9.24998 3.08333 7.86952 3.08333 6.16665C3.08333 4.46377 4.46379 3.08331 6.16667 3.08331C7.86954 3.08331 9.25 4.46377 9.25 6.16665C9.24779 7.86862 7.86863 9.24778 6.16667 9.24998ZM21.5833 9.24998C19.8805 9.24998 18.5 7.86952 18.5 6.16665C18.5 4.46377 19.8805 3.08331 21.5833 3.08331C23.2862 3.08331 24.6667 4.46377 24.6667 6.16665C24.6645 7.86862 23.2853 9.24778 21.5833 9.24998ZM21.5833 24.6666C19.8805 24.6666 18.5 23.2862 18.5 21.5833C18.5 19.8804 19.8805 18.5 21.5833 18.5C23.2862 18.5 24.6667 19.8804 24.6667 21.5833C24.6645 23.2853 23.2853 24.6644 21.5833 24.6666Z" fill="#2F55D4" fill-opacity="0.6"/>
<path d="M15.4167 33.9167C13.7138 33.9167 12.3333 32.5362 12.3333 30.8333C12.3333 29.1305 13.7138 27.75 15.4167 27.75C17.1195 27.75 18.5 29.1305 18.5 30.8333C18.4978 32.5353 17.1186 33.9145 15.4167 33.9167ZM15.4167 18.5C13.7138 18.5 12.3333 17.1196 12.3333 15.4167C12.3333 13.7138 13.7138 12.3333 15.4167 12.3333C17.1195 12.3333 18.5 13.7138 18.5 15.4167C18.4978 17.1186 17.1186 18.4978 15.4167 18.5ZM30.8333 18.5C29.1305 18.5 27.75 17.1196 27.75 15.4167C27.75 13.7138 29.1305 12.3333 30.8333 12.3333C32.5362 12.3333 33.9167 13.7138 33.9167 15.4167C33.9145 17.1186 32.5353 18.4978 30.8333 18.5ZM30.8333 33.9167C29.1305 33.9167 27.75 32.5362 27.75 30.8333C27.75 29.1305 29.1305 27.75 30.8333 27.75C32.5362 27.75 33.9167 29.1305 33.9167 30.8333C33.9145 32.5353 32.5353 33.9145 30.8333 33.9167Z" fill="#2F55D4"/>
<path d="M18.9291 7.70833C18.357 6.76016 18.357 5.57317 18.9291 4.625H8.82092C9.39302 5.57317 9.39302 6.76016 8.82092 7.70833H18.9291ZM6.16667 18.5C6.70961 18.5031 7.24186 18.6512 7.70833 18.9291V8.82092C6.76016 9.39302 5.57317 9.39302 4.625 8.82092V18.9291C5.09148 18.6512 5.62372 18.5031 6.16667 18.5Z" fill="#2F55D4" fill-opacity="0.2"/>
<path d="M30.8333 27.75C31.3763 27.7531 31.9085 27.9012 32.375 28.1791V18.0709C31.4268 18.643 30.2398 18.643 29.2917 18.0709V28.1791C29.7581 27.9012 30.2904 27.7531 30.8333 27.75ZM15.4167 27.75C15.9596 27.7531 16.4919 27.9012 16.9583 28.1791V18.0709C16.0102 18.643 14.8232 18.643 13.875 18.0709V28.1791C14.3415 27.9012 14.8737 27.7531 15.4167 27.75Z" fill="#2F55D4" fill-opacity="0.6"/>
<path d="M18.9291 20.0417H16.9583V23.125H18.9291C18.357 22.1768 18.357 20.9898 18.9291 20.0417ZM13.875 23.125V20.0417H8.82092C9.39302 20.9898 9.39302 22.1768 8.82092 23.125H13.875Z" fill="#2F55D4" fill-opacity="0.2"/>
<path d="M28.1791 29.2917H18.0709C18.643 30.2398 18.643 31.4268 18.0709 32.375H28.1791C27.607 31.4268 27.607 30.2398 28.1791 29.2917ZM28.1791 16.9583C27.607 16.0102 27.607 14.8232 28.1791 13.875H18.0709C18.643 14.8232 18.643 16.0102 18.0709 16.9583H28.1791Z" fill="#2F55D4" fill-opacity="0.6"/>
<path d="M23.125 13.875V8.82092C22.1768 9.39302 20.9898 9.39302 20.0417 8.82092V13.875H23.125ZM20.0417 16.9583V18.9291C20.9898 18.357 22.1768 18.357 23.125 18.9291V16.9583H20.0417Z" fill="#2F55D4" fill-opacity="0.2"/>
</svg>
