<svg width="40" height="31" viewBox="0 0 40 31" fill="none" xmlns="http://www.w3.org/2000/svg">
<mask id="mask0_552_3887" style="mask-type:luminance" maskUnits="userSpaceOnUse" x="0" y="0" width="40" height="31">
<rect y="0.25" width="40" height="30" fill="white"/>
</mask>
<g mask="url(#mask0_552_3887)">
<path fill-rule="evenodd" clip-rule="evenodd" d="M0 0.25H40V30.25H0V0.25Z" fill="#E31D1C"/>
<path fill-rule="evenodd" clip-rule="evenodd" d="M0 2.75V5.25H40V2.75H0ZM0 7.75V10.25H40V7.75H0ZM0 15.25V12.75H40V15.25H0ZM0 17.75V20.25H40V17.75H0ZM0 25.25V22.75H40V25.25H0ZM0 30.25V27.75H40V30.25H0Z" fill="#F7FCFF"/>
<rect y="0.25" width="22.5" height="17.5" fill="#2E42A5"/>
<path fill-rule="evenodd" clip-rule="evenodd" d="M2.6005 5.68437L3.9253 4.76154L4.95295 5.50137H4.37109L5.54776 6.54212L5.15034 8.00137H4.52787L3.92345 6.66113L3.40799 8.00137H1.87109L3.04776 9.04212L2.6005 10.6844L3.9253 9.76154L4.95294 10.5014H4.37109L5.54776 11.5421L5.15034 13.0014H4.52787L3.92345 11.6611L3.40799 13.0014H1.87109L3.04776 14.0421L2.6005 15.6844L3.9253 14.7615L5.20713 15.6844L4.8086 14.0421L5.83802 13.0014H5.3632L6.4253 12.2615L7.45294 13.0014H6.87109L8.04776 14.0421L7.6005 15.6844L8.9253 14.7615L10.2071 15.6844L9.8086 14.0421L10.838 13.0014H10.3632L11.4253 12.2615L12.4529 13.0014H11.8711L13.0478 14.0421L12.6005 15.6844L13.9253 14.7615L15.2071 15.6844L14.8086 14.0421L15.838 13.0014H15.3632L16.4253 12.2615L17.4529 13.0014H16.8711L18.0478 14.0421L17.6005 15.6844L18.9253 14.7615L20.2071 15.6844L19.8086 14.0421L20.838 13.0014H19.5279L18.9234 11.6611L18.408 13.0014H17.6627L17.3086 11.5421L18.338 10.5014H17.8632L18.9253 9.76154L20.2071 10.6844L19.8086 9.04212L20.838 8.00137H19.5279L18.9234 6.66113L18.408 8.00137H17.6627L17.3086 6.54212L18.338 5.50137H17.8632L18.9253 4.76154L20.2071 5.68437L19.8086 4.04212L20.838 3.00137H19.5279L18.9234 1.66113L18.408 3.00137H16.8711L18.0478 4.04212L17.6503 5.50137H17.0279L16.4234 4.16113L15.908 5.50137H15.1627L14.8086 4.04212L15.838 3.00137H14.5279L13.9234 1.66113L13.408 3.00137H11.8711L13.0478 4.04212L12.6503 5.50137H12.0279L11.4234 4.16113L10.908 5.50137H10.1627L9.8086 4.04212L10.838 3.00137H9.52787L8.92345 1.66113L8.40799 3.00137H6.87109L8.04776 4.04212L7.65034 5.50137H7.02787L6.42345 4.16113L5.90799 5.50137H5.16272L4.8086 4.04212L5.83802 3.00137H4.52787L3.92345 1.66113L3.40799 3.00137H1.87109L3.04776 4.04212L2.6005 5.68437ZM17.6503 10.5014L18.0478 9.04212L16.8711 8.00137H17.4529L16.4253 7.26154L15.3632 8.00137H15.838L14.8086 9.04212L15.1627 10.5014H15.908L16.4234 9.16113L17.0279 10.5014H17.6503ZM14.9529 10.5014L13.9253 9.76154L12.8632 10.5014H13.338L12.3086 11.5421L12.6627 13.0014H13.408L13.9234 11.6611L14.5279 13.0014H15.1503L15.5478 11.5421L14.3711 10.5014H14.9529ZM10.5478 11.5421L10.1503 13.0014H9.52787L8.92345 11.6611L8.40799 13.0014H7.66272L7.3086 11.5421L8.33802 10.5014H7.8632L8.9253 9.76154L9.95295 10.5014H9.37109L10.5478 11.5421ZM10.908 10.5014H10.1627L9.8086 9.04212L10.838 8.00137H10.3632L11.4253 7.26154L12.4529 8.00137H11.8711L13.0478 9.04212L12.6503 10.5014H12.0279L11.4234 9.16113L10.908 10.5014ZM7.65034 10.5014L8.04776 9.04212L6.87109 8.00137H7.45295L6.4253 7.26154L5.3632 8.00137H5.83802L4.8086 9.04212L5.16272 10.5014H5.90799L6.42345 9.16113L7.02787 10.5014H7.65034ZM15.5478 6.54212L15.1503 8.00137H14.5279L13.9234 6.66113L13.408 8.00137H12.6627L12.3086 6.54212L13.338 5.50137H12.8632L13.9253 4.76154L14.9529 5.50137H14.3711L15.5478 6.54212ZM9.95295 5.50137L8.9253 4.76154L7.8632 5.50137H8.33802L7.3086 6.54212L7.66272 8.00137H8.40799L8.92345 6.66113L9.52787 8.00137H10.1503L10.5478 6.54212L9.37109 5.50137H9.95295Z" fill="#F7FCFF"/>
</g>
</svg>
