<svg width="80" height="80" viewBox="0 0 80 80" fill="none" xmlns="http://www.w3.org/2000/svg">
<rect width="80" height="80" rx="40" fill="#F2F5FD"/>
<path d="M39.1667 50C39.1667 43.55 44.3833 38.3333 50.8333 38.3333C52.6333 38.3333 54.3167 38.75 55.8333 39.4667V28.3333C55.8333 26.5 54.3333 25 52.5 25H25.8333C24 25 22.5 26.5 22.5 28.3333V48.3333C22.5 50.1667 24 51.6667 25.8333 51.6667H39.3C39.2167 51.1167 39.1667 50.5667 39.1667 50ZM25.8333 28.3333L39.1667 36.6667L52.5 28.3333V31.6667L39.1667 40L25.8333 31.6667V28.3333ZM48.0667 55L42.1667 49.1L44.5167 46.75L48.05 50.2833L55.1167 43.2167L57.5 45.5667L48.0667 55Z" fill="#2F55D4"/>
</svg>
