<svg width="22" height="25" viewBox="0 0 22 25" fill="none" xmlns="http://www.w3.org/2000/svg">
<g clip-path="url(#clip0_853_169)">
<path d="M16.8879 17.1342C15.6543 18.121 13.9273 18.8612 12.2003 18.8612C8.25293 18.8612 5.5391 15.9006 5.5391 11.9532C5.5391 8.00585 8.25293 5.29203 12.2003 5.29203C13.9273 5.29203 15.6543 5.78545 16.8879 7.01901L17.628 7.75914L21.5754 4.05847L20.5885 3.31833C18.3681 1.34463 15.4075 0.111084 12.2003 0.111084C5.2924 0.111084 0.11145 5.29203 0.11145 12.1999C0.11145 19.1079 5.2924 24.2888 12.2003 24.2888C15.4075 24.2888 18.3681 23.0552 20.5885 21.0816L21.5754 20.3414L17.628 16.3941L16.8879 17.1342Z" fill="#294A57"/>
<path d="M11.9536 16.1476C14.1337 16.1476 15.901 14.3802 15.901 12.2002C15.901 10.0201 14.1337 8.25276 11.9536 8.25276C9.77354 8.25276 8.00623 10.0201 8.00623 12.2002C8.00623 14.3802 9.77354 16.1476 11.9536 16.1476Z" fill="#F3513A"/>
</g>
<defs>
<clipPath id="clip0_853_169">
<rect width="21.6667" height="25" fill="white"/>
</clipPath>
</defs>
</svg>
