<?xml version="1.0" encoding="UTF-8"?>
<svg id="Layer_2" xmlns="http://www.w3.org/2000/svg" viewBox="0 0 40.24 35.86">
  <defs>
    <style>
      .cls-1 {
        fill: #f3f4f5;
      }
    </style>
  </defs>
  <g id="Layer_2-2" data-name="Layer_2">
    <g>
      <path class="cls-1" d="M.06,19.01v-2.49c.12,0,.23-.06.34-.07.29-.04.56-.15.79-.33.24-.17.43-.41.56-.68.17-.34.27-.71.31-1.09.04-.3.05-.59.05-.89v-7.79c-.02-.97.17-1.94.55-2.82.3-.71.76-1.33,1.34-1.8.58-.47,1.26-.79,1.99-.92.4-.08.82-.12,1.23-.11h3.15v2.53h-3.1c-.42-.03-.83.09-1.18.34-.34.25-.6.62-.72,1.04-.19.56-.28,1.16-.27,1.76v8.5c0,.6-.09,1.2-.27,1.76-.1.37-.28.7-.51,1-.23.29-.52.53-.84.71l-.08.05-.04.07.09.04c.39.22.74.53,1,.91s.43.82.5,1.29c.09.45.14.91.14,1.37v8.32c-.02.7.09,1.39.32,2.05.11.28.25.55.42.8.15.24.36.43.61.56.24.13.52.19.79.18h2.58c.02-.09.03-.17.04-.26v-7.45c-.22.17-.43.35-.63.54l-.59.52-.62.55c-.02-.06-.03-.13-.04-.19v-3.01c0-.07.02-.13.05-.19.03-.06.08-.11.13-.14l4.09-3.74,7.35-6.67.27-.24,5.78,4.81c.11-.08.08-.17.08-.26v-1.6h2.14c.19,0,.28.1.28.29v3.39c0,.62-.06.46.37.83,1.18,1.06,2.41,2.11,3.61,3.16.06.05.11.11.14.18s.05.15.04.23v3.12c-.11,0-.15-.07-.21-.13-.48-.42-.95-.84-1.42-1.25l-.18-.15h-.05v7.65h1.53c.26,0,.51-.07.75-.16.57-.22,1.08-.58,1.49-1.04.41-.47.71-1.03.87-1.64.08-.33.11-.67.09-1.01v-7.9c-.02-.63.06-1.26.24-1.87.1-.37.27-.72.5-1.03.23-.3.52-.55.84-.74.05-.03.1-.06.14-.11-.04-.03-.07-.06-.11-.08-.37-.2-.69-.49-.94-.84s-.42-.76-.5-1.18c-.12-.53-.17-1.07-.17-1.61V6c0-.32-.03-.64-.1-.96-.13-.58-.43-1.1-.86-1.48-.65-.65-1.52-1-2.42-.99h-1.87c-.06-.85-.06-1.7,0-2.55h.22c.8,0,1.61-.04,2.41,0,1.68.09,3.26.88,4.39,2.2.83.99,1.27,2.27,1.23,3.59v7.74c0,.47.05.94.18,1.38.08.31.23.6.42.85.27.34.66.56,1.07.62l.35.06c.06.85.06,1.7,0,2.55l-.38.06c-.3.05-.58.18-.81.38-.24.2-.42.45-.53.75-.22.54-.33,1.13-.31,1.72v7.79c0,.98-.22,1.95-.66,2.82-.48.92-1.18,1.69-2.02,2.23-.84.56-1.78.92-2.76,1.05-.27.04-.55.05-.83.05h-3.89v-12.12c0-.49.07-.34-.31-.62l-7.67-6.35-.28-.22c-.06.03-.11.07-.16.12l-7.08,6.57c-.06.05-.1.11-.12.18-.03.07-.04.15-.03.22v12.19h-5.21c-1.03,0-2.04-.34-2.87-.99s-1.44-1.56-1.73-2.61c-.25-.78-.37-1.6-.37-2.43v-7.93c0-.54-.08-1.08-.27-1.59-.13-.36-.36-.67-.65-.9-.3-.22-.65-.34-1.02-.35l-.23-.05.06.03Z"/>
      <path class="cls-1" d="M22.46,24.82v2.49c-.79.06-1.57.06-2.36,0v-2.34c0-.11.04-.17.15-.17h2.21v.02Z"/>
      <path class="cls-1" d="M22.46,24.82v2.49c-.79.06-1.57.06-2.36,0v-2.34c0-.11.04-.17.15-.17h2.21v.02Z"/>
      <path class="cls-1" d="M16.93,28.26h2.36c.03.21.03.42,0,.62v1.25c.02.21.02.42,0,.62h-2.36c-.05-.83-.05-1.66,0-2.49Z"/>
      <path class="cls-1" d="M16.93,28.26h2.36c.03.21.03.42,0,.62v1.25c.02.21.02.42,0,.62h-2.36c-.05-.83-.05-1.66,0-2.49Z"/>
      <path class="cls-1" d="M16.9,27.33v-2.49c.77-.07,1.55-.08,2.33-.04.07.83.08,1.66.03,2.49-.78.06-1.57.08-2.36.04Z"/>
      <path class="cls-1" d="M16.9,27.33v-2.49c.77-.07,1.55-.08,2.33-.04.07.83.08,1.66.03,2.49-.78.06-1.57.08-2.36.04Z"/>
      <path class="cls-1" d="M22.48,28.28v2.46c-.78.07-1.57.08-2.36.04-.06-.83-.06-1.66,0-2.49.79-.05,1.57-.05,2.36,0h0Z"/>
      <path class="cls-1" d="M22.48,28.28v2.46c-.78.07-1.57.08-2.36.04-.06-.83-.06-1.66,0-2.49.79-.05,1.57-.05,2.36,0h0Z"/>
    </g>
  </g>
</svg>