<svg width="60" height="60" viewBox="0 0 60 60" fill="none" xmlns="http://www.w3.org/2000/svg">
<path d="M31.2594 54.9966C29.1684 54.5235 27.0191 54.2219 25 53.5466C14.3632 49.9815 7.50055 39.7835 8.02845 28.4954C8.52207 17.9168 16.3686 8.38037 26.7997 5.81629C34.6805 3.87952 41.9031 5.40494 48.4161 10.2246C48.9063 10.588 49.3554 11.0096 49.921 11.4861C49.3108 12.1785 48.7966 12.7715 48.2722 13.3508C47.8985 13.7656 47.5043 14.1598 47.1272 14.554C35.894 5.56606 23.0119 9.36419 16.9067 17.0461C10.284 25.376 10.973 37.1406 18.4664 44.5963C25.785 51.8737 38.89 53.4437 48.4641 43.9827C49.4548 44.8568 50.4592 45.7446 51.5801 46.7353C47.9602 50.6911 43.6136 53.1626 38.4889 54.3178C37.3405 54.5784 36.175 54.7738 35.0164 55H31.256L31.2594 54.9966Z" fill="url(#paint0_linear_1050_12631)"/>
<path d="M31.7051 44.6306C29.1136 43.7462 26.7586 42.968 24.4344 42.1145C24.1328 42.0014 23.9271 41.5009 23.7797 41.1375C23.6803 40.8942 23.7592 40.5788 23.7592 40.2943C23.7592 33.1059 23.7592 25.921 23.7592 18.839C28.7913 18.839 33.7481 18.4379 38.6054 18.9555C43.2434 19.4491 45.9617 23.0861 45.9446 27.371C45.9275 31.5771 43.2057 34.8027 38.698 35.79C37.2274 36.1122 35.6986 36.1533 34.012 36.3419V24.5773H24.1911C26.2958 25.3074 27.9721 25.9999 29.7066 26.4592C31.2594 26.8706 31.8216 27.6041 31.7668 29.2735C31.6262 33.747 31.7085 38.2272 31.7051 42.7041C31.7051 43.2594 31.7051 43.8147 31.7051 44.6306Z" fill="url(#paint1_linear_1050_12631)"/>
<defs>
<linearGradient id="paint0_linear_1050_12631" x1="29.79" y1="5" x2="29.79" y2="55" gradientUnits="userSpaceOnUse">
<stop stop-color="#28F499"/>
<stop offset="0.355" stop-color="#1AD5BC"/>
<stop offset="0.63" stop-color="#13C7CC"/>
<stop offset="0.97" stop-color="#09B3E4"/>
</linearGradient>
<linearGradient id="paint1_linear_1050_12631" x1="34.8371" y1="18.6908" x2="34.8371" y2="44.6306" gradientUnits="userSpaceOnUse">
<stop stop-color="#28F499"/>
<stop offset="0.355" stop-color="#1AD5BC"/>
<stop offset="0.63" stop-color="#13C7CC"/>
<stop offset="0.97" stop-color="#09B3E4"/>
</linearGradient>
</defs>
</svg>
