<svg width="60" height="60" viewBox="0 0 60 60" fill="none" xmlns="http://www.w3.org/2000/svg">
<g clip-path="url(#clip0_1050_11817)">
<path d="M48.5233 58.2127H11.4804C11.1664 58.1744 10.8525 58.1323 10.5385 58.0959C4.56186 57.3914 0.00950681 52.2992 0.00567808 46.2747C-0.00389374 35.1427 -6.50106e-05 24.0106 0.00759245 12.8767C0.00759245 12.3043 0.0401366 11.7262 0.132026 11.1614C1.08347 5.25179 5.96892 1.02871 11.9475 1.01722C24.0214 0.994247 36.0953 0.992333 48.1692 1.01913C54.6608 1.03445 59.977 6.37935 59.9884 12.871C60.0076 24.0202 60.0038 35.1676 59.9884 46.3168C59.9808 51.811 56.1827 56.5702 50.8263 57.8336C50.0701 58.0117 49.2929 58.0882 48.5233 58.2127ZM34.2728 33.9902C34.5274 33.9902 34.7169 33.9921 34.9065 33.9902C36.7079 33.9634 38.5169 34.0304 40.3088 33.8907C43.5153 33.6399 46.2433 32.3439 48.2687 29.7786C50.4339 27.0353 51.2015 23.8862 50.834 20.4423C50.1773 14.2742 45.5273 10.0013 39.3344 9.97261C30.8174 9.9305 22.2984 9.95347 13.7814 9.96496C13.0999 9.96496 12.4108 10.0377 11.7407 10.1621C10.6132 10.3708 9.6847 10.9375 9.30566 12.0688C9.09125 12.7063 9.00127 13.4108 8.99936 14.0866C8.98022 24.2633 8.98596 34.4401 8.98787 44.6169C8.98787 44.749 9.00128 44.881 9.01468 45.1644C9.78425 43.4242 11.0688 42.6853 12.7649 42.6183C13.7374 42.58 14.7099 42.5972 15.6824 42.5915C15.9006 42.5915 16.1208 42.5915 16.3926 42.5915V41.9655C16.3926 39.4921 16.4041 37.0207 16.3831 34.5492C16.3792 34.1185 16.5075 34.0189 16.921 34.0189C20.095 34.0247 23.269 34.0075 26.443 33.9979C26.5809 33.9979 26.7206 34.0151 26.9044 34.0266C26.9044 34.2429 26.9025 34.4305 26.9044 34.6181C26.9255 36.0367 26.8891 37.4591 26.9848 38.8738C27.1188 40.8437 28.1794 42.4881 30.4134 42.5608C31.7095 42.603 32.7872 42.1856 33.5128 41.0485C34.1196 40.0951 34.2632 39.0307 34.2671 37.9338C34.2728 36.6435 34.2671 35.3552 34.2671 33.9941L34.2728 33.9902ZM44.0514 43.1332H43.255C33.3826 43.1332 23.5102 43.1294 13.6379 43.1428C12.9908 43.1428 12.3284 43.2117 11.7024 43.3649C10.5021 43.6616 9.74979 44.4637 9.46455 45.6678C9.17548 46.895 9.47795 47.9727 10.3739 48.8667C11.2334 49.7206 12.3361 49.8699 13.4694 49.8718C24.5861 49.8775 35.7028 49.8756 46.8195 49.8737C49.1034 49.8737 50.5315 48.4494 50.5315 46.179C50.5334 40.1334 50.5315 34.0898 50.5315 28.0442V27.5618C50.4511 27.6077 50.4166 27.6173 50.4051 27.6384C50.3439 27.7494 50.2922 27.8662 50.2328 27.9791C48.9349 30.4161 47.1373 32.3381 44.5414 33.4044C44.172 33.5557 44.038 33.7184 44.0399 34.1185C44.0571 36.9096 44.0495 39.7008 44.0495 42.4919V43.1332H44.0514Z" fill="#00283A"/>
<path d="M16.3813 27.223V16.7687C16.5709 16.7591 16.7412 16.7438 16.9116 16.7438C23.8818 16.7438 30.8501 16.7438 37.8203 16.7438C39.1987 16.7438 40.4717 17.0271 41.5112 18.0187C42.6464 19.1004 43.1154 20.4672 43.1174 21.9796C43.1174 23.5627 42.6177 24.9832 41.3944 26.0801C40.4238 26.9512 39.2484 27.2479 37.9945 27.2498C30.8827 27.2613 23.7689 27.2555 16.657 27.2536C16.5804 27.2536 16.502 27.2383 16.3833 27.2249L16.3813 27.223ZM26.0833 22.0293C26.091 24.5467 28.1126 26.5491 30.6319 26.5357C33.1091 26.5223 35.1268 24.4893 35.1211 22.0064C35.1153 19.5005 33.0784 17.4904 30.563 17.5057C28.0647 17.521 26.0757 19.5292 26.0833 22.0293Z" fill="#00283A"/>
<path d="M27.5628 34.957C27.5628 33.6993 27.5207 32.4377 27.5762 31.1819C27.6202 30.1749 27.9112 29.2292 28.7688 28.5745C30.3903 27.3359 32.8081 28.0902 33.392 30.0371C33.5509 30.5655 33.6543 31.1283 33.6619 31.6777C33.6926 33.8773 33.706 36.0769 33.6543 38.2746C33.639 38.9427 33.482 39.6376 33.2446 40.2675C32.7584 41.5577 31.6078 41.9827 30.3558 41.9023C28.4281 41.7798 27.737 40.39 27.5666 38.78C27.5379 38.5101 27.5188 38.2402 27.5168 37.9683C27.5111 36.9652 27.5149 35.9601 27.5149 34.957C27.5302 34.957 27.5456 34.957 27.5609 34.957H27.5628Z" fill="#00283A"/>
<path d="M30.6052 25.9595C28.4151 25.9614 26.6405 24.204 26.6348 22.0255C26.629 19.8699 28.4266 18.0666 30.5899 18.0551C32.7531 18.0436 34.5411 19.8316 34.543 22.0102C34.543 24.2079 32.8009 25.9576 30.6052 25.9595Z" fill="#BE222C"/>
</g>
<defs>
<clipPath id="clip0_1050_11817">
<rect width="60" height="57.2127" fill="white" transform="translate(0 1)"/>
</clipPath>
</defs>
</svg>
