<svg width="60" height="60" viewBox="0 0 60 60" fill="none" xmlns="http://www.w3.org/2000/svg">
<g clip-path="url(#clip0_1050_10840)">
<path d="M19.21 30.673C24.7526 30.673 30.4288 30.673 36.0929 30.6973C36.5548 30.6973 37.2476 30.8796 37.4421 31.2078C39.4476 34.6962 42.7415 35.5349 46.9106 35.7658C35.0841 44.7238 22.82 52.0288 9.5835 57C11.6498 52.9525 14.2144 48.9172 15.831 44.5293C17.4354 40.1658 18.0918 35.4376 19.2222 30.673H19.21Z" fill="#00457D"/>
<path d="M9 2C22.5039 6.83757 34.6343 14.1182 46.3514 22.8575C45.1967 23.0641 44.3094 23.1856 43.4464 23.3801C41.2099 23.8785 39.0464 24.7779 37.989 26.8564C37.2597 28.2906 36.3602 28.3149 35.1204 28.3028C29.663 28.2663 24.2055 28.2906 18.5901 28.2906C17.9459 18.5425 15.0287 9.73039 9 2Z" fill="#00457D"/>
<path d="M40.809 30.8552C42.3527 32.8972 44.4919 31.3779 46.546 32.0342C46.5946 31.0983 46.619 30.4176 46.6676 29.4817C45.0753 29.4817 43.6775 29.4209 42.2919 29.4939C40.8819 29.5668 40.5781 28.7767 40.5659 27.6221C40.5538 26.4309 40.9427 25.7016 42.3162 25.7745C43.5924 25.8475 44.8808 25.6895 46.1449 25.8475C46.6676 25.9082 47.1173 26.5403 47.4212 27.1116C45.9018 26.4309 45.525 26.3823 41.6963 26.6861C41.2344 27.9988 41.356 28.8497 43.1062 28.7038C43.8477 28.643 44.5891 28.7403 45.3306 28.6795C46.7405 28.5823 47.6035 28.8861 47.6156 30.6121C47.64 32.3988 46.7283 32.5812 45.3306 32.5082C44.1272 32.4353 42.8875 32.6055 41.7085 32.4353C41.1737 32.3502 40.7118 31.706 40.2256 31.3049C40.4201 31.1469 40.6145 30.9889 40.8212 30.8309L40.809 30.8552Z" fill="#00457D"/>
</g>
<defs>
<clipPath id="clip0_1050_10840">
<rect width="38.6033" height="55" fill="white" transform="translate(9 2)"/>
</clipPath>
</defs>
</svg>
