<svg width="60" height="60" viewBox="0 0 60 60" fill="none" xmlns="http://www.w3.org/2000/svg">
<g clip-path="url(#clip0_1050_12389)">
<g clip-path="url(#clip1_1050_12389)">
<path d="M40.9898 40.01C31.3298 41.5 21.7398 41.31 12.2598 38.81C9.0698 37.97 5.9698 36.84 3.3298 34.79C2.4698 34.12 1.6898 33.3 1.0798 32.41C-0.010202 30.82 0.049798 29.12 1.0598 27.48C1.8698 26.16 3.0398 25.21 4.3298 24.4C7.3998 22.47 10.7998 21.41 14.2998 20.59C15.3198 20.35 16.3498 20.16 17.3898 20.03C15.6298 20.55 13.8498 21.01 12.1198 21.59C9.6998 22.4 7.3498 23.41 5.3698 25.06C4.4698 25.81 3.6298 26.72 2.9998 27.72C2.0298 29.27 2.1498 30.92 3.1398 32.46C4.1798 34.09 5.7398 35.12 7.4198 35.99C10.8598 37.78 14.5798 38.73 18.3798 39.39C25.7198 40.65 33.0898 40.79 40.4898 40.01C40.6498 39.99 40.8198 40.01 40.9898 40.01Z" fill="white"/>
<path d="M21.5299 31.95C19.7499 31.95 18.9699 31.15 19.2099 29.41C19.4299 27.78 19.7199 26.15 20.0899 24.54C20.5299 22.59 23.0099 21.58 24.7699 22.58C25.4199 22.95 25.7599 23.56 25.6499 24.26C25.3499 26.2 25.0499 28.14 24.5999 30.04C24.3099 31.27 23.0599 31.94 21.5399 31.94L21.5299 31.95ZM23.2099 23.91L22.9599 23.77C22.8099 23.99 22.5899 24.18 22.5199 24.42C22.3899 24.83 22.3499 25.26 22.2699 25.68C22.0299 27.06 21.7699 28.45 21.5499 29.84C21.5199 30 21.6799 30.19 21.7499 30.37C21.9099 30.25 22.0899 30.16 22.2099 30.01C22.2999 29.89 22.3199 29.7 22.3499 29.53C22.6399 27.93 22.9299 26.34 23.1999 24.74C23.2499 24.47 23.1999 24.18 23.1999 23.91H23.2099Z" fill="white"/>
<path d="M38.5596 31.73H36.0696C35.9796 30.61 35.8896 29.5 35.7996 28.4C35.7596 28.4 35.7096 28.4 35.6696 28.4C35.4596 29.51 35.2596 30.63 35.0496 31.74H32.6196C33.1696 28.65 33.7096 25.6 34.2596 22.5H36.6896C36.5196 23.5 36.3596 24.48 36.1896 25.45C36.2396 25.47 36.2896 25.49 36.3296 25.51C36.6796 24.78 37.0696 24.07 37.3596 23.32C37.6196 22.65 37.9796 22.31 38.7396 22.43C39.1396 22.5 39.5496 22.44 40.0796 22.44C39.5596 23.46 39.1396 24.45 38.5896 25.35C38.0196 26.27 37.9396 27.19 38.1196 28.22C38.3196 29.37 38.4096 30.53 38.5496 31.73H38.5596Z" fill="white"/>
<path d="M57.17 26.44H54.69C54.81 25.71 54.93 25.03 55.01 24.34C55.03 24.18 54.85 24 54.77 23.84C54.6 23.94 54.37 24.01 54.27 24.15C54.15 24.31 54.13 24.55 54.09 24.76C53.81 26.29 53.54 27.82 53.26 29.35C53.23 29.51 53.18 29.69 53.21 29.85C53.25 30.03 53.37 30.2 53.46 30.37C53.64 30.24 53.92 30.15 53.97 29.99C54.16 29.38 54.27 28.74 54.41 28.08H56.82C56.72 28.54 56.62 28.96 56.55 29.38C56.15 31.75 53.87 32.31 52.05 31.81C51.18 31.57 50.7 31 50.81 30.11C51.08 28.1 51.34 26.07 51.86 24.12C52.35 22.32 55.34 21.58 56.78 22.8C57.09 23.06 57.34 23.56 57.36 23.96C57.39 24.78 57.24 25.61 57.16 26.45L57.17 26.44Z" fill="white"/>
<path d="M32.0797 28.04C31.8597 29.18 31.8197 30.23 31.0297 31.02C30.1097 31.94 28.3297 32.27 27.1297 31.75C26.4497 31.45 25.9897 30.94 26.0997 30.19C26.3897 28.16 26.6197 26.11 27.1497 24.13C27.6297 22.32 30.5997 21.58 32.0497 22.78C32.3197 23 32.4597 23.4 32.6297 23.73C32.6997 23.87 32.6897 24.06 32.6897 24.22C32.6697 26.4 32.2797 26.73 29.9697 26.41C30.0697 25.79 30.2097 25.16 30.2597 24.54C30.2797 24.32 30.0897 24.08 29.9997 23.85C29.8097 24.03 29.4897 24.18 29.4497 24.39C29.0897 26.19 28.7697 28.01 28.4697 29.82C28.4397 29.99 28.6397 30.19 28.7397 30.38C28.9197 30.25 29.1897 30.15 29.2497 29.99C29.4097 29.52 29.4297 29 29.5897 28.53C29.6597 28.33 29.9197 28.09 30.1197 28.07C30.7297 28.01 31.3597 28.05 32.0797 28.05V28.04Z" fill="white"/>
<path d="M47.9199 29.91H49.6799C49.5899 30.47 49.5399 30.96 49.4199 31.44C49.3899 31.57 49.1799 31.76 49.0499 31.76C47.7599 31.78 46.4699 31.77 45.1299 31.77C45.6899 28.64 46.2299 25.58 46.7799 22.49H50.8399C50.7399 23.05 50.8099 23.75 50.4999 24.08C50.2099 24.39 49.4999 24.3 48.8999 24.4C48.8099 24.87 48.7099 25.4 48.5899 26.02C49.0799 26.05 49.5399 26.08 50.0799 26.11C49.9999 26.62 49.9799 27.1 49.8299 27.54C49.7799 27.69 49.4199 27.86 49.2199 27.83C48.4699 27.74 48.0999 27.99 48.0999 28.77C48.0999 29.12 47.9899 29.47 47.9099 29.9L47.9199 29.91Z" fill="white"/>
<path d="M42.7997 31.74H40.3697C40.8097 29.26 41.2297 26.83 41.6697 24.32H40.2397C40.3497 23.67 40.4497 23.1 40.5597 22.49H45.8897C45.7797 23.11 45.6797 23.68 45.5597 24.31H44.1197C43.6697 26.81 43.2397 29.25 42.7897 31.75L42.7997 31.74Z" fill="white"/>
<path d="M15.5497 22.47H17.9897C17.5497 24.94 17.1297 27.38 16.6797 29.9H18.1497C18.0397 30.56 17.9397 31.13 17.8397 31.74H13.9097C14.4597 28.63 14.9997 25.56 15.5497 22.48V22.47Z" fill="white"/>
<path d="M14.9248 33.1562H15.419L15.7276 35.1836L16.7412 33.1562H17.2764L15.8155 36H15.3995L14.9248 33.1562ZM14.6182 33.1562H15.1436L14.8702 35.291L14.7452 36H14.126L14.6182 33.1562ZM17.0342 33.1562H17.5616L17.0694 36H16.4463L16.5791 35.2383L17.0342 33.1562ZM18.9826 33.7285L17.8869 36H17.2013L18.717 33.1562H19.1525L18.9826 33.7285ZM19.1857 36L18.8673 33.666L18.8869 33.1562H19.297L19.8283 36H19.1857ZM19.3341 34.9414L19.2462 35.4336H17.8048L17.8927 34.9414H19.3341ZM21.5052 35.2363C21.5169 35.1712 21.5117 35.1159 21.4895 35.0703C21.4687 35.0247 21.4374 34.9863 21.3958 34.9551C21.3541 34.9238 21.3066 34.8971 21.2532 34.875C21.1998 34.8529 21.1484 34.832 21.0989 34.8125C20.9973 34.7734 20.8971 34.7285 20.7981 34.6777C20.7005 34.627 20.6119 34.5671 20.5325 34.498C20.4531 34.429 20.3906 34.3483 20.345 34.2559C20.3007 34.1621 20.2825 34.0527 20.2903 33.9277C20.2994 33.7858 20.3391 33.6634 20.4095 33.5605C20.4811 33.4564 20.5729 33.3711 20.6848 33.3047C20.7968 33.2383 20.9173 33.1901 21.0462 33.1602C21.1764 33.1289 21.3046 33.1146 21.4309 33.1172C21.608 33.1198 21.7662 33.1562 21.9055 33.2266C22.0462 33.2969 22.1562 33.3978 22.2356 33.5293C22.3164 33.6595 22.3548 33.8158 22.3509 33.998H21.7356C21.7395 33.9186 21.7291 33.8496 21.7044 33.791C21.6809 33.7324 21.6425 33.6868 21.5891 33.6543C21.5358 33.6217 21.468 33.6048 21.386 33.6035C21.3157 33.6009 21.246 33.6113 21.177 33.6348C21.108 33.6582 21.0488 33.6947 20.9993 33.7441C20.9498 33.7923 20.9179 33.8548 20.9036 33.9316C20.8945 33.9889 20.9029 34.0391 20.929 34.082C20.9563 34.1237 20.9934 34.1595 21.0403 34.1895C21.0885 34.2181 21.1386 34.2428 21.1907 34.2637C21.2441 34.2845 21.2916 34.3021 21.3333 34.3164C21.4387 34.3568 21.5403 34.4036 21.638 34.457C21.7369 34.5091 21.8242 34.5716 21.8997 34.6445C21.9765 34.7161 22.0351 34.8001 22.0755 34.8965C22.1158 34.9928 22.1321 35.1042 22.1243 35.2305C22.1139 35.3763 22.0748 35.5007 22.0071 35.6035C21.9394 35.7064 21.8528 35.7904 21.7473 35.8555C21.6419 35.9206 21.5253 35.9681 21.3977 35.998C21.2714 36.028 21.1432 36.0423 21.013 36.041C20.8697 36.0384 20.735 36.0163 20.6087 35.9746C20.4837 35.9329 20.3743 35.8717 20.2805 35.791C20.1868 35.7103 20.1139 35.612 20.0618 35.4961C20.011 35.3789 19.9876 35.2441 19.9915 35.0918L20.6126 35.0938C20.6074 35.1693 20.6126 35.2363 20.6282 35.2949C20.6451 35.3522 20.6712 35.4004 20.7063 35.4395C20.7428 35.4772 20.789 35.5059 20.845 35.5254C20.9023 35.5449 20.97 35.5547 21.0481 35.5547C21.1171 35.556 21.1842 35.5456 21.2493 35.5234C21.3157 35.5013 21.3717 35.4668 21.4173 35.4199C21.4641 35.373 21.4934 35.3118 21.5052 35.2363ZM24.016 33.1562L23.5238 36H22.9027L23.3969 33.1562H24.016ZM24.8559 33.1562L24.7699 33.6504H22.4867L22.5746 33.1562H24.8559ZM26.5054 35.5078L26.4195 36H24.9468L25.0327 35.5078H26.5054ZM25.6538 33.1562L25.1597 36H24.5405L25.0327 33.1562H25.6538ZM26.523 34.3008L26.4409 34.7773H25.1577L25.2417 34.3008H26.523ZM26.9136 33.1562L26.8277 33.6504H25.353L25.4409 33.1562H26.9136ZM27.0924 33.1562L28.1198 33.1582C28.2929 33.1608 28.4511 33.1927 28.5944 33.2539C28.7389 33.3138 28.8515 33.4049 28.9323 33.5273C29.013 33.6497 29.0468 33.8066 29.0338 33.998C29.0221 34.153 28.9856 34.2845 28.9245 34.3926C28.8646 34.4993 28.7838 34.5905 28.6823 34.666C28.5807 34.7402 28.4622 34.8053 28.3268 34.8613L28.1061 34.9727H27.1705L27.2545 34.4785L27.8952 34.4824C27.985 34.4811 28.0664 34.4635 28.1393 34.4297C28.2122 34.3958 28.2721 34.3477 28.319 34.2852C28.3659 34.2214 28.3952 34.1432 28.4069 34.0508C28.4186 33.974 28.4147 33.9062 28.3952 33.8477C28.3769 33.7891 28.3424 33.7428 28.2916 33.709C28.2422 33.6751 28.1784 33.6562 28.1002 33.6523L27.6276 33.6504L27.2194 36H26.6002L27.0924 33.1562ZM28.1412 36L27.7409 34.7363L28.3678 34.7344L28.8034 35.9688L28.8014 36H28.1412ZM31.745 35.5078L31.6591 36H30.2626L30.3485 35.5078H31.745ZM30.9696 33.1562L30.4755 36H29.8563L30.3485 33.1562H30.9696ZM34.2656 34.5059L34.25 34.6309C34.224 34.8158 34.1745 34.9935 34.1016 35.1641C34.0299 35.3333 33.9349 35.4844 33.8164 35.6172C33.6992 35.75 33.5599 35.8548 33.3984 35.9316C33.2383 36.0072 33.0573 36.043 32.8555 36.0391C32.6615 36.0352 32.4967 35.9935 32.3613 35.9141C32.2259 35.8346 32.1178 35.7285 32.0371 35.5957C31.9577 35.4629 31.9043 35.3145 31.877 35.1504C31.8496 34.985 31.8464 34.8158 31.8672 34.6426L31.8828 34.5156C31.9089 34.3333 31.9583 34.1576 32.0312 33.9883C32.1055 33.819 32.2012 33.668 32.3184 33.5352C32.4368 33.4023 32.5768 33.2988 32.7383 33.2246C32.8997 33.1491 33.0807 33.1133 33.2812 33.1172C33.474 33.1198 33.6374 33.1608 33.7715 33.2402C33.9069 33.3197 34.0143 33.4258 34.0938 33.5586C34.1732 33.6914 34.2266 33.8398 34.2539 34.0039C34.2826 34.168 34.2865 34.3353 34.2656 34.5059ZM33.6211 34.6426L33.6387 34.5098C33.6491 34.4277 33.6549 34.3366 33.6562 34.2363C33.6576 34.1361 33.6471 34.0397 33.625 33.9473C33.6029 33.8548 33.5618 33.778 33.502 33.7168C33.4434 33.6556 33.3574 33.6224 33.2441 33.6172C33.1217 33.612 33.0169 33.6367 32.9297 33.6914C32.8438 33.7448 32.7728 33.8171 32.7168 33.9082C32.6608 33.998 32.6165 34.0964 32.584 34.2031C32.5514 34.3099 32.528 34.4128 32.5137 34.5117L32.4961 34.6445C32.487 34.7253 32.4811 34.8164 32.4785 34.918C32.4772 35.0182 32.487 35.1152 32.5078 35.209C32.5299 35.3027 32.571 35.3809 32.6309 35.4434C32.6908 35.5046 32.7773 35.5371 32.8906 35.541C33.0117 35.5462 33.1152 35.5215 33.2012 35.4668C33.2884 35.4108 33.3607 35.3379 33.418 35.248C33.4753 35.1569 33.5202 35.0579 33.5527 34.9512C33.5853 34.8444 33.6081 34.7415 33.6211 34.6426ZM36.005 35.0488L36.6124 35.041C36.5903 35.2546 36.52 35.4362 36.4015 35.5859C36.283 35.7357 36.1339 35.8496 35.9542 35.9277C35.7745 36.0059 35.5818 36.043 35.3761 36.0391C35.1821 36.0352 35.0187 35.9948 34.8859 35.918C34.7543 35.8398 34.6508 35.7357 34.5753 35.6055C34.4998 35.4753 34.4497 35.3294 34.4249 35.168C34.4015 35.0052 34.4008 34.8379 34.423 34.666L34.4484 34.4922C34.4744 34.3125 34.5219 34.14 34.5909 33.9746C34.6612 33.8079 34.753 33.6595 34.8663 33.5293C34.9796 33.3978 35.1144 33.2949 35.2706 33.2207C35.4269 33.1465 35.6046 33.1113 35.8038 33.1152C36.0122 33.1191 36.1892 33.1634 36.3351 33.248C36.4809 33.3327 36.5935 33.4505 36.673 33.6016C36.7537 33.7513 36.7986 33.9277 36.8077 34.1309L36.1905 34.1289C36.1932 34.026 36.1821 33.9368 36.1573 33.8613C36.1326 33.7858 36.089 33.7266 36.0265 33.6836C35.9653 33.6406 35.8787 33.6172 35.7667 33.6133C35.6469 33.6094 35.546 33.6341 35.464 33.6875C35.382 33.7396 35.3142 33.8099 35.2609 33.8984C35.2088 33.9857 35.1684 34.0814 35.1398 34.1855C35.1111 34.2884 35.0896 34.3893 35.0753 34.4883L35.0519 34.668C35.0415 34.75 35.033 34.8405 35.0265 34.9395C35.0213 35.0371 35.0271 35.1315 35.0441 35.2227C35.0623 35.3125 35.0994 35.3874 35.1554 35.4473C35.2127 35.5072 35.298 35.5391 35.4112 35.543C35.5232 35.5456 35.6196 35.528 35.7003 35.4902C35.781 35.4512 35.8468 35.3945 35.8976 35.3203C35.9484 35.2448 35.9842 35.1543 36.005 35.0488ZM37.8049 33.1562L37.3108 36H36.6916L37.1838 33.1562H37.8049ZM39.4748 33.1562L38.135 34.5938L37.3791 35.2988L37.3694 34.6602L37.8791 34.0605L38.6741 33.1562H39.4748ZM38.26 36L37.7112 34.6797L38.2229 34.3203L38.9631 36H38.26ZM40.6087 35.2363C40.6205 35.1712 40.6153 35.1159 40.5931 35.0703C40.5723 35.0247 40.541 34.9863 40.4994 34.9551C40.4577 34.9238 40.4102 34.8971 40.3568 34.875C40.3034 34.8529 40.252 34.832 40.2025 34.8125C40.1009 34.7734 40.0007 34.7285 39.9017 34.6777C39.8041 34.627 39.7155 34.5671 39.6361 34.498C39.5567 34.429 39.4942 34.3483 39.4486 34.2559C39.4043 34.1621 39.3861 34.0527 39.3939 33.9277C39.403 33.7858 39.4427 33.6634 39.513 33.5605C39.5847 33.4564 39.6765 33.3711 39.7884 33.3047C39.9004 33.2383 40.0209 33.1901 40.1498 33.1602C40.28 33.1289 40.4082 33.1146 40.5345 33.1172C40.7116 33.1198 40.8698 33.1562 41.0091 33.2266C41.1498 33.2969 41.2598 33.3978 41.3392 33.5293C41.4199 33.6595 41.4584 33.8158 41.4545 33.998H40.8392C40.8431 33.9186 40.8327 33.8496 40.808 33.791C40.7845 33.7324 40.7461 33.6868 40.6927 33.6543C40.6393 33.6217 40.5716 33.6048 40.4896 33.6035C40.4193 33.6009 40.3496 33.6113 40.2806 33.6348C40.2116 33.6582 40.1524 33.6947 40.1029 33.7441C40.0534 33.7923 40.0215 33.8548 40.0072 33.9316C39.9981 33.9889 40.0065 34.0391 40.0326 34.082C40.0599 34.1237 40.097 34.1595 40.1439 34.1895C40.1921 34.2181 40.2422 34.2428 40.2943 34.2637C40.3477 34.2845 40.3952 34.3021 40.4369 34.3164C40.5423 34.3568 40.6439 34.4036 40.7416 34.457C40.8405 34.5091 40.9278 34.5716 41.0033 34.6445C41.0801 34.7161 41.1387 34.8001 41.1791 34.8965C41.2194 34.9928 41.2357 35.1042 41.2279 35.2305C41.2175 35.3763 41.1784 35.5007 41.1107 35.6035C41.043 35.7064 40.9564 35.7904 40.8509 35.8555C40.7455 35.9206 40.6289 35.9681 40.5013 35.998C40.375 36.028 40.2468 36.0423 40.1166 36.041C39.9733 36.0384 39.8386 36.0163 39.7123 35.9746C39.5873 35.9329 39.4779 35.8717 39.3841 35.791C39.2904 35.7103 39.2175 35.612 39.1654 35.4961C39.1146 35.3789 39.0912 35.2441 39.0951 35.0918L39.7162 35.0938C39.711 35.1693 39.7162 35.2363 39.7318 35.2949C39.7487 35.3522 39.7748 35.4004 39.8099 35.4395C39.8464 35.4772 39.8926 35.5059 39.9486 35.5254C40.0059 35.5449 40.0736 35.5547 40.1517 35.5547C40.2207 35.556 40.2878 35.5456 40.3529 35.5234C40.4193 35.5013 40.4753 35.4668 40.5209 35.4199C40.5677 35.373 40.597 35.3118 40.6087 35.2363ZM42.1372 33.1562H42.6313L42.9399 35.1836L43.9536 33.1562H44.4887L43.0278 36H42.6118L42.1372 33.1562ZM41.8305 33.1562H42.3559L42.0825 35.291L41.9575 36H41.3384L41.8305 33.1562ZM44.2466 33.1562H44.7739L44.2817 36H43.6587L43.7915 35.2383L44.2466 33.1562ZM45.7691 33.1562L45.277 36H44.6578L45.152 33.1562H45.7691ZM47.3718 33.1562L46.8796 36H46.2585L46.7527 33.1562H47.3718ZM48.2116 33.1562L48.1257 33.6504H45.8425L45.9304 33.1562H48.2116ZM50.0448 34.3008L49.9588 34.793H48.5272L48.6131 34.3008H50.0448ZM49.0096 33.1562L48.5155 36H47.8963L48.3885 33.1562H49.0096ZM50.6698 33.1562L50.1756 36H49.5584L50.0506 33.1562H50.6698ZM52.0713 35.2363C52.083 35.1712 52.0778 35.1159 52.0556 35.0703C52.0348 35.0247 52.0035 34.9863 51.9619 34.9551C51.9202 34.9238 51.8727 34.8971 51.8193 34.875C51.7659 34.8529 51.7145 34.832 51.665 34.8125C51.5634 34.7734 51.4632 34.7285 51.3642 34.6777C51.2666 34.627 51.178 34.5671 51.0986 34.498C51.0192 34.429 50.9567 34.3483 50.9111 34.2559C50.8668 34.1621 50.8486 34.0527 50.8564 33.9277C50.8655 33.7858 50.9052 33.6634 50.9755 33.5605C51.0472 33.4564 51.139 33.3711 51.2509 33.3047C51.3629 33.2383 51.4834 33.1901 51.6123 33.1602C51.7425 33.1289 51.8707 33.1146 51.997 33.1172C52.1741 33.1198 52.3323 33.1562 52.4716 33.2266C52.6123 33.2969 52.7223 33.3978 52.8017 33.5293C52.8824 33.6595 52.9209 33.8158 52.917 33.998H52.3017C52.3056 33.9186 52.2952 33.8496 52.2705 33.791C52.247 33.7324 52.2086 33.6868 52.1552 33.6543C52.1018 33.6217 52.0341 33.6048 51.9521 33.6035C51.8818 33.6009 51.8121 33.6113 51.7431 33.6348C51.6741 33.6582 51.6149 33.6947 51.5654 33.7441C51.5159 33.7923 51.484 33.8548 51.4697 33.9316C51.4606 33.9889 51.469 34.0391 51.4951 34.082C51.5224 34.1237 51.5595 34.1595 51.6064 34.1895C51.6546 34.2181 51.7047 34.2428 51.7568 34.2637C51.8102 34.2845 51.8577 34.3021 51.8994 34.3164C52.0048 34.3568 52.1064 34.4036 52.2041 34.457C52.303 34.5091 52.3903 34.5716 52.4658 34.6445C52.5426 34.7161 52.6012 34.8001 52.6416 34.8965C52.6819 34.9928 52.6982 35.1042 52.6904 35.2305C52.68 35.3763 52.6409 35.5007 52.5732 35.6035C52.5055 35.7064 52.4189 35.7904 52.3134 35.8555C52.208 35.9206 52.0914 35.9681 51.9638 35.998C51.8375 36.028 51.7093 36.0423 51.5791 36.041C51.4358 36.0384 51.3011 36.0163 51.1748 35.9746C51.0498 35.9329 50.9404 35.8717 50.8466 35.791C50.7529 35.7103 50.68 35.612 50.6279 35.4961C50.5771 35.3789 50.5537 35.2441 50.5576 35.0918L51.1787 35.0938C51.1735 35.1693 51.1787 35.2363 51.1943 35.2949C51.2112 35.3522 51.2373 35.4004 51.2724 35.4395C51.3089 35.4772 51.3551 35.5059 51.4111 35.5254C51.4684 35.5449 51.5361 35.5547 51.6142 35.5547C51.6832 35.556 51.7503 35.5456 51.8154 35.5234C51.8818 35.5013 51.9378 35.4668 51.9834 35.4199C52.0302 35.373 52.0595 35.3118 52.0713 35.2363Z" fill="#F09B19"/>
<path d="M58.5504 21.1469V22H58.4391V21.1469H58.5504ZM58.8246 21.1469V21.2395H58.1655V21.1469H58.8246ZM58.9509 21.1469H59.0605L59.34 21.8424L59.6189 21.1469H59.7291L59.3822 22H59.2966L58.9509 21.1469ZM58.9152 21.1469H59.0119L59.0277 21.6672V22H58.9152V21.1469ZM59.6675 21.1469H59.7642V22H59.6517V21.6672L59.6675 21.1469Z" fill="white"/>
</g>
</g>
<defs>
<clipPath id="clip0_1050_12389">
<rect width="60" height="60" rx="4" fill="white"/>
</clipPath>
<clipPath id="clip1_1050_12389">
<rect width="60.14" height="21.98" fill="white" transform="translate(0 19)"/>
</clipPath>
</defs>
</svg>
