<svg width="60" height="60" viewBox="0 0 60 60" fill="none" xmlns="http://www.w3.org/2000/svg">
<path d="M5.87453 27.875H3.69453V34H2.34953V27.875H0.169531V26.77H5.87453V27.875ZM8.72945 30.845C8.72945 30.685 8.70612 30.535 8.65945 30.395C8.61612 30.2517 8.54945 30.1267 8.45945 30.02C8.36945 29.9133 8.25445 29.83 8.11445 29.77C7.97779 29.7067 7.81779 29.675 7.63445 29.675C7.27779 29.675 6.99612 29.7767 6.78945 29.98C6.58612 30.1833 6.45612 30.4717 6.39945 30.845H8.72945ZM6.37445 31.59C6.39445 31.8533 6.44112 32.0817 6.51445 32.275C6.58779 32.465 6.68445 32.6233 6.80445 32.75C6.92445 32.8733 7.06612 32.9667 7.22945 33.03C7.39612 33.09 7.57945 33.12 7.77945 33.12C7.97945 33.12 8.15112 33.0967 8.29445 33.05C8.44112 33.0033 8.56779 32.9517 8.67445 32.895C8.78445 32.8383 8.87945 32.7867 8.95945 32.74C9.04279 32.6933 9.12279 32.67 9.19945 32.67C9.30279 32.67 9.37945 32.7083 9.42945 32.785L9.78445 33.235C9.64779 33.395 9.49445 33.53 9.32445 33.64C9.15445 33.7467 8.97612 33.8333 8.78945 33.9C8.60612 33.9633 8.41779 34.0083 8.22445 34.035C8.03445 34.0617 7.84945 34.075 7.66945 34.075C7.31279 34.075 6.98112 34.0167 6.67445 33.9C6.36779 33.78 6.10112 33.605 5.87445 33.375C5.64779 33.1417 5.46945 32.855 5.33945 32.515C5.20945 32.1717 5.14445 31.775 5.14445 31.325C5.14445 30.975 5.20112 30.6467 5.31445 30.34C5.42779 30.03 5.58945 29.7617 5.79945 29.535C6.01279 29.305 6.27112 29.1233 6.57445 28.99C6.88112 28.8567 7.22612 28.79 7.60945 28.79C7.93279 28.79 8.23112 28.8417 8.50445 28.945C8.77779 29.0483 9.01279 29.2 9.20945 29.4C9.40612 29.5967 9.55945 29.84 9.66945 30.13C9.78279 30.4167 9.83945 30.745 9.83945 31.115C9.83945 31.3017 9.81945 31.4283 9.77945 31.495C9.73945 31.5583 9.66279 31.59 9.54945 31.59H6.37445ZM11.9313 29.76C12.0913 29.4533 12.2813 29.2133 12.5013 29.04C12.7213 28.8633 12.9813 28.775 13.2812 28.775C13.5179 28.775 13.7079 28.8267 13.8513 28.93L13.7713 29.855C13.7546 29.915 13.7296 29.9583 13.6963 29.985C13.6663 30.0083 13.6246 30.02 13.5713 30.02C13.5213 30.02 13.4463 30.0117 13.3463 29.995C13.2496 29.9783 13.1546 29.97 13.0613 29.97C12.9246 29.97 12.8029 29.99 12.6963 30.03C12.5896 30.07 12.4929 30.1283 12.4063 30.205C12.3229 30.2783 12.2479 30.3683 12.1813 30.475C12.1179 30.5817 12.0579 30.7033 12.0013 30.84V34H10.7663V28.87H11.4913C11.6179 28.87 11.7063 28.8933 11.7563 28.94C11.8063 28.9833 11.8396 29.0633 11.8563 29.18L11.9313 29.76ZM17.6552 30.845C17.6552 30.685 17.6319 30.535 17.5852 30.395C17.5419 30.2517 17.4752 30.1267 17.3852 30.02C17.2952 29.9133 17.1802 29.83 17.0402 29.77C16.9036 29.7067 16.7436 29.675 16.5602 29.675C16.2036 29.675 15.9219 29.7767 15.7152 29.98C15.5119 30.1833 15.3819 30.4717 15.3252 30.845H17.6552ZM15.3002 31.59C15.3202 31.8533 15.3669 32.0817 15.4402 32.275C15.5136 32.465 15.6102 32.6233 15.7302 32.75C15.8502 32.8733 15.9919 32.9667 16.1552 33.03C16.3219 33.09 16.5052 33.12 16.7052 33.12C16.9052 33.12 17.0769 33.0967 17.2202 33.05C17.3669 33.0033 17.4936 32.9517 17.6002 32.895C17.7102 32.8383 17.8052 32.7867 17.8852 32.74C17.9686 32.6933 18.0486 32.67 18.1252 32.67C18.2286 32.67 18.3052 32.7083 18.3552 32.785L18.7102 33.235C18.5736 33.395 18.4202 33.53 18.2502 33.64C18.0802 33.7467 17.9019 33.8333 17.7152 33.9C17.5319 33.9633 17.3436 34.0083 17.1502 34.035C16.9602 34.0617 16.7752 34.075 16.5952 34.075C16.2386 34.075 15.9069 34.0167 15.6002 33.9C15.2936 33.78 15.0269 33.605 14.8002 33.375C14.5736 33.1417 14.3952 32.855 14.2652 32.515C14.1352 32.1717 14.0702 31.775 14.0702 31.325C14.0702 30.975 14.1269 30.6467 14.2402 30.34C14.3536 30.03 14.5152 29.7617 14.7252 29.535C14.9386 29.305 15.1969 29.1233 15.5002 28.99C15.8069 28.8567 16.1519 28.79 16.5352 28.79C16.8586 28.79 17.1569 28.8417 17.4302 28.945C17.7036 29.0483 17.9386 29.2 18.1352 29.4C18.3319 29.5967 18.4852 29.84 18.5952 30.13C18.7086 30.4167 18.7652 30.745 18.7652 31.115C18.7652 31.3017 18.7452 31.4283 18.7052 31.495C18.6652 31.5583 18.5886 31.59 18.4752 31.59H15.3002ZM22.822 29.87C22.7887 29.9233 22.7537 29.9617 22.717 29.985C22.6804 30.005 22.6337 30.015 22.577 30.015C22.517 30.015 22.452 29.9983 22.382 29.965C22.3154 29.9317 22.237 29.895 22.147 29.855C22.057 29.8117 21.9537 29.7733 21.837 29.74C21.7237 29.7067 21.5887 29.69 21.432 29.69C21.1887 29.69 20.997 29.7417 20.857 29.845C20.7204 29.9483 20.652 30.0833 20.652 30.25C20.652 30.36 20.687 30.4533 20.757 30.53C20.8304 30.6033 20.9254 30.6683 21.042 30.725C21.162 30.7817 21.297 30.8333 21.447 30.88C21.597 30.9233 21.7487 30.9717 21.902 31.025C22.0587 31.0783 22.212 31.14 22.362 31.21C22.512 31.2767 22.6454 31.3633 22.762 31.47C22.882 31.5733 22.977 31.6983 23.047 31.845C23.1204 31.9917 23.157 32.1683 23.157 32.375C23.157 32.6217 23.112 32.85 23.022 33.06C22.9354 33.2667 22.8054 33.4467 22.632 33.6C22.4587 33.75 22.2437 33.8683 21.987 33.955C21.7337 34.0383 21.4404 34.08 21.107 34.08C20.9304 34.08 20.757 34.0633 20.587 34.03C20.4204 34 20.2587 33.9567 20.102 33.9C19.9487 33.8433 19.8054 33.7767 19.672 33.7C19.542 33.6233 19.427 33.54 19.327 33.45L19.612 32.98C19.6487 32.9233 19.692 32.88 19.742 32.85C19.792 32.82 19.8554 32.805 19.932 32.805C20.0087 32.805 20.0804 32.8267 20.147 32.87C20.217 32.9133 20.297 32.96 20.387 33.01C20.477 33.06 20.582 33.1067 20.702 33.15C20.8254 33.1933 20.9804 33.215 21.167 33.215C21.3137 33.215 21.4387 33.1983 21.542 33.165C21.6487 33.1283 21.7354 33.0817 21.802 33.025C21.872 32.9683 21.922 32.9033 21.952 32.83C21.9854 32.7533 22.002 32.675 22.002 32.595C22.002 32.475 21.9654 32.3767 21.892 32.3C21.822 32.2233 21.727 32.1567 21.607 32.1C21.4904 32.0433 21.3554 31.9933 21.202 31.95C21.052 31.9033 20.897 31.8533 20.737 31.8C20.5804 31.7467 20.4254 31.685 20.272 31.615C20.122 31.5417 19.987 31.45 19.867 31.34C19.7504 31.23 19.6554 31.095 19.582 30.935C19.512 30.775 19.477 30.5817 19.477 30.355C19.477 30.145 19.5187 29.945 19.602 29.755C19.6854 29.565 19.807 29.4 19.967 29.26C20.1304 29.1167 20.332 29.0033 20.572 28.92C20.8154 28.8333 21.0954 28.79 21.412 28.79C21.7654 28.79 22.087 28.8483 22.377 28.965C22.667 29.0817 22.9087 29.235 23.102 29.425L22.822 29.87ZM26.7966 31.81C26.4399 31.8267 26.1399 31.8583 25.8966 31.905C25.6532 31.9483 25.4582 32.005 25.3116 32.075C25.1649 32.145 25.0599 32.2267 24.9966 32.32C24.9332 32.4133 24.9016 32.515 24.9016 32.625C24.9016 32.8417 24.9649 32.9967 25.0916 33.09C25.2216 33.1833 25.3899 33.23 25.5966 33.23C25.8499 33.23 26.0682 33.185 26.2516 33.095C26.4382 33.0017 26.6199 32.8617 26.7966 32.675V31.81ZM23.9666 29.585C24.5566 29.045 25.2666 28.775 26.0966 28.775C26.3966 28.775 26.6649 28.825 26.9016 28.925C27.1382 29.0217 27.3382 29.1583 27.5016 29.335C27.6649 29.5083 27.7882 29.7167 27.8716 29.96C27.9582 30.2033 28.0016 30.47 28.0016 30.76V34H27.4416C27.3249 34 27.2349 33.9833 27.1716 33.95C27.1082 33.9133 27.0582 33.8417 27.0216 33.735L26.9116 33.365C26.7816 33.4817 26.6549 33.585 26.5316 33.675C26.4082 33.7617 26.2799 33.835 26.1466 33.895C26.0132 33.955 25.8699 34 25.7166 34.03C25.5666 34.0633 25.3999 34.08 25.2166 34.08C24.9999 34.08 24.7999 34.0517 24.6166 33.995C24.4332 33.935 24.2749 33.8467 24.1416 33.73C24.0082 33.6133 23.9049 33.4683 23.8316 33.295C23.7582 33.1217 23.7216 32.92 23.7216 32.69C23.7216 32.56 23.7432 32.4317 23.7866 32.305C23.8299 32.175 23.8999 32.0517 23.9966 31.935C24.0966 31.8183 24.2249 31.7083 24.3816 31.605C24.5382 31.5017 24.7299 31.4117 24.9566 31.335C25.1866 31.2583 25.4532 31.1967 25.7566 31.15C26.0599 31.1 26.4066 31.07 26.7966 31.06V30.76C26.7966 30.4167 26.7232 30.1633 26.5766 30C26.4299 29.8333 26.2182 29.75 25.9416 29.75C25.7416 29.75 25.5749 29.7733 25.4416 29.82C25.3116 29.8667 25.1966 29.92 25.0966 29.98C24.9966 30.0367 24.9049 30.0883 24.8216 30.135C24.7416 30.1817 24.6516 30.205 24.5516 30.205C24.4649 30.205 24.3916 30.1833 24.3316 30.14C24.2716 30.0933 24.2232 30.04 24.1866 29.98L23.9666 29.585ZM34.4963 32.95C34.7463 32.95 34.9563 32.92 35.1263 32.86C35.2963 32.8 35.4313 32.72 35.5313 32.62C35.6347 32.52 35.708 32.4033 35.7513 32.27C35.798 32.1367 35.8213 31.995 35.8213 31.845C35.8213 31.6883 35.7963 31.5483 35.7463 31.425C35.6963 31.2983 35.618 31.1917 35.5113 31.105C35.4047 31.015 35.2663 30.9467 35.0963 30.9C34.9297 30.8533 34.728 30.83 34.4913 30.83H33.1363V32.95H34.4963ZM33.1363 27.81V29.9H34.2063C34.6663 29.9 35.013 29.8167 35.2463 29.65C35.483 29.4833 35.6013 29.2183 35.6013 28.855C35.6013 28.4783 35.4947 28.21 35.2813 28.05C35.068 27.89 34.7347 27.81 34.2813 27.81H33.1363ZM34.2813 26.77C34.7547 26.77 35.1597 26.815 35.4963 26.905C35.833 26.995 36.108 27.1233 36.3213 27.29C36.538 27.4567 36.6963 27.6583 36.7963 27.895C36.8963 28.1317 36.9463 28.3983 36.9463 28.695C36.9463 28.865 36.9213 29.0283 36.8713 29.185C36.8213 29.3383 36.743 29.4833 36.6363 29.62C36.533 29.7533 36.3997 29.875 36.2363 29.985C36.0763 30.095 35.8847 30.1883 35.6613 30.265C36.6547 30.4883 37.1513 31.025 37.1513 31.875C37.1513 32.1817 37.093 32.465 36.9763 32.725C36.8597 32.985 36.6897 33.21 36.4663 33.4C36.243 33.5867 35.968 33.7333 35.6413 33.84C35.3147 33.9467 34.9413 34 34.5213 34H31.7913V26.77H34.2813ZM41.415 30.845C41.415 30.685 41.3917 30.535 41.345 30.395C41.3017 30.2517 41.235 30.1267 41.145 30.02C41.055 29.9133 40.94 29.83 40.8 29.77C40.6633 29.7067 40.5033 29.675 40.32 29.675C39.9633 29.675 39.6817 29.7767 39.475 29.98C39.2717 30.1833 39.1417 30.4717 39.085 30.845H41.415ZM39.06 31.59C39.08 31.8533 39.1267 32.0817 39.2 32.275C39.2733 32.465 39.37 32.6233 39.49 32.75C39.61 32.8733 39.7517 32.9667 39.915 33.03C40.0817 33.09 40.265 33.12 40.465 33.12C40.665 33.12 40.8367 33.0967 40.98 33.05C41.1267 33.0033 41.2533 32.9517 41.36 32.895C41.47 32.8383 41.565 32.7867 41.645 32.74C41.7283 32.6933 41.8083 32.67 41.885 32.67C41.9883 32.67 42.065 32.7083 42.115 32.785L42.47 33.235C42.3333 33.395 42.18 33.53 42.01 33.64C41.84 33.7467 41.6617 33.8333 41.475 33.9C41.2917 33.9633 41.1033 34.0083 40.91 34.035C40.72 34.0617 40.535 34.075 40.355 34.075C39.9983 34.075 39.6667 34.0167 39.36 33.9C39.0533 33.78 38.7867 33.605 38.56 33.375C38.3333 33.1417 38.155 32.855 38.025 32.515C37.895 32.1717 37.83 31.775 37.83 31.325C37.83 30.975 37.8867 30.6467 38 30.34C38.1133 30.03 38.275 29.7617 38.485 29.535C38.6983 29.305 38.9567 29.1233 39.26 28.99C39.5667 28.8567 39.9117 28.79 40.295 28.79C40.6183 28.79 40.9167 28.8417 41.19 28.945C41.4633 29.0483 41.6983 29.2 41.895 29.4C42.0917 29.5967 42.245 29.84 42.355 30.13C42.4683 30.4167 42.525 30.745 42.525 31.115C42.525 31.3017 42.505 31.4283 42.465 31.495C42.425 31.5583 42.3483 31.59 42.235 31.59H39.06ZM44.6168 29.76C44.7768 29.4533 44.9668 29.2133 45.1868 29.04C45.4068 28.8633 45.6668 28.775 45.9668 28.775C46.2035 28.775 46.3935 28.8267 46.5368 28.93L46.4568 29.855C46.4401 29.915 46.4151 29.9583 46.3818 29.985C46.3518 30.0083 46.3101 30.02 46.2568 30.02C46.2068 30.02 46.1318 30.0117 46.0318 29.995C45.9351 29.9783 45.8401 29.97 45.7468 29.97C45.6101 29.97 45.4885 29.99 45.3818 30.03C45.2751 30.07 45.1785 30.1283 45.0918 30.205C45.0085 30.2783 44.9335 30.3683 44.8668 30.475C44.8035 30.5817 44.7435 30.7033 44.6868 30.84V34H43.4518V28.87H44.1768C44.3035 28.87 44.3918 28.8933 44.4418 28.94C44.4918 28.9833 44.5251 29.0633 44.5418 29.18L44.6168 29.76ZM48.9987 31.31C49.152 31.31 49.2853 31.29 49.3987 31.25C49.512 31.2067 49.6053 31.1483 49.6787 31.075C49.7553 31.0017 49.812 30.9133 49.8487 30.81C49.8887 30.7067 49.9087 30.5933 49.9087 30.47C49.9087 30.2167 49.832 30.0167 49.6787 29.87C49.5287 29.72 49.302 29.645 48.9987 29.645C48.6953 29.645 48.467 29.72 48.3137 29.87C48.1637 30.0167 48.0887 30.2167 48.0887 30.47C48.0887 30.59 48.107 30.7017 48.1437 30.805C48.1837 30.9083 48.2403 30.9983 48.3137 31.075C48.3903 31.1483 48.4853 31.2067 48.5987 31.25C48.7153 31.29 48.8487 31.31 48.9987 31.31ZM50.3937 34.23C50.3937 34.13 50.3637 34.0483 50.3037 33.985C50.2437 33.9217 50.162 33.8733 50.0587 33.84C49.9553 33.8033 49.8337 33.7767 49.6937 33.76C49.557 33.7433 49.4103 33.7317 49.2537 33.725C49.1003 33.715 48.9403 33.7067 48.7737 33.7C48.6103 33.6933 48.4503 33.68 48.2937 33.66C48.157 33.7367 48.0453 33.8267 47.9587 33.93C47.8753 34.0333 47.8337 34.1533 47.8337 34.29C47.8337 34.38 47.8553 34.4633 47.8987 34.54C47.9453 34.62 48.017 34.6883 48.1137 34.745C48.2137 34.8017 48.342 34.845 48.4987 34.875C48.6553 34.9083 48.847 34.925 49.0737 34.925C49.3037 34.925 49.502 34.9067 49.6687 34.87C49.8353 34.8367 49.972 34.7883 50.0787 34.725C50.1887 34.665 50.2687 34.5917 50.3187 34.505C50.3687 34.4217 50.3937 34.33 50.3937 34.23ZM51.6237 29.045V29.505C51.6237 29.6517 51.5353 29.7417 51.3587 29.775L50.8987 29.86C50.9687 30.0367 51.0037 30.23 51.0037 30.44C51.0037 30.6933 50.952 30.9233 50.8487 31.13C50.7487 31.3333 50.6087 31.5067 50.4287 31.65C50.2487 31.7933 50.0353 31.905 49.7887 31.985C49.5453 32.0617 49.282 32.1 48.9987 32.1C48.8987 32.1 48.802 32.095 48.7087 32.085C48.6153 32.075 48.5237 32.0617 48.4337 32.045C48.2737 32.1417 48.1937 32.25 48.1937 32.37C48.1937 32.4733 48.2403 32.55 48.3337 32.6C48.4303 32.6467 48.557 32.68 48.7137 32.7C48.8703 32.72 49.0487 32.7333 49.2487 32.74C49.4487 32.7433 49.6537 32.7533 49.8637 32.77C50.0737 32.7867 50.2787 32.8167 50.4787 32.86C50.6787 32.9 50.857 32.965 51.0137 33.055C51.1703 33.145 51.2953 33.2683 51.3887 33.425C51.4853 33.5783 51.5337 33.7767 51.5337 34.02C51.5337 34.2467 51.477 34.4667 51.3637 34.68C51.2537 34.8933 51.092 35.0833 50.8787 35.25C50.6687 35.4167 50.4087 35.55 50.0987 35.65C49.792 35.7533 49.442 35.805 49.0487 35.805C48.662 35.805 48.3253 35.7667 48.0387 35.69C47.752 35.6167 47.5137 35.5167 47.3237 35.39C47.1337 35.2667 46.992 35.1233 46.8987 34.96C46.8053 34.7967 46.7587 34.6267 46.7587 34.45C46.7587 34.21 46.8303 34.01 46.9737 33.85C47.1203 33.6867 47.3203 33.5567 47.5737 33.46C47.437 33.39 47.3287 33.2967 47.2487 33.18C47.1687 33.0633 47.1287 32.91 47.1287 32.72C47.1287 32.6433 47.142 32.565 47.1687 32.485C47.1987 32.4017 47.2403 32.32 47.2937 32.24C47.3503 32.16 47.4203 32.085 47.5037 32.015C47.587 31.9417 47.6853 31.8767 47.7987 31.82C47.5387 31.68 47.3337 31.4933 47.1837 31.26C47.037 31.0267 46.9637 30.7533 46.9637 30.44C46.9637 30.1867 47.0137 29.9583 47.1137 29.755C47.217 29.5483 47.3587 29.3733 47.5387 29.23C47.722 29.0833 47.937 28.9717 48.1837 28.895C48.4337 28.8183 48.7053 28.78 48.9987 28.78C49.2187 28.78 49.4253 28.8033 49.6187 28.85C49.812 28.8933 49.9887 28.9583 50.1487 29.045H51.6237ZM53.6869 28.87V34H52.4469V28.87H53.6869ZM53.8569 27.375C53.8569 27.4817 53.8352 27.5817 53.7919 27.675C53.7485 27.7683 53.6902 27.85 53.6169 27.92C53.5469 27.99 53.4635 28.0467 53.3669 28.09C53.2702 28.13 53.1669 28.15 53.0569 28.15C52.9502 28.15 52.8485 28.13 52.7519 28.09C52.6585 28.0467 52.5769 27.99 52.5069 27.92C52.4369 27.85 52.3802 27.7683 52.3369 27.675C52.2969 27.5817 52.2769 27.4817 52.2769 27.375C52.2769 27.265 52.2969 27.1617 52.3369 27.065C52.3802 26.9683 52.4369 26.885 52.5069 26.815C52.5769 26.745 52.6585 26.69 52.7519 26.65C52.8485 26.6067 52.9502 26.585 53.0569 26.585C53.1669 26.585 53.2702 26.6067 53.3669 26.65C53.4635 26.69 53.5469 26.745 53.6169 26.815C53.6902 26.885 53.7485 26.9683 53.7919 27.065C53.8352 27.1617 53.8569 27.265 53.8569 27.375ZM56.1009 29.5C56.2043 29.3967 56.3126 29.3017 56.4259 29.215C56.5426 29.125 56.6643 29.05 56.7909 28.99C56.9209 28.9267 57.0593 28.8783 57.2059 28.845C57.3526 28.8083 57.5126 28.79 57.6859 28.79C57.9659 28.79 58.2143 28.8383 58.4309 28.935C58.6476 29.0283 58.8276 29.1617 58.9709 29.335C59.1176 29.505 59.2276 29.71 59.3009 29.95C59.3776 30.1867 59.4159 30.4483 59.4159 30.735V34H58.1809V30.735C58.1809 30.4217 58.1093 30.18 57.9659 30.01C57.8226 29.8367 57.6043 29.75 57.3109 29.75C57.0976 29.75 56.8976 29.7983 56.7109 29.895C56.5243 29.9917 56.3476 30.1233 56.1809 30.29V34H54.9459V28.87H55.7009C55.8609 28.87 55.9659 28.945 56.0159 29.095L56.1009 29.5Z" fill="#800080"/>
<path d="M8.27031 41.2776C8.23511 41.3421 8.18084 41.3744 8.10751 41.3744C8.06351 41.3744 8.01364 41.3583 7.95791 41.326C7.90217 41.2937 7.83324 41.2585 7.75111 41.2204C7.67191 41.1793 7.57657 41.1427 7.46511 41.1104C7.35364 41.0752 7.22164 41.0576 7.06911 41.0576C6.93711 41.0576 6.81831 41.0752 6.71271 41.1104C6.60711 41.1427 6.51617 41.1881 6.43991 41.2468C6.36657 41.3055 6.30937 41.3744 6.26831 41.4536C6.23017 41.5299 6.21111 41.6135 6.21111 41.7044C6.21111 41.8188 6.24337 41.9141 6.30791 41.9904C6.37537 42.0667 6.46337 42.1327 6.57191 42.1884C6.68044 42.2441 6.80364 42.294 6.94151 42.338C7.07937 42.3791 7.22017 42.4245 7.36391 42.4744C7.51057 42.5213 7.65284 42.5741 7.79071 42.6328C7.92857 42.6915 8.05177 42.7648 8.16031 42.8528C8.26884 42.9408 8.35537 43.0493 8.41991 43.1784C8.48737 43.3045 8.52111 43.4571 8.52111 43.636C8.52111 43.8413 8.48444 44.032 8.41111 44.208C8.33777 44.3811 8.22924 44.5321 8.08551 44.6612C7.94177 44.7873 7.76577 44.8871 7.55751 44.9604C7.34924 45.0337 7.10871 45.0704 6.83591 45.0704C6.52497 45.0704 6.24337 45.0205 5.99111 44.9208C5.73884 44.8181 5.52471 44.6876 5.34871 44.5292L5.53351 44.23C5.55697 44.1919 5.58484 44.1625 5.61711 44.142C5.64937 44.1215 5.69044 44.1112 5.74031 44.1112C5.79311 44.1112 5.84884 44.1317 5.90751 44.1728C5.96617 44.2139 6.03657 44.2593 6.11871 44.3092C6.20377 44.3591 6.30644 44.4045 6.42671 44.4456C6.54697 44.4867 6.69657 44.5072 6.87551 44.5072C7.02804 44.5072 7.16151 44.4881 7.27591 44.45C7.39031 44.4089 7.48564 44.3547 7.56191 44.2872C7.63817 44.2197 7.69391 44.142 7.72911 44.054C7.76724 43.966 7.78631 43.8721 7.78631 43.7724C7.78631 43.6492 7.75257 43.548 7.68511 43.4688C7.62057 43.3867 7.53404 43.3177 7.42551 43.262C7.31697 43.2033 7.19231 43.1535 7.05151 43.1124C6.91364 43.0684 6.77137 43.0229 6.62471 42.976C6.48097 42.9291 6.33871 42.8763 6.19791 42.8176C6.06004 42.756 5.93684 42.6797 5.82831 42.5888C5.71977 42.4979 5.63177 42.3864 5.56431 42.2544C5.49977 42.1195 5.46751 41.9567 5.46751 41.766C5.46751 41.5959 5.50271 41.4331 5.57311 41.2776C5.64351 41.1192 5.74617 40.9813 5.88111 40.864C6.01604 40.7437 6.18177 40.6484 6.37831 40.578C6.57484 40.5076 6.79924 40.4724 7.05151 40.4724C7.34484 40.4724 7.60737 40.5193 7.83911 40.6132C8.07377 40.7041 8.27617 40.8303 8.44631 40.9916L8.27031 41.2776ZM12.4645 42.2852C12.4645 42.1033 12.4381 41.9376 12.3853 41.788C12.3355 41.6355 12.2607 41.5049 12.1609 41.3964C12.0641 41.2849 11.9453 41.1999 11.8045 41.1412C11.6637 41.0796 11.5039 41.0488 11.3249 41.0488C10.9495 41.0488 10.6517 41.1588 10.4317 41.3788C10.2147 41.5959 10.0797 41.898 10.0269 42.2852H12.4645ZM13.0981 44.3752C13.0013 44.4925 12.8855 44.5952 12.7505 44.6832C12.6156 44.7683 12.4704 44.8387 12.3149 44.8944C12.1624 44.9501 12.004 44.9912 11.8397 45.0176C11.6755 45.0469 11.5127 45.0616 11.3513 45.0616C11.0433 45.0616 10.7588 45.0103 10.4977 44.9076C10.2396 44.802 10.0152 44.6495 9.82454 44.45C9.6368 44.2476 9.49014 43.9983 9.38454 43.702C9.27894 43.4057 9.22614 43.0655 9.22614 42.6812C9.22614 42.3703 9.27307 42.0799 9.36694 41.81C9.46374 41.5401 9.6016 41.3069 9.78054 41.1104C9.95947 40.9109 10.178 40.7555 10.4361 40.644C10.6943 40.5296 10.9847 40.4724 11.3073 40.4724C11.5743 40.4724 11.8207 40.5179 12.0465 40.6088C12.2753 40.6968 12.4719 40.8259 12.6361 40.996C12.8033 41.1632 12.9339 41.3715 13.0277 41.6208C13.1216 41.8672 13.1685 42.1488 13.1685 42.4656C13.1685 42.5888 13.1553 42.6709 13.1289 42.712C13.1025 42.7531 13.0527 42.7736 12.9793 42.7736H10.0005C10.0093 43.0552 10.0475 43.3001 10.1149 43.5084C10.1853 43.7167 10.2821 43.8912 10.4053 44.032C10.5285 44.1699 10.6752 44.274 10.8453 44.3444C11.0155 44.4119 11.2061 44.4456 11.4173 44.4456C11.6139 44.4456 11.7825 44.4236 11.9233 44.3796C12.0671 44.3327 12.1903 44.2828 12.2929 44.23C12.3956 44.1772 12.4807 44.1288 12.5481 44.0848C12.6185 44.0379 12.6787 44.0144 12.7285 44.0144C12.7931 44.0144 12.8429 44.0393 12.8781 44.0892L13.0981 44.3752ZM17.7312 45H16.9788C16.9143 45 16.8629 44.9839 16.8248 44.9516C16.7896 44.9164 16.7603 44.8783 16.7368 44.8372L15.6148 43.0904C15.6031 43.1315 15.5899 43.1725 15.5752 43.2136C15.5635 43.2517 15.5459 43.2869 15.5224 43.3192L14.484 44.8372C14.4547 44.8783 14.4224 44.9164 14.3872 44.9516C14.3549 44.9839 14.3095 45 14.2508 45H13.5512L15.1132 42.712L13.6128 40.5428H14.3652C14.4297 40.5428 14.4767 40.5531 14.506 40.5736C14.5353 40.5941 14.5617 40.6235 14.5852 40.6616L15.6808 42.3336C15.7043 42.2485 15.7409 42.1664 15.7908 42.0872L16.75 40.6792C16.7764 40.6381 16.8043 40.6059 16.8336 40.5824C16.8659 40.556 16.904 40.5428 16.948 40.5428H17.6696L16.1692 42.6724L17.7312 45ZM19.8216 45.0704C19.4696 45.0704 19.1983 44.9721 19.0076 44.7756C18.8199 44.5791 18.726 44.296 18.726 43.9264V41.1984H18.1892C18.1423 41.1984 18.1027 41.1852 18.0704 41.1588C18.0381 41.1295 18.022 41.0855 18.022 41.0268V40.7144L18.7524 40.622L18.9328 39.2448C18.9416 39.2008 18.9607 39.1656 18.99 39.1392C19.0223 39.1099 19.0633 39.0952 19.1132 39.0952H19.5092V40.6308H20.7984V41.1984H19.5092V43.8736C19.5092 44.0613 19.5547 44.2007 19.6456 44.2916C19.7365 44.3825 19.8539 44.428 19.9976 44.428C20.0797 44.428 20.1501 44.4177 20.2088 44.3972C20.2704 44.3737 20.3232 44.3488 20.3672 44.3224C20.4112 44.296 20.4479 44.2725 20.4772 44.252C20.5095 44.2285 20.5373 44.2168 20.5608 44.2168C20.6019 44.2168 20.6385 44.2417 20.6708 44.2916L20.8996 44.6656C20.7647 44.7917 20.6019 44.8915 20.4112 44.9648C20.2205 45.0352 20.024 45.0704 19.8216 45.0704ZM22.3947 41.1368C22.5854 40.9344 22.7966 40.7731 23.0283 40.6528C23.2601 40.5325 23.527 40.4724 23.8291 40.4724C24.0726 40.4724 24.2867 40.5135 24.4715 40.5956C24.6593 40.6748 24.8147 40.7892 24.9379 40.9388C25.0641 41.0855 25.1594 41.2629 25.2239 41.4712C25.2885 41.6795 25.3207 41.9097 25.3207 42.162V45H24.5331V42.162C24.5331 41.8247 24.4554 41.5636 24.2999 41.3788C24.1474 41.1911 23.9142 41.0972 23.6003 41.0972C23.3686 41.0972 23.1515 41.1529 22.9491 41.2644C22.7497 41.3759 22.5649 41.5269 22.3947 41.7176V45H21.6071V38.5188H22.3947V41.1368ZM29.4973 42.2852C29.4973 42.1033 29.4709 41.9376 29.4181 41.788C29.3683 41.6355 29.2935 41.5049 29.1937 41.3964C29.0969 41.2849 28.9781 41.1999 28.8373 41.1412C28.6965 41.0796 28.5367 41.0488 28.3577 41.0488C27.9823 41.0488 27.6845 41.1588 27.4645 41.3788C27.2475 41.5959 27.1125 41.898 27.0597 42.2852H29.4973ZM30.1309 44.3752C30.0341 44.4925 29.9183 44.5952 29.7833 44.6832C29.6484 44.7683 29.5032 44.8387 29.3477 44.8944C29.1952 44.9501 29.0368 44.9912 28.8725 45.0176C28.7083 45.0469 28.5455 45.0616 28.3841 45.0616C28.0761 45.0616 27.7916 45.0103 27.5305 44.9076C27.2724 44.802 27.048 44.6495 26.8573 44.45C26.6696 44.2476 26.5229 43.9983 26.4173 43.702C26.3117 43.4057 26.2589 43.0655 26.2589 42.6812C26.2589 42.3703 26.3059 42.0799 26.3997 41.81C26.4965 41.5401 26.6344 41.3069 26.8133 41.1104C26.9923 40.9109 27.2108 40.7555 27.4689 40.644C27.7271 40.5296 28.0175 40.4724 28.3401 40.4724C28.6071 40.4724 28.8535 40.5179 29.0793 40.6088C29.3081 40.6968 29.5047 40.8259 29.6689 40.996C29.8361 41.1632 29.9667 41.3715 30.0605 41.6208C30.1544 41.8672 30.2013 42.1488 30.2013 42.4656C30.2013 42.5888 30.1881 42.6709 30.1617 42.712C30.1353 42.7531 30.0855 42.7736 30.0121 42.7736H27.0333C27.0421 43.0552 27.0803 43.3001 27.1477 43.5084C27.2181 43.7167 27.3149 43.8912 27.4381 44.032C27.5613 44.1699 27.708 44.274 27.8781 44.3444C28.0483 44.4119 28.2389 44.4456 28.4501 44.4456C28.6467 44.4456 28.8153 44.4236 28.9561 44.3796C29.0999 44.3327 29.2231 44.2828 29.3257 44.23C29.4284 44.1772 29.5135 44.1288 29.5809 44.0848C29.6513 44.0379 29.7115 44.0144 29.7613 44.0144C29.8259 44.0144 29.8757 44.0393 29.9109 44.0892L30.1309 44.3752ZM31.907 41.436C32.0478 41.1309 32.2208 40.8933 32.4262 40.7232C32.6315 40.5501 32.8823 40.4636 33.1786 40.4636C33.2724 40.4636 33.3619 40.4739 33.447 40.4944C33.535 40.5149 33.6127 40.5472 33.6802 40.5912L33.623 41.1764C33.6054 41.2497 33.5614 41.2864 33.491 41.2864C33.4499 41.2864 33.3898 41.2776 33.3106 41.26C33.2314 41.2424 33.1419 41.2336 33.0422 41.2336C32.9014 41.2336 32.7752 41.2541 32.6638 41.2952C32.5552 41.3363 32.457 41.3979 32.369 41.48C32.2839 41.5592 32.2062 41.6589 32.1358 41.7792C32.0683 41.8965 32.0067 42.0315 31.951 42.184V45H31.1634V40.5428H31.6122C31.6972 40.5428 31.7559 40.5589 31.7882 40.5912C31.8204 40.6235 31.8424 40.6792 31.8542 40.7584L31.907 41.436ZM36.7157 42.9936C36.3549 43.0053 36.0469 43.0347 35.7917 43.0816C35.5394 43.1256 35.3326 43.1843 35.1713 43.2576C35.0129 43.3309 34.897 43.4175 34.8237 43.5172C34.7533 43.6169 34.7181 43.7284 34.7181 43.8516C34.7181 43.9689 34.7372 44.0701 34.7753 44.1552C34.8134 44.2403 34.8648 44.3107 34.9293 44.3664C34.9968 44.4192 35.0745 44.4588 35.1625 44.4852C35.2534 44.5087 35.3502 44.5204 35.4529 44.5204C35.5908 44.5204 35.7169 44.5072 35.8313 44.4808C35.9457 44.4515 36.0528 44.4104 36.1525 44.3576C36.2552 44.3048 36.352 44.2417 36.4429 44.1684C36.5368 44.0951 36.6277 44.0115 36.7157 43.9176V42.9936ZM34.1857 41.172C34.4321 40.9344 34.6976 40.7569 34.9821 40.6396C35.2666 40.5223 35.582 40.4636 35.9281 40.4636C36.1774 40.4636 36.3989 40.5047 36.5925 40.5868C36.7861 40.6689 36.9489 40.7833 37.0809 40.93C37.2129 41.0767 37.3126 41.2541 37.3801 41.4624C37.4476 41.6707 37.4813 41.8995 37.4813 42.1488V45H37.1337C37.0574 45 36.9988 44.9883 36.9577 44.9648C36.9166 44.9384 36.8844 44.8885 36.8609 44.8152L36.7729 44.3928C36.6556 44.5013 36.5412 44.5981 36.4297 44.6832C36.3182 44.7653 36.2009 44.8357 36.0777 44.8944C35.9545 44.9501 35.8225 44.9927 35.6817 45.022C35.5438 45.0543 35.3898 45.0704 35.2197 45.0704C35.0466 45.0704 34.8838 45.0469 34.7313 45C34.5788 44.9501 34.4453 44.8768 34.3309 44.78C34.2194 44.6832 34.13 44.5615 34.0625 44.4148C33.998 44.2652 33.9657 44.0892 33.9657 43.8868C33.9657 43.7108 34.0141 43.5421 34.1109 43.3808C34.2077 43.2165 34.3646 43.0713 34.5817 42.9452C34.7988 42.8191 35.0818 42.7164 35.4309 42.6372C35.78 42.5551 36.2082 42.5081 36.7157 42.4964V42.1488C36.7157 41.8027 36.6409 41.5416 36.4913 41.3656C36.3417 41.1867 36.1232 41.0972 35.8357 41.0972C35.6421 41.0972 35.4793 41.1221 35.3473 41.172C35.2182 41.2189 35.1053 41.2732 35.0085 41.3348C34.9146 41.3935 34.8325 41.4477 34.7621 41.4976C34.6946 41.5445 34.6272 41.568 34.5597 41.568C34.5069 41.568 34.4614 41.5548 34.4233 41.5284C34.3852 41.4991 34.3529 41.4639 34.3265 41.4228L34.1857 41.172ZM39.4619 43.9264C39.6056 44.12 39.7626 44.2564 39.9327 44.3356C40.1028 44.4148 40.2935 44.4544 40.5047 44.4544C40.9212 44.4544 41.241 44.3063 41.4639 44.01C41.6868 43.7137 41.7983 43.2913 41.7983 42.7428C41.7983 42.4524 41.7719 42.2031 41.7191 41.9948C41.6692 41.7865 41.5959 41.6164 41.4991 41.4844C41.4023 41.3495 41.2835 41.2512 41.1427 41.1896C41.0019 41.128 40.842 41.0972 40.6631 41.0972C40.4079 41.0972 40.1835 41.1559 39.9899 41.2732C39.7992 41.3905 39.6232 41.5563 39.4619 41.7704V43.9264ZM39.4223 41.2336C39.61 41.0019 39.8271 40.8156 40.0735 40.6748C40.3199 40.534 40.6015 40.4636 40.9183 40.4636C41.1764 40.4636 41.4096 40.5135 41.6179 40.6132C41.8262 40.71 42.0036 40.8552 42.1503 41.0488C42.297 41.2395 42.4099 41.4771 42.4891 41.7616C42.5683 42.0461 42.6079 42.3732 42.6079 42.7428C42.6079 43.0713 42.5639 43.3779 42.4759 43.6624C42.3879 43.944 42.2603 44.1889 42.0931 44.3972C41.9288 44.6025 41.7264 44.7653 41.4859 44.8856C41.2483 45.0029 40.9799 45.0616 40.6807 45.0616C40.4079 45.0616 40.1732 45.0161 39.9767 44.9252C39.7831 44.8313 39.6115 44.7023 39.4619 44.538V46.5092H38.6743V40.5428H39.1451C39.2566 40.5428 39.3255 40.5971 39.3519 40.7056L39.4223 41.2336ZM47.341 40.5428L44.855 46.3156C44.8286 46.3743 44.7949 46.4212 44.7538 46.4564C44.7157 46.4916 44.6555 46.5092 44.5734 46.5092H43.9926L44.8066 44.7404L42.9674 40.5428H43.645C43.7125 40.5428 43.7653 40.5604 43.8034 40.5956C43.8445 40.6279 43.8723 40.6645 43.887 40.7056L45.0794 43.5128C45.1263 43.636 45.1659 43.7651 45.1982 43.9C45.2393 43.7621 45.2833 43.6316 45.3302 43.5084L46.4874 40.7056C46.505 40.6587 46.5343 40.6205 46.5754 40.5912C46.6194 40.5589 46.6678 40.5428 46.7206 40.5428H47.341ZM47.5915 44.516C47.5915 44.4397 47.6047 44.3679 47.6311 44.3004C47.6605 44.2329 47.6986 44.1743 47.7455 44.1244C47.7954 44.0745 47.8541 44.0349 47.9215 44.0056C47.989 43.9763 48.0609 43.9616 48.1371 43.9616C48.2134 43.9616 48.2853 43.9763 48.3527 44.0056C48.4202 44.0349 48.4789 44.0745 48.5287 44.1244C48.5786 44.1743 48.6182 44.2329 48.6475 44.3004C48.6769 44.3679 48.6915 44.4397 48.6915 44.516C48.6915 44.5952 48.6769 44.6685 48.6475 44.736C48.6182 44.8005 48.5786 44.8577 48.5287 44.9076C48.4789 44.9575 48.4202 44.9956 48.3527 45.022C48.2853 45.0513 48.2134 45.066 48.1371 45.066C48.0609 45.066 47.989 45.0513 47.9215 45.022C47.8541 44.9956 47.7954 44.9575 47.7455 44.9076C47.6986 44.8577 47.6605 44.8005 47.6311 44.736C47.6047 44.6685 47.5915 44.5952 47.5915 44.516ZM50.6304 40.5428V45H49.8472V40.5428H50.6304ZM50.7976 39.1436C50.7976 39.2199 50.7815 39.2917 50.7492 39.3592C50.7199 39.4237 50.6788 39.4824 50.626 39.5352C50.5761 39.5851 50.516 39.6247 50.4456 39.654C50.3781 39.6833 50.3063 39.698 50.23 39.698C50.1537 39.698 50.0819 39.6833 50.0144 39.654C49.9499 39.6247 49.8927 39.5851 49.8428 39.5352C49.7929 39.4824 49.7533 39.4237 49.724 39.3592C49.6947 39.2917 49.68 39.2199 49.68 39.1436C49.68 39.0673 49.6947 38.9955 49.724 38.928C49.7533 38.8576 49.7929 38.7975 49.8428 38.7476C49.8927 38.6948 49.9499 38.6537 50.0144 38.6244C50.0819 38.5951 50.1537 38.5804 50.23 38.5804C50.3063 38.5804 50.3781 38.5951 50.4456 38.6244C50.516 38.6537 50.5761 38.6948 50.626 38.7476C50.6788 38.7975 50.7199 38.8576 50.7492 38.928C50.7815 38.9955 50.7976 39.0673 50.7976 39.1436ZM54.9005 42.2852C54.9005 42.1033 54.8741 41.9376 54.8213 41.788C54.7714 41.6355 54.6966 41.5049 54.5969 41.3964C54.5001 41.2849 54.3813 41.1999 54.2405 41.1412C54.0997 41.0796 53.9398 41.0488 53.7609 41.0488C53.3854 41.0488 53.0877 41.1588 52.8677 41.3788C52.6506 41.5959 52.5157 41.898 52.4629 42.2852H54.9005ZM55.5341 44.3752C55.4373 44.4925 55.3214 44.5952 55.1865 44.6832C55.0515 44.7683 54.9063 44.8387 54.7509 44.8944C54.5983 44.9501 54.4399 44.9912 54.2757 45.0176C54.1114 45.0469 53.9486 45.0616 53.7873 45.0616C53.4793 45.0616 53.1947 45.0103 52.9337 44.9076C52.6755 44.802 52.4511 44.6495 52.2605 44.45C52.0727 44.2476 51.9261 43.9983 51.8205 43.702C51.7149 43.4057 51.6621 43.0655 51.6621 42.6812C51.6621 42.3703 51.709 42.0799 51.8029 41.81C51.8997 41.5401 52.0375 41.3069 52.2165 41.1104C52.3954 40.9109 52.6139 40.7555 52.8721 40.644C53.1302 40.5296 53.4206 40.4724 53.7433 40.4724C54.0102 40.4724 54.2566 40.5179 54.4825 40.6088C54.7113 40.6968 54.9078 40.8259 55.0721 40.996C55.2393 41.1632 55.3698 41.3715 55.4637 41.6208C55.5575 41.8672 55.6045 42.1488 55.6045 42.4656C55.6045 42.5888 55.5913 42.6709 55.5649 42.712C55.5385 42.7531 55.4886 42.7736 55.4153 42.7736H52.4365C52.4453 43.0552 52.4834 43.3001 52.5509 43.5084C52.6213 43.7167 52.7181 43.8912 52.8413 44.032C52.9645 44.1699 53.1111 44.274 53.2813 44.3444C53.4514 44.4119 53.6421 44.4456 53.8533 44.4456C54.0498 44.4456 54.2185 44.4236 54.3593 44.3796C54.503 44.3327 54.6262 44.2828 54.7289 44.23C54.8315 44.1772 54.9166 44.1288 54.9841 44.0848C55.0545 44.0379 55.1146 44.0144 55.1645 44.0144C55.229 44.0144 55.2789 44.0393 55.3141 44.0892L55.5341 44.3752Z" fill="white"/>
</svg>
