<svg width="60" height="60" viewBox="0 0 60 60" fill="none" xmlns="http://www.w3.org/2000/svg">
<path d="M2.82531 33.1548C1.85351 33.1548 1.02791 32.871 0.477508 32.4238L1.01931 31.5036C1.54391 31.8734 2.11151 32.1142 2.87691 32.1142C3.53051 32.1142 3.99491 31.8648 3.99491 31.3316C3.99491 30.8328 3.65091 30.6178 2.64471 30.3856C1.49231 30.119 0.726908 29.6804 0.726908 28.6054C0.726908 27.453 1.69871 26.808 2.97151 26.808C3.81431 26.808 4.56251 27.0402 5.12151 27.4616L4.54531 28.3302C4.03791 27.9948 3.47891 27.8486 2.87691 27.8486C2.26631 27.8486 1.90511 28.0808 1.90511 28.4936C1.90511 28.8978 2.18891 29.087 3.26391 29.3364C4.48511 29.6288 5.17311 30.119 5.17311 31.2112C5.17311 32.4668 4.16691 33.1548 2.82531 33.1548ZM7.48772 33H6.27512V26.9542H7.48772V33ZM13.4094 26.9542V28.0206H11.483V33H10.2704V28.0206H8.34402V26.9542H13.4094ZM18.8511 33H17.5611L17.1397 31.7788H14.6887L14.2845 33H13.0375L15.2219 26.9542H16.6237L18.8511 33ZM15.8927 27.9518L15.2735 29.9728L14.9897 30.8414H16.8215L16.5377 29.9642L15.8927 27.9518ZM24.5132 33H23.1458L21.8386 30.678H20.8496V33H19.637V26.9542H22.1224C23.4984 26.9542 24.2896 27.6594 24.2896 28.8032C24.2896 29.6976 23.8338 30.291 23.0512 30.5404L24.5132 33ZM22.088 27.9346H20.8496V29.7148H22.0966C22.7502 29.7148 23.1372 29.3794 23.1372 28.8204C23.1372 28.27 22.7502 27.9346 22.088 27.9346ZM30.6761 33H29.3861L28.9647 31.7788H26.5137L26.1095 33H24.8625L27.0469 26.9542H28.4487L30.6761 33ZM27.7177 27.9518L27.0985 29.9728L26.8147 30.8414H28.6465L28.3627 29.9642L27.7177 27.9518Z" fill="#DFB1D1"/>
<path d="M34.8795 33.1462C33.0563 33.1462 31.8609 31.7702 31.8609 29.99C31.8609 28.184 33.1079 26.8252 34.8795 26.8252C35.8341 26.8252 36.5823 27.1348 37.1155 27.6938L36.7629 28.0464C36.3071 27.582 35.6879 27.2982 34.8881 27.2982C33.4089 27.2982 32.4027 28.4506 32.4027 29.99C32.4027 31.5122 33.4089 32.6646 34.8881 32.6646C35.6879 32.6646 36.3071 32.3894 36.7629 31.925L37.1069 32.269C36.5565 32.828 35.8083 33.1462 34.8795 33.1462ZM38.8706 26.9542V32.5184H41.9838V33H38.346V26.9542H38.8706ZM43.6577 33H43.1331V26.9542H43.6577V33ZM49.7581 32.2346V26.9542H50.2397V33H49.7237L45.9999 27.711V33H45.5183V26.9542H46.0429L49.7581 32.2346ZM52.6188 33H52.0942V26.9542H52.6188V33ZM57.0766 33.1462C55.2534 33.1462 54.058 31.7702 54.058 29.99C54.058 28.184 55.305 26.8252 57.0766 26.8252C58.0312 26.8252 58.7794 27.1348 59.3126 27.6938L58.96 28.0464C58.5042 27.582 57.885 27.2982 57.0852 27.2982C55.606 27.2982 54.5998 28.4506 54.5998 29.99C54.5998 31.5122 55.606 32.6646 57.0852 32.6646C57.885 32.6646 58.5042 32.3894 58.96 31.925L59.304 32.269C58.7536 32.828 58.0054 33.1462 57.0766 33.1462Z" fill="#9E9E9E"/>
</svg>
