<svg width="15" height="70" viewBox="0 0 15 70" fill="none" xmlns="http://www.w3.org/2000/svg">
<path d="M12.0488 70C10.5556 70 9.42276 69.5583 8.65041 68.6748C7.87805 67.7914 7.49187 66.6741 7.49187 65.3229V44.3541C7.49187 42.0676 6.79675 40.3786 5.4065 39.2873C4.06775 38.144 2.26558 37.5724 0 37.5724V32.4276C2.26558 32.4276 4.06775 31.882 5.4065 30.7906C6.79675 29.6474 7.49187 27.9324 7.49187 25.6459V4.67706C7.49187 3.32591 7.87805 2.20861 8.65041 1.32517C9.42276 0.441723 10.5556 0 12.0488 0H15V3.5078H11.3537V25.1782C11.3537 27.6726 10.6585 29.7773 9.26829 31.4922C7.92954 33.1552 6.15312 34.1166 3.93902 34.3764V35.6236C6.15312 35.8834 7.92954 36.8708 9.26829 38.5857C10.6585 40.2487 11.3537 42.3274 11.3537 44.8218V66.4922H15V70H12.0488Z" fill="#D5DDF6"/>
</svg>
