<svg width="1280" height="479" viewBox="0 0 1280 479" fill="none" xmlns="http://www.w3.org/2000/svg">
<g opacity="0.5" clip-path="url(#clip0_6008_2382)">
<mask id="mask0_6008_2382" style="mask-type:alpha" maskUnits="userSpaceOnUse" x="-194" y="-279" width="1552" height="1033">
<rect x="-193.992" y="-278.035" width="1551.02" height="1032.02" fill="url(#paint0_diamond_6008_2382)"/>
</mask>
<g mask="url(#mask0_6008_2382)">
<g opacity="0.9">
<circle cx="393.683" cy="309.123" r="1.04388" fill="#3A33BB" fill-opacity="0.5"/>
<circle cx="576.502" cy="465.457" r="1.11368" fill="#3A33BB" fill-opacity="0.4"/>
<circle cx="29.3132" cy="198.132" r="1.29168" fill="#3A33BB" fill-opacity="0.3"/>
<circle cx="544.643" cy="124.601" r="1.03716" fill="#3A33BB" fill-opacity="0.5"/>
<circle cx="142.952" cy="399.173" r="1.0443" fill="#3A33BB" fill-opacity="0.4"/>
<circle cx="434.497" cy="342.876" r="1.24846" fill="#3A33BB" fill-opacity="0.5"/>
<circle cx="553.553" cy="400.131" r="1.11925" fill="#3A33BB" fill-opacity="0.4"/>
<circle cx="119.985" cy="40.7224" r="1.02975" fill="#3A33BB" fill-opacity="0.6"/>
<circle cx="852.713" cy="181.943" r="0.993915" fill="#3A33BB" fill-opacity="0.4"/>
<circle cx="702.657" cy="245.536" r="1.02248" fill="#3A33BB" fill-opacity="0.6"/>
<circle cx="791.063" cy="427.526" r="1.14492" fill="#3A33BB" fill-opacity="0.5"/>
<circle cx="191.418" cy="327.57" r="0.951308" fill="#3A33BB" fill-opacity="0.5"/>
<circle cx="308.775" cy="292.195" r="0.890303" fill="#3A33BB" fill-opacity="0.3"/>
<circle cx="263.012" cy="466.261" r="1.03529" fill="#3A33BB" fill-opacity="0.5"/>
<circle cx="669.983" cy="13.3376" r="1.01255" fill="#3A33BB" fill-opacity="0.4"/>
<circle cx="586.233" cy="391.32" r="1.13545" fill="#3A33BB" fill-opacity="0.5"/>
<circle cx="611.988" cy="470.044" r="1.28669" fill="#3A33BB" fill-opacity="0.5"/>
<circle cx="274.772" cy="389.735" r="1.31646" fill="#3A33BB" fill-opacity="0.4"/>
<circle cx="312.477" cy="43.4031" r="1.06103" fill="#3A33BB" fill-opacity="0.6"/>
<circle cx="787.292" cy="459.066" r="0.903777" fill="#3A33BB" fill-opacity="0.5"/>
<circle cx="795.499" cy="469.038" r="1.16312" fill="#3A33BB" fill-opacity="0.4"/>
<circle cx="803.472" cy="55.0117" r="1.19289" fill="#3A33BB" fill-opacity="0.4"/>
<circle cx="561.683" cy="283.78" r="1.30406" fill="#3A33BB" fill-opacity="0.4"/>
<circle cx="388.47" cy="477.831" r="1.12832" fill="#3A33BB" fill-opacity="0.3"/>
<circle cx="104.097" cy="62.7988" r="1.03486" fill="#3A33BB" fill-opacity="0.3"/>
<circle cx="509.445" cy="385.158" r="1.15372" fill="#3A33BB" fill-opacity="0.5"/>
<circle cx="778.879" cy="278.498" r="1.31839" fill="#3A33BB" fill-opacity="0.6"/>
<circle cx="261.24" cy="34.5427" r="1.02886" fill="#3A33BB" fill-opacity="0.5"/>
<circle cx="705.578" cy="344.688" r="1.29486" fill="#3A33BB" fill-opacity="0.4"/>
<circle cx="119.213" cy="118.524" r="1.14121" fill="#3A33BB" fill-opacity="0.4"/>
<circle cx="88.4689" cy="475.352" r="1.29701" fill="#3A33BB" fill-opacity="0.6"/>
<circle cx="626.785" cy="132.586" r="1.07643" fill="#3A33BB" fill-opacity="0.3"/>
<circle cx="228.618" cy="8.09888" r="1.07105" fill="#3A33BB" fill-opacity="0.6"/>
<circle cx="756.667" cy="358.698" r="1.17893" fill="#3A33BB" fill-opacity="0.4"/>
<circle cx="34.2547" cy="359.338" r="0.93637" fill="#3A33BB" fill-opacity="0.4"/>
<circle cx="844.031" cy="430.167" r="1.13793" fill="#3A33BB" fill-opacity="0.5"/>
<circle cx="37.0343" cy="376.243" r="1.06751" fill="#3A33BB" fill-opacity="0.3"/>
<circle cx="370.957" cy="270.506" r="1.2718" fill="#3A33BB" fill-opacity="0.6"/>
<circle cx="157.905" cy="369.099" r="0.986561" fill="#3A33BB" fill-opacity="0.3"/>
<circle cx="549.303" cy="351.739" r="1.2836" fill="#3A33BB" fill-opacity="0.5"/>
<circle cx="200.332" cy="231.428" r="1.03891" fill="#3A33BB" fill-opacity="0.3"/>
<circle cx="449.498" cy="65.6532" r="1.24019" fill="#3A33BB" fill-opacity="0.4"/>
<circle cx="265.823" cy="382.554" r="1.19807" fill="#3A33BB" fill-opacity="0.3"/>
<circle cx="666.433" cy="354.983" r="0.995157" fill="#3A33BB" fill-opacity="0.3"/>
<circle cx="721.066" cy="173.013" r="0.891784" fill="#3A33BB" fill-opacity="0.3"/>
<circle cx="456.523" cy="176.854" r="1.20292" fill="#3A33BB" fill-opacity="0.4"/>
<circle cx="37.1665" cy="22.353" r="1.19965" fill="#3A33BB" fill-opacity="0.4"/>
<circle cx="380.678" cy="265.218" r="1.28124" fill="#3A33BB" fill-opacity="0.5"/>
<circle cx="512.257" cy="176.969" r="1.3176" fill="#3A33BB" fill-opacity="0.4"/>
<circle cx="85.4889" cy="295.803" r="0.96545" fill="#3A33BB" fill-opacity="0.3"/>
<circle cx="647.04" cy="187.271" r="1.02483" fill="#3A33BB" fill-opacity="0.5"/>
<circle cx="806.213" cy="433.846" r="1.28532" fill="#3A33BB" fill-opacity="0.5"/>
<circle cx="574.004" cy="346.424" r="1.26544" fill="#3A33BB" fill-opacity="0.4"/>
<circle cx="659.694" cy="124" r="1.31852" fill="#3A33BB" fill-opacity="0.6"/>
<circle cx="100.597" cy="287.072" r="1.06361" fill="#3A33BB" fill-opacity="0.5"/>
<circle cx="508.691" cy="251.094" r="1.28286" fill="#3A33BB" fill-opacity="0.5"/>
<circle cx="690.245" cy="2.70003" r="0.969809" fill="#3A33BB" fill-opacity="0.5"/>
<circle cx="639.248" cy="102.669" r="1.17573" fill="#3A33BB" fill-opacity="0.4"/>
<circle cx="324.989" cy="224.538" r="1.21367" fill="#3A33BB" fill-opacity="0.3"/>
<circle cx="851.877" cy="347.085" r="1.04309" fill="#3A33BB" fill-opacity="0.4"/>
<circle cx="262.265" cy="476.109" r="1.1717" fill="#3A33BB" fill-opacity="0.4"/>
<circle cx="346.859" cy="3.62558" r="1.01169" fill="#3A33BB" fill-opacity="0.4"/>
<circle cx="114.854" cy="213.928" r="1.19609" fill="#3A33BB" fill-opacity="0.4"/>
<circle cx="4.44099" cy="206.807" r="1.13826" fill="#3A33BB" fill-opacity="0.4"/>
<circle cx="327.693" cy="453.25" r="1.26682" fill="#3A33BB" fill-opacity="0.5"/>
<circle cx="375.932" cy="466.175" r="0.949413" fill="#3A33BB" fill-opacity="0.5"/>
<circle cx="652.558" cy="214.86" r="1.24579" fill="#3A33BB" fill-opacity="0.5"/>
<circle cx="285.941" cy="17.748" r="1.00888" fill="#3A33BB" fill-opacity="0.6"/>
<circle cx="290.388" cy="264.98" r="1.04239" fill="#3A33BB" fill-opacity="0.6"/>
<circle cx="700.233" cy="109.802" r="1.24619" fill="#3A33BB" fill-opacity="0.5"/>
<circle cx="709.943" cy="397.611" r="1.24601" fill="#3A33BB" fill-opacity="0.6"/>
<circle cx="852.02" cy="307.5" r="1.18606" fill="#3A33BB" fill-opacity="0.4"/>
<circle cx="257.059" cy="357.898" r="1.26262" fill="#3A33BB" fill-opacity="0.6"/>
<circle cx="505.92" cy="48.7992" r="1.15995" fill="#3A33BB" fill-opacity="0.4"/>
<circle cx="610.818" cy="181.95" r="1.00156" fill="#3A33BB" fill-opacity="0.4"/>
<circle cx="838.685" cy="477.797" r="1.09343" fill="#3A33BB" fill-opacity="0.4"/>
<circle cx="99.8463" cy="76.2047" r="1.19785" fill="#3A33BB" fill-opacity="0.5"/>
<circle cx="516.545" cy="440.815" r="1.19182" fill="#3A33BB" fill-opacity="0.6"/>
<circle cx="177.424" cy="40.7769" r="1.08429" fill="#3A33BB" fill-opacity="0.6"/>
<circle cx="90.1672" cy="269.579" r="1.22772" fill="#3A33BB" fill-opacity="0.4"/>
<circle cx="637.489" cy="336.632" r="1.18472" fill="#3A33BB" fill-opacity="0.6"/>
<circle cx="164.965" cy="395.583" r="0.98463" fill="#3A33BB" fill-opacity="0.5"/>
<circle cx="214.462" cy="288.814" r="1.03982" fill="#3A33BB" fill-opacity="0.6"/>
<circle cx="588.749" cy="413.257" r="1.0008" fill="#3A33BB" fill-opacity="0.3"/>
<circle cx="771.529" cy="227.888" r="1.03131" fill="#3A33BB" fill-opacity="0.5"/>
<circle cx="810.318" cy="347.019" r="0.976542" fill="#3A33BB" fill-opacity="0.4"/>
<circle cx="685.268" cy="297.008" r="1.28922" fill="#3A33BB" fill-opacity="0.5"/>
<circle cx="215.217" cy="279.859" r="0.914487" fill="#3A33BB" fill-opacity="0.3"/>
<circle cx="65.3311" cy="358.631" r="1.11239" fill="#3A33BB" fill-opacity="0.4"/>
<circle cx="684.342" cy="315.505" r="1.24612" fill="#3A33BB" fill-opacity="0.4"/>
<circle cx="1.87475" cy="344.616" r="1.22241" fill="#3A33BB" fill-opacity="0.6"/>
<circle cx="522.731" cy="265.135" r="1.19798" fill="#3A33BB" fill-opacity="0.6"/>
<circle cx="435.962" cy="402.608" r="0.946602" fill="#3A33BB" fill-opacity="0.6"/>
<circle cx="296.44" cy="337.245" r="0.914707" fill="#3A33BB" fill-opacity="0.4"/>
<circle cx="540.466" cy="295.231" r="1.27612" fill="#3A33BB" fill-opacity="0.4"/>
<circle cx="318.834" cy="96.5512" r="1.23817" fill="#3A33BB" fill-opacity="0.4"/>
<circle cx="493.38" cy="215.477" r="0.979482" fill="#3A33BB" fill-opacity="0.4"/>
<circle cx="7.98632" cy="2.88451" r="1.15428" fill="#3A33BB" fill-opacity="0.3"/>
<circle cx="100.757" cy="4.72028" r="1.22358" fill="#3A33BB" fill-opacity="0.5"/>
<circle cx="188.77" cy="384.074" r="0.951803" fill="#3A33BB" fill-opacity="0.5"/>
<circle cx="214.552" cy="370.126" r="1.13054" fill="#3A33BB" fill-opacity="0.4"/>
<circle cx="791.713" cy="37.9553" r="0.910588" fill="#3A33BB" fill-opacity="0.3"/>
<circle cx="-0.843545" cy="54.9694" r="1.1506" fill="#3A33BB" fill-opacity="0.3"/>
<circle cx="286.908" cy="131.723" r="1.09561" fill="#3A33BB" fill-opacity="0.5"/>
<circle cx="801.631" cy="305.665" r="1.11722" fill="#3A33BB" fill-opacity="0.4"/>
<circle cx="241.887" cy="390.402" r="1.10001" fill="#3A33BB" fill-opacity="0.4"/>
<circle cx="109.392" cy="42.4909" r="1.03219" fill="#3A33BB" fill-opacity="0.5"/>
</g>
<path d="M425.245 5.44876H356.067M425.245 5.44876C428.869 5.44876 431.807 2.55416 431.807 -1.01651V-69.0154C431.807 -72.5861 428.869 -75.4807 425.245 -75.4807H356.067C352.443 -75.4807 349.506 -72.5861 349.506 -69.0154M425.245 5.44876C428.869 5.44876 431.807 8.34352 431.807 11.9142V79.9131C431.807 83.4838 428.869 86.3784 425.245 86.3784M349.506 -1.0165V-69.0154M349.506 -1.0165C349.506 2.55417 352.443 5.44876 356.067 5.44876M349.506 -1.0165C349.506 2.55417 346.568 5.44876 342.944 5.44876M356.067 5.44876C352.443 5.44876 349.506 8.34353 349.506 11.9142M349.506 -69.0154C349.506 -72.5861 346.568 -75.4807 342.944 -75.4807H273.766C270.142 -75.4807 267.204 -72.5861 267.204 -69.0154M342.944 5.44876H273.766M342.944 5.44876C346.568 5.44876 349.506 8.34353 349.506 11.9142M267.204 -1.0165V-69.0154M267.204 -1.0165C267.204 2.55417 270.142 5.44876 273.766 5.44876M267.204 -1.0165C267.204 2.55417 264.267 5.44876 260.643 5.44876M273.766 5.44876C270.142 5.44876 267.204 8.34343 267.204 11.9141M267.204 -69.0154C267.204 -72.5861 264.267 -75.4807 260.643 -75.4807H191.465C187.841 -75.4807 184.903 -72.5861 184.903 -69.0154M260.643 5.44876H191.465M260.643 5.44876C264.267 5.44876 267.204 8.34343 267.204 11.9141M184.903 -1.0165V-69.0154M184.903 -1.0165C184.903 2.55417 187.841 5.44876 191.465 5.44876M184.903 -1.0165C184.903 2.55417 181.966 5.44876 178.342 5.44876M191.465 5.44876C187.841 5.44876 184.903 8.34343 184.903 11.9141M184.903 -69.0154C184.903 -72.5861 181.966 -75.4807 178.342 -75.4807H109.164C105.54 -75.4807 102.602 -72.5861 102.602 -69.0154M178.342 5.44876H109.164M178.342 5.44876C181.966 5.44876 184.903 8.34343 184.903 11.9141M102.602 -1.0165V-69.0154M102.602 -1.0165C102.602 2.55417 105.54 5.44876 109.164 5.44876M102.602 -1.0165C102.602 2.55417 99.6645 5.44876 96.0406 5.44876M109.164 5.44876C105.54 5.44876 102.602 8.34343 102.602 11.9141M102.602 -69.0154C102.602 -72.5861 99.6645 -75.4807 96.0406 -75.4807H26.8631C23.2391 -75.4807 20.3013 -72.5861 20.3013 -69.0154M96.0406 5.44876H26.8631M96.0406 5.44876C99.6645 5.44876 102.602 8.34343 102.602 11.9141M20.3013 -1.0165V-69.0154M20.3013 -1.0165C20.3013 2.55417 23.2391 5.44876 26.8631 5.44876M20.3013 -1.0165C20.3013 2.55417 17.3634 5.44876 13.7395 5.44876M26.8631 5.44876C23.2391 5.44876 20.3013 8.34343 20.3013 11.9141M20.3013 -69.0154C20.3013 -72.5861 17.3635 -75.4807 13.7395 -75.4807H-55.438C-59.062 -75.4807 -61.9998 -72.5861 -61.9998 -69.0154V-1.0165C-61.9998 2.55417 -59.062 5.44876 -55.438 5.44876M13.7395 5.44876H-55.438M13.7395 5.44876C17.3634 5.44876 20.3013 8.34343 20.3013 11.9141M-55.438 5.44876C-59.062 5.44876 -61.9998 8.34343 -61.9998 11.9141V79.913C-61.9998 83.4837 -59.062 86.3783 -55.438 86.3783M425.245 86.3784H356.067M425.245 86.3784C428.869 86.3784 431.807 89.2727 431.807 92.8434V160.842C431.807 164.413 428.869 167.308 425.245 167.308M349.506 79.9131V11.9142M349.506 79.9131C349.506 83.4838 352.443 86.3784 356.067 86.3784M349.506 79.9131C349.506 83.4838 346.568 86.3783 342.944 86.3783M356.067 86.3784C352.443 86.3784 349.506 89.2727 349.506 92.8434M342.944 86.3783H273.766M342.944 86.3783C346.568 86.3783 349.506 89.2727 349.506 92.8434M267.204 79.913V11.9141M267.204 79.913C267.204 83.4837 270.142 86.3783 273.766 86.3783M267.204 79.913C267.204 83.4837 264.267 86.3783 260.643 86.3783M273.766 86.3783C270.142 86.3783 267.204 89.2727 267.204 92.8434M260.643 86.3783H191.465M260.643 86.3783C264.267 86.3783 267.204 89.2727 267.204 92.8434M184.903 79.913V11.9141M184.903 79.913C184.903 83.4837 187.841 86.3783 191.465 86.3783M184.903 79.913C184.903 83.4837 181.966 86.3783 178.342 86.3783M191.465 86.3783C187.841 86.3783 184.903 89.2727 184.903 92.8434M178.342 86.3783H109.164M178.342 86.3783C181.966 86.3783 184.903 89.2727 184.903 92.8434M102.602 79.913V11.9141M102.602 79.913C102.602 83.4837 105.54 86.3783 109.164 86.3783M102.602 79.913C102.602 83.4837 99.6645 86.3783 96.0406 86.3783M109.164 86.3783C105.54 86.3783 102.602 89.2727 102.602 92.8434M96.0406 86.3783H26.8631M96.0406 86.3783C99.6645 86.3783 102.602 89.2727 102.602 92.8434M20.3013 79.913V11.9141M20.3013 79.913C20.3013 83.4837 23.2391 86.3783 26.8631 86.3783M20.3013 79.913C20.3013 83.4837 17.3634 86.3783 13.7395 86.3783M26.8631 86.3783C23.2391 86.3783 20.3013 89.2727 20.3013 92.8434M13.7395 86.3783H-55.438M13.7395 86.3783C17.3634 86.3783 20.3013 89.2727 20.3013 92.8434M-55.438 86.3783C-59.062 86.3783 -61.9998 89.2727 -61.9998 92.8434V160.842C-61.9998 164.413 -59.062 167.308 -55.438 167.308M425.245 167.308H356.067M425.245 167.308C428.869 167.308 431.807 170.202 431.807 173.773V241.772C431.807 245.343 428.869 248.237 425.245 248.237M349.506 160.842V92.8434M349.506 160.842C349.506 164.413 352.443 167.308 356.067 167.308M349.506 160.842C349.506 164.413 346.568 167.308 342.944 167.308M356.067 167.308C352.443 167.308 349.506 170.202 349.506 173.773M342.944 167.308H273.766M342.944 167.308C346.568 167.308 349.506 170.202 349.506 173.773M267.204 160.842V92.8434M267.204 160.842C267.204 164.413 270.142 167.308 273.766 167.308M267.204 160.842C267.204 164.413 264.267 167.308 260.643 167.308M273.766 167.308C270.142 167.308 267.204 170.202 267.204 173.773M260.643 167.308H191.465M260.643 167.308C264.267 167.308 267.204 170.202 267.204 173.773M184.903 160.842V92.8434M184.903 160.842C184.903 164.413 187.841 167.308 191.465 167.308M184.903 160.842C184.903 164.413 181.966 167.308 178.342 167.308M191.465 167.308C187.841 167.308 184.903 170.202 184.903 173.773M178.342 167.308H109.164M178.342 167.308C181.966 167.308 184.903 170.202 184.903 173.773M102.602 160.842V92.8434M102.602 160.842C102.602 164.413 105.54 167.308 109.164 167.308M102.602 160.842C102.602 164.413 99.6645 167.308 96.0406 167.308M109.164 167.308C105.54 167.308 102.602 170.202 102.602 173.773M96.0406 167.308H26.8631M96.0406 167.308C99.6645 167.308 102.602 170.202 102.602 173.773M20.3013 160.842V92.8434M20.3013 160.842C20.3013 164.413 23.2391 167.308 26.8631 167.308M20.3013 160.842C20.3013 164.413 17.3634 167.308 13.7395 167.308M26.8631 167.308C23.2391 167.308 20.3013 170.202 20.3013 173.773M13.7395 167.308H-55.438M13.7395 167.308C17.3634 167.308 20.3013 170.202 20.3013 173.773M-55.438 167.308C-59.062 167.308 -61.9998 170.202 -61.9998 173.773V241.772C-61.9998 245.343 -59.062 248.237 -55.438 248.237M425.245 248.237H356.067M425.245 248.237C428.869 248.237 431.807 251.132 431.807 254.703V322.702C431.807 326.272 428.869 329.167 425.245 329.167M349.506 241.772V173.773M349.506 241.772C349.506 245.343 352.443 248.237 356.067 248.237M349.506 241.772C349.506 245.343 346.568 248.237 342.944 248.237M356.067 248.237C352.443 248.237 349.506 251.132 349.506 254.703M342.944 248.237H273.766M342.944 248.237C346.568 248.237 349.506 251.132 349.506 254.703M267.204 241.772V173.773M267.204 241.772C267.204 245.343 270.142 248.237 273.766 248.237M267.204 241.772C267.204 245.343 264.267 248.237 260.643 248.237M273.766 248.237C270.142 248.237 267.204 251.132 267.204 254.703M260.643 248.237H191.465M260.643 248.237C264.267 248.237 267.204 251.132 267.204 254.703M184.903 241.772V173.773M184.903 241.772C184.903 245.343 187.841 248.237 191.465 248.237M184.903 241.772C184.903 245.343 181.966 248.237 178.342 248.237M191.465 248.237C187.841 248.237 184.903 251.132 184.903 254.703M178.342 248.237H109.164M178.342 248.237C181.966 248.237 184.903 251.132 184.903 254.703M102.602 241.772V173.773M102.602 241.772C102.602 245.343 105.54 248.237 109.164 248.237M102.602 241.772C102.602 245.343 99.6645 248.237 96.0406 248.237M109.164 248.237C105.54 248.237 102.602 251.132 102.602 254.703M96.0406 248.237H26.8631M96.0406 248.237C99.6645 248.237 102.602 251.132 102.602 254.703M20.3013 241.772V173.773M20.3013 241.772C20.3013 245.343 23.2391 248.237 26.8631 248.237M20.3013 241.772C20.3013 245.343 17.3634 248.237 13.7395 248.237M26.8631 248.237C23.2391 248.237 20.3013 251.132 20.3013 254.703M13.7395 248.237H-55.438M13.7395 248.237C17.3634 248.237 20.3013 251.132 20.3013 254.703M-55.438 248.237C-59.062 248.237 -61.9998 251.132 -61.9998 254.703V322.702C-61.9998 326.272 -59.062 329.167 -55.438 329.167M425.245 329.167H356.067M425.245 329.167C428.869 329.167 431.807 332.061 431.807 335.632V403.631C431.807 407.201 428.869 410.096 425.245 410.096M349.506 322.702V254.703M349.506 322.702C349.506 326.272 352.443 329.167 356.067 329.167M349.506 322.702C349.506 326.272 346.568 329.167 342.944 329.167M356.067 329.167C352.443 329.167 349.506 332.061 349.506 335.632M342.944 329.167H273.766M342.944 329.167C346.568 329.167 349.506 332.061 349.506 335.632M267.204 322.702V254.703M267.204 322.702C267.204 326.272 270.142 329.167 273.766 329.167M267.204 322.702C267.204 326.272 264.267 329.167 260.643 329.167M273.766 329.167C270.142 329.167 267.204 332.061 267.204 335.632M260.643 329.167H191.465M260.643 329.167C264.267 329.167 267.204 332.061 267.204 335.632M184.903 322.702V254.703M184.903 322.702C184.903 326.272 187.841 329.167 191.465 329.167M184.903 322.702C184.903 326.272 181.966 329.167 178.342 329.167M191.465 329.167C187.841 329.167 184.903 332.061 184.903 335.632M178.342 329.167H109.164M178.342 329.167C181.966 329.167 184.903 332.061 184.903 335.632M102.602 322.702V254.703M102.602 322.702C102.602 326.272 105.54 329.167 109.164 329.167M102.602 322.702C102.602 326.272 99.6645 329.167 96.0406 329.167M109.164 329.167C105.54 329.167 102.602 332.061 102.602 335.632M96.0406 329.167H26.8631M96.0406 329.167C99.6645 329.167 102.602 332.061 102.602 335.632M20.3013 322.702V254.703M20.3013 322.702C20.3013 326.272 23.2391 329.167 26.8631 329.167M20.3013 322.702C20.3013 326.272 17.3634 329.167 13.7395 329.167M26.8631 329.167C23.2391 329.167 20.3013 332.061 20.3013 335.632M13.7395 329.167H-55.438M13.7395 329.167C17.3634 329.167 20.3013 332.061 20.3013 335.632M-55.438 329.167C-59.062 329.167 -61.9998 332.061 -61.9998 335.632V403.631C-61.9998 407.201 -59.062 410.096 -55.438 410.096M425.245 410.096H356.067M425.245 410.096C428.869 410.096 431.807 412.991 431.807 416.561V484.56C431.807 488.131 428.869 491.026 425.245 491.026H356.067C352.443 491.026 349.506 488.131 349.506 484.56M349.506 403.631V335.632M349.506 403.631C349.506 407.201 352.443 410.096 356.067 410.096M349.506 403.631C349.506 407.201 346.568 410.096 342.944 410.096M356.067 410.096C352.443 410.096 349.506 412.991 349.506 416.561M342.944 410.096H273.766M342.944 410.096C346.568 410.096 349.506 412.991 349.506 416.561M267.204 403.631V335.632M267.204 403.631C267.204 407.201 270.142 410.096 273.766 410.096M267.204 403.631C267.204 407.201 264.267 410.096 260.643 410.096M273.766 410.096C270.142 410.096 267.204 412.991 267.204 416.562M260.643 410.096H191.465M260.643 410.096C264.267 410.096 267.204 412.991 267.204 416.562M184.903 403.631V335.632M184.903 403.631C184.903 407.201 187.841 410.096 191.465 410.096M184.903 403.631C184.903 407.201 181.966 410.096 178.342 410.096M191.465 410.096C187.841 410.096 184.903 412.991 184.903 416.562M178.342 410.096H109.164M178.342 410.096C181.966 410.096 184.903 412.991 184.903 416.562M102.602 403.631V335.632M102.602 403.631C102.602 407.201 105.54 410.096 109.164 410.096M102.602 403.631C102.602 407.201 99.6645 410.096 96.0406 410.096M109.164 410.096C105.54 410.096 102.602 412.991 102.602 416.562M96.0406 410.096H26.8631M96.0406 410.096C99.6645 410.096 102.602 412.991 102.602 416.562M20.3013 403.631V335.632M20.3013 403.631C20.3013 407.201 23.2391 410.096 26.8631 410.096M20.3013 403.631C20.3013 407.201 17.3634 410.096 13.7395 410.096M26.8631 410.096C23.2391 410.096 20.3013 412.991 20.3013 416.562M13.7395 410.096H-55.438M13.7395 410.096C17.3634 410.096 20.3013 412.991 20.3013 416.562M-55.438 410.096C-59.062 410.096 -61.9998 412.991 -61.9998 416.562V484.56C-61.9998 488.131 -59.062 491.026 -55.438 491.026H13.7395C17.3634 491.026 20.3013 488.131 20.3013 484.56M349.506 484.56V416.561M349.506 484.56C349.506 488.131 346.568 491.026 342.944 491.026H273.766C270.142 491.026 267.204 488.131 267.204 484.56M267.204 484.56V416.562M267.204 484.56C267.204 488.131 264.267 491.026 260.643 491.026H191.465C187.841 491.026 184.903 488.131 184.903 484.56M184.903 484.56V416.562M184.903 484.56C184.903 488.131 181.966 491.026 178.342 491.026H109.164C105.54 491.026 102.602 488.131 102.602 484.56M102.602 484.56V416.562M102.602 484.56C102.602 488.131 99.6645 491.026 96.0406 491.026H26.8631C23.2391 491.026 20.3013 488.131 20.3013 484.56M20.3013 484.56V416.562" stroke="#A8ABBD" stroke-width="0.431035"/>
<path d="M919.245 5.44876H850.067M919.245 5.44876C922.869 5.44876 925.807 2.55416 925.807 -1.01651V-69.0154C925.807 -72.5861 922.869 -75.4807 919.245 -75.4807H850.067C846.443 -75.4807 843.506 -72.5861 843.506 -69.0154M919.245 5.44876C922.869 5.44876 925.807 8.34352 925.807 11.9142V79.9131C925.807 83.4838 922.869 86.3784 919.245 86.3784M843.506 -1.0165V-69.0154M843.506 -1.0165C843.506 2.55417 846.443 5.44876 850.067 5.44876M843.506 -1.0165C843.506 2.55417 840.568 5.44876 836.944 5.44876M850.067 5.44876C846.443 5.44876 843.506 8.34353 843.506 11.9142M843.506 -69.0154C843.506 -72.5861 840.568 -75.4807 836.944 -75.4807H767.766C764.142 -75.4807 761.204 -72.5861 761.204 -69.0154M836.944 5.44876H767.766M836.944 5.44876C840.568 5.44876 843.506 8.34353 843.506 11.9142M761.204 -1.0165V-69.0154M761.204 -1.0165C761.204 2.55417 764.142 5.44876 767.766 5.44876M761.204 -1.0165C761.204 2.55417 758.267 5.44876 754.643 5.44876M767.766 5.44876C764.142 5.44876 761.204 8.34343 761.204 11.9141M761.204 -69.0154C761.204 -72.5861 758.267 -75.4807 754.643 -75.4807H685.465C681.841 -75.4807 678.903 -72.5861 678.903 -69.0154M754.643 5.44876H685.465M754.643 5.44876C758.267 5.44876 761.204 8.34343 761.204 11.9141M678.903 -1.0165V-69.0154M678.903 -1.0165C678.903 2.55417 681.841 5.44876 685.465 5.44876M678.903 -1.0165C678.903 2.55417 675.966 5.44876 672.342 5.44876M685.465 5.44876C681.841 5.44876 678.903 8.34343 678.903 11.9141M678.903 -69.0154C678.903 -72.5861 675.966 -75.4807 672.342 -75.4807H603.164C599.54 -75.4807 596.602 -72.5861 596.602 -69.0154M672.342 5.44876H603.164M672.342 5.44876C675.966 5.44876 678.903 8.34343 678.903 11.9141M596.602 -1.0165V-69.0154M596.602 -1.0165C596.602 2.55417 599.54 5.44876 603.164 5.44876M596.602 -1.0165C596.602 2.55417 593.665 5.44876 590.041 5.44876M603.164 5.44876C599.54 5.44876 596.602 8.34343 596.602 11.9141M596.602 -69.0154C596.602 -72.5861 593.665 -75.4807 590.041 -75.4807H520.863C517.239 -75.4807 514.301 -72.5861 514.301 -69.0154M590.041 5.44876H520.863M590.041 5.44876C593.665 5.44876 596.602 8.34343 596.602 11.9141M514.301 -1.0165V-69.0154M514.301 -1.0165C514.301 2.55417 517.239 5.44876 520.863 5.44876M514.301 -1.0165C514.301 2.55417 511.363 5.44876 507.739 5.44876M520.863 5.44876C517.239 5.44876 514.301 8.34343 514.301 11.9141M514.301 -69.0154C514.301 -72.5861 511.363 -75.4807 507.74 -75.4807H438.562C434.938 -75.4807 432 -72.5861 432 -69.0154V-1.0165C432 2.55417 434.938 5.44876 438.562 5.44876M507.739 5.44876H438.562M507.739 5.44876C511.363 5.44876 514.301 8.34343 514.301 11.9141M438.562 5.44876C434.938 5.44876 432 8.34343 432 11.9141V79.913C432 83.4837 434.938 86.3783 438.562 86.3783M919.245 86.3784H850.067M919.245 86.3784C922.869 86.3784 925.807 89.2727 925.807 92.8434V160.842C925.807 164.413 922.869 167.308 919.245 167.308M843.506 79.9131V11.9142M843.506 79.9131C843.506 83.4838 846.443 86.3784 850.067 86.3784M843.506 79.9131C843.506 83.4838 840.568 86.3783 836.944 86.3783M850.067 86.3784C846.443 86.3784 843.506 89.2727 843.506 92.8434M836.944 86.3783H767.766M836.944 86.3783C840.568 86.3783 843.506 89.2727 843.506 92.8434M761.204 79.913V11.9141M761.204 79.913C761.204 83.4837 764.142 86.3783 767.766 86.3783M761.204 79.913C761.204 83.4837 758.267 86.3783 754.643 86.3783M767.766 86.3783C764.142 86.3783 761.204 89.2727 761.204 92.8434M754.643 86.3783H685.465M754.643 86.3783C758.267 86.3783 761.204 89.2727 761.204 92.8434M678.903 79.913V11.9141M678.903 79.913C678.903 83.4837 681.841 86.3783 685.465 86.3783M678.903 79.913C678.903 83.4837 675.966 86.3783 672.342 86.3783M685.465 86.3783C681.841 86.3783 678.903 89.2727 678.903 92.8434M672.342 86.3783H603.164M672.342 86.3783C675.966 86.3783 678.903 89.2727 678.903 92.8434M596.602 79.913V11.9141M596.602 79.913C596.602 83.4837 599.54 86.3783 603.164 86.3783M596.602 79.913C596.602 83.4837 593.665 86.3783 590.041 86.3783M603.164 86.3783C599.54 86.3783 596.602 89.2727 596.602 92.8434M590.041 86.3783H520.863M590.041 86.3783C593.665 86.3783 596.602 89.2727 596.602 92.8434M514.301 79.913V11.9141M514.301 79.913C514.301 83.4837 517.239 86.3783 520.863 86.3783M514.301 79.913C514.301 83.4837 511.363 86.3783 507.739 86.3783M520.863 86.3783C517.239 86.3783 514.301 89.2727 514.301 92.8434M507.739 86.3783H438.562M507.739 86.3783C511.363 86.3783 514.301 89.2727 514.301 92.8434M438.562 86.3783C434.938 86.3783 432 89.2727 432 92.8434V160.842C432 164.413 434.938 167.308 438.562 167.308M919.245 167.308H850.067M919.245 167.308C922.869 167.308 925.807 170.202 925.807 173.773V241.772C925.807 245.343 922.869 248.237 919.245 248.237M843.506 160.842V92.8434M843.506 160.842C843.506 164.413 846.443 167.308 850.067 167.308M843.506 160.842C843.506 164.413 840.568 167.308 836.944 167.308M850.067 167.308C846.443 167.308 843.506 170.202 843.506 173.773M836.944 167.308H767.766M836.944 167.308C840.568 167.308 843.506 170.202 843.506 173.773M761.204 160.842V92.8434M761.204 160.842C761.204 164.413 764.142 167.308 767.766 167.308M761.204 160.842C761.204 164.413 758.267 167.308 754.643 167.308M767.766 167.308C764.142 167.308 761.204 170.202 761.204 173.773M754.643 167.308H685.465M754.643 167.308C758.267 167.308 761.204 170.202 761.204 173.773M678.903 160.842V92.8434M678.903 160.842C678.903 164.413 681.841 167.308 685.465 167.308M678.903 160.842C678.903 164.413 675.966 167.308 672.342 167.308M685.465 167.308C681.841 167.308 678.903 170.202 678.903 173.773M672.342 167.308H603.164M672.342 167.308C675.966 167.308 678.903 170.202 678.903 173.773M596.602 160.842V92.8434M596.602 160.842C596.602 164.413 599.54 167.308 603.164 167.308M596.602 160.842C596.602 164.413 593.665 167.308 590.041 167.308M603.164 167.308C599.54 167.308 596.602 170.202 596.602 173.773M590.041 167.308H520.863M590.041 167.308C593.665 167.308 596.602 170.202 596.602 173.773M514.301 160.842V92.8434M514.301 160.842C514.301 164.413 517.239 167.308 520.863 167.308M514.301 160.842C514.301 164.413 511.363 167.308 507.739 167.308M520.863 167.308C517.239 167.308 514.301 170.202 514.301 173.773M507.739 167.308H438.562M507.739 167.308C511.363 167.308 514.301 170.202 514.301 173.773M438.562 167.308C434.938 167.308 432 170.202 432 173.773V241.772C432 245.343 434.938 248.237 438.562 248.237M919.245 248.237H850.067M919.245 248.237C922.869 248.237 925.807 251.132 925.807 254.703V322.702C925.807 326.272 922.869 329.167 919.245 329.167M843.506 241.772V173.773M843.506 241.772C843.506 245.343 846.443 248.237 850.067 248.237M843.506 241.772C843.506 245.343 840.568 248.237 836.944 248.237M850.067 248.237C846.443 248.237 843.506 251.132 843.506 254.703M836.944 248.237H767.766M836.944 248.237C840.568 248.237 843.506 251.132 843.506 254.703M761.204 241.772V173.773M761.204 241.772C761.204 245.343 764.142 248.237 767.766 248.237M761.204 241.772C761.204 245.343 758.267 248.237 754.643 248.237M767.766 248.237C764.142 248.237 761.204 251.132 761.204 254.703M754.643 248.237H685.465M754.643 248.237C758.267 248.237 761.204 251.132 761.204 254.703M678.903 241.772V173.773M678.903 241.772C678.903 245.343 681.841 248.237 685.465 248.237M678.903 241.772C678.903 245.343 675.966 248.237 672.342 248.237M685.465 248.237C681.841 248.237 678.903 251.132 678.903 254.703M672.342 248.237H603.164M672.342 248.237C675.966 248.237 678.903 251.132 678.903 254.703M596.602 241.772V173.773M596.602 241.772C596.602 245.343 599.54 248.237 603.164 248.237M596.602 241.772C596.602 245.343 593.665 248.237 590.041 248.237M603.164 248.237C599.54 248.237 596.602 251.132 596.602 254.703M590.041 248.237H520.863M590.041 248.237C593.665 248.237 596.602 251.132 596.602 254.703M514.301 241.772V173.773M514.301 241.772C514.301 245.343 517.239 248.237 520.863 248.237M514.301 241.772C514.301 245.343 511.363 248.237 507.739 248.237M520.863 248.237C517.239 248.237 514.301 251.132 514.301 254.703M507.739 248.237H438.562M507.739 248.237C511.363 248.237 514.301 251.132 514.301 254.703M438.562 248.237C434.938 248.237 432 251.132 432 254.703V322.702C432 326.272 434.938 329.167 438.562 329.167M919.245 329.167H850.067M919.245 329.167C922.869 329.167 925.807 332.061 925.807 335.632V403.631C925.807 407.201 922.869 410.096 919.245 410.096M843.506 322.702V254.703M843.506 322.702C843.506 326.272 846.443 329.167 850.067 329.167M843.506 322.702C843.506 326.272 840.568 329.167 836.944 329.167M850.067 329.167C846.443 329.167 843.506 332.061 843.506 335.632M836.944 329.167H767.766M836.944 329.167C840.568 329.167 843.506 332.061 843.506 335.632M761.204 322.702V254.703M761.204 322.702C761.204 326.272 764.142 329.167 767.766 329.167M761.204 322.702C761.204 326.272 758.267 329.167 754.643 329.167M767.766 329.167C764.142 329.167 761.204 332.061 761.204 335.632M754.643 329.167H685.465M754.643 329.167C758.267 329.167 761.204 332.061 761.204 335.632M678.903 322.702V254.703M678.903 322.702C678.903 326.272 681.841 329.167 685.465 329.167M678.903 322.702C678.903 326.272 675.966 329.167 672.342 329.167M685.465 329.167C681.841 329.167 678.903 332.061 678.903 335.632M672.342 329.167H603.164M672.342 329.167C675.966 329.167 678.903 332.061 678.903 335.632M596.602 322.702V254.703M596.602 322.702C596.602 326.272 599.54 329.167 603.164 329.167M596.602 322.702C596.602 326.272 593.665 329.167 590.041 329.167M603.164 329.167C599.54 329.167 596.602 332.061 596.602 335.632M590.041 329.167H520.863M590.041 329.167C593.665 329.167 596.602 332.061 596.602 335.632M514.301 322.702V254.703M514.301 322.702C514.301 326.272 517.239 329.167 520.863 329.167M514.301 322.702C514.301 326.272 511.363 329.167 507.739 329.167M520.863 329.167C517.239 329.167 514.301 332.061 514.301 335.632M507.739 329.167H438.562M507.739 329.167C511.363 329.167 514.301 332.061 514.301 335.632M438.562 329.167C434.938 329.167 432 332.061 432 335.632V403.631C432 407.201 434.938 410.096 438.562 410.096M919.245 410.096H850.067M919.245 410.096C922.869 410.096 925.807 412.991 925.807 416.561V484.56C925.807 488.131 922.869 491.026 919.245 491.026H850.067C846.443 491.026 843.506 488.131 843.506 484.56M843.506 403.631V335.632M843.506 403.631C843.506 407.201 846.443 410.096 850.067 410.096M843.506 403.631C843.506 407.201 840.568 410.096 836.944 410.096M850.067 410.096C846.443 410.096 843.506 412.991 843.506 416.561M836.944 410.096H767.766M836.944 410.096C840.568 410.096 843.506 412.991 843.506 416.561M761.204 403.631V335.632M761.204 403.631C761.204 407.201 764.142 410.096 767.766 410.096M761.204 403.631C761.204 407.201 758.267 410.096 754.643 410.096M767.766 410.096C764.142 410.096 761.204 412.991 761.204 416.562M754.643 410.096H685.465M754.643 410.096C758.267 410.096 761.204 412.991 761.204 416.562M678.903 403.631V335.632M678.903 403.631C678.903 407.201 681.841 410.096 685.465 410.096M678.903 403.631C678.903 407.201 675.966 410.096 672.342 410.096M685.465 410.096C681.841 410.096 678.903 412.991 678.903 416.562M672.342 410.096H603.164M672.342 410.096C675.966 410.096 678.903 412.991 678.903 416.562M596.602 403.631V335.632M596.602 403.631C596.602 407.201 599.54 410.096 603.164 410.096M596.602 403.631C596.602 407.201 593.665 410.096 590.041 410.096M603.164 410.096C599.54 410.096 596.602 412.991 596.602 416.562M590.041 410.096H520.863M590.041 410.096C593.665 410.096 596.602 412.991 596.602 416.562M514.301 403.631V335.632M514.301 403.631C514.301 407.201 517.239 410.096 520.863 410.096M514.301 403.631C514.301 407.201 511.363 410.096 507.739 410.096M520.863 410.096C517.239 410.096 514.301 412.991 514.301 416.562M507.739 410.096H438.562M507.739 410.096C511.363 410.096 514.301 412.991 514.301 416.562M438.562 410.096C434.938 410.096 432 412.991 432 416.562V484.56C432 488.131 434.938 491.026 438.562 491.026H507.739C511.363 491.026 514.301 488.131 514.301 484.56M843.506 484.56V416.561M843.506 484.56C843.506 488.131 840.568 491.026 836.944 491.026H767.766C764.142 491.026 761.204 488.131 761.204 484.56M761.204 484.56V416.562M761.204 484.56C761.204 488.131 758.267 491.026 754.643 491.026H685.465C681.841 491.026 678.903 488.131 678.903 484.56M678.903 484.56V416.562M678.903 484.56C678.903 488.131 675.966 491.026 672.342 491.026H603.164C599.54 491.026 596.602 488.131 596.602 484.56M596.602 484.56V416.562M596.602 484.56C596.602 488.131 593.665 491.026 590.041 491.026H520.863C517.239 491.026 514.301 488.131 514.301 484.56M514.301 484.56V416.562" stroke="#A8ABBD" stroke-width="0.431035"/>
<path d="M1413.24 5.44876H1344.07M1413.24 5.44876C1416.87 5.44876 1419.81 2.55416 1419.81 -1.01651V-69.0154C1419.81 -72.5861 1416.87 -75.4807 1413.24 -75.4807H1344.07C1340.44 -75.4807 1337.51 -72.5861 1337.51 -69.0154M1413.24 5.44876C1416.87 5.44876 1419.81 8.34352 1419.81 11.9142V79.9131C1419.81 83.4838 1416.87 86.3784 1413.24 86.3784M1337.51 -1.0165V-69.0154M1337.51 -1.0165C1337.51 2.55417 1340.44 5.44876 1344.07 5.44876M1337.51 -1.0165C1337.51 2.55417 1334.57 5.44876 1330.94 5.44876M1344.07 5.44876C1340.44 5.44876 1337.51 8.34353 1337.51 11.9142M1337.51 -69.0154C1337.51 -72.5861 1334.57 -75.4807 1330.94 -75.4807H1261.77C1258.14 -75.4807 1255.2 -72.5861 1255.2 -69.0154M1330.94 5.44876H1261.77M1330.94 5.44876C1334.57 5.44876 1337.51 8.34353 1337.51 11.9142M1255.2 -1.0165V-69.0154M1255.2 -1.0165C1255.2 2.55417 1258.14 5.44876 1261.77 5.44876M1255.2 -1.0165C1255.2 2.55417 1252.27 5.44876 1248.64 5.44876M1261.77 5.44876C1258.14 5.44876 1255.2 8.34343 1255.2 11.9141M1255.2 -69.0154C1255.2 -72.5861 1252.27 -75.4807 1248.64 -75.4807H1179.47C1175.84 -75.4807 1172.9 -72.5861 1172.9 -69.0154M1248.64 5.44876H1179.47M1248.64 5.44876C1252.27 5.44876 1255.2 8.34343 1255.2 11.9141M1172.9 -1.0165V-69.0154M1172.9 -1.0165C1172.9 2.55417 1175.84 5.44876 1179.47 5.44876M1172.9 -1.0165C1172.9 2.55417 1169.97 5.44876 1166.34 5.44876M1179.47 5.44876C1175.84 5.44876 1172.9 8.34343 1172.9 11.9141M1172.9 -69.0154C1172.9 -72.5861 1169.97 -75.4807 1166.34 -75.4807H1097.16C1093.54 -75.4807 1090.6 -72.5861 1090.6 -69.0154M1166.34 5.44876H1097.16M1166.34 5.44876C1169.97 5.44876 1172.9 8.34343 1172.9 11.9141M1090.6 -1.0165V-69.0154M1090.6 -1.0165C1090.6 2.55417 1093.54 5.44876 1097.16 5.44876M1090.6 -1.0165C1090.6 2.55417 1087.66 5.44876 1084.04 5.44876M1097.16 5.44876C1093.54 5.44876 1090.6 8.34343 1090.6 11.9141M1090.6 -69.0154C1090.6 -72.5861 1087.66 -75.4807 1084.04 -75.4807H1014.86C1011.24 -75.4807 1008.3 -72.5861 1008.3 -69.0154M1084.04 5.44876H1014.86M1084.04 5.44876C1087.66 5.44876 1090.6 8.34343 1090.6 11.9141M1008.3 -1.0165V-69.0154M1008.3 -1.0165C1008.3 2.55417 1011.24 5.44876 1014.86 5.44876M1008.3 -1.0165C1008.3 2.55417 1005.36 5.44876 1001.74 5.44876M1014.86 5.44876C1011.24 5.44876 1008.3 8.34343 1008.3 11.9141M1008.3 -69.0154C1008.3 -72.5861 1005.36 -75.4807 1001.74 -75.4807H932.562C928.938 -75.4807 926 -72.5861 926 -69.0154V-1.0165C926 2.55417 928.938 5.44876 932.562 5.44876M1001.74 5.44876H932.562M1001.74 5.44876C1005.36 5.44876 1008.3 8.34343 1008.3 11.9141M932.562 5.44876C928.938 5.44876 926 8.34343 926 11.9141V79.913C926 83.4837 928.938 86.3783 932.562 86.3783M1413.24 86.3784H1344.07M1413.24 86.3784C1416.87 86.3784 1419.81 89.2727 1419.81 92.8434V160.842C1419.81 164.413 1416.87 167.308 1413.24 167.308M1337.51 79.9131V11.9142M1337.51 79.9131C1337.51 83.4838 1340.44 86.3784 1344.07 86.3784M1337.51 79.9131C1337.51 83.4838 1334.57 86.3783 1330.94 86.3783M1344.07 86.3784C1340.44 86.3784 1337.51 89.2727 1337.51 92.8434M1330.94 86.3783H1261.77M1330.94 86.3783C1334.57 86.3783 1337.51 89.2727 1337.51 92.8434M1255.2 79.913V11.9141M1255.2 79.913C1255.2 83.4837 1258.14 86.3783 1261.77 86.3783M1255.2 79.913C1255.2 83.4837 1252.27 86.3783 1248.64 86.3783M1261.77 86.3783C1258.14 86.3783 1255.2 89.2727 1255.2 92.8434M1248.64 86.3783H1179.47M1248.64 86.3783C1252.27 86.3783 1255.2 89.2727 1255.2 92.8434M1172.9 79.913V11.9141M1172.9 79.913C1172.9 83.4837 1175.84 86.3783 1179.47 86.3783M1172.9 79.913C1172.9 83.4837 1169.97 86.3783 1166.34 86.3783M1179.47 86.3783C1175.84 86.3783 1172.9 89.2727 1172.9 92.8434M1166.34 86.3783H1097.16M1166.34 86.3783C1169.97 86.3783 1172.9 89.2727 1172.9 92.8434M1090.6 79.913V11.9141M1090.6 79.913C1090.6 83.4837 1093.54 86.3783 1097.16 86.3783M1090.6 79.913C1090.6 83.4837 1087.66 86.3783 1084.04 86.3783M1097.16 86.3783C1093.54 86.3783 1090.6 89.2727 1090.6 92.8434M1084.04 86.3783H1014.86M1084.04 86.3783C1087.66 86.3783 1090.6 89.2727 1090.6 92.8434M1008.3 79.913V11.9141M1008.3 79.913C1008.3 83.4837 1011.24 86.3783 1014.86 86.3783M1008.3 79.913C1008.3 83.4837 1005.36 86.3783 1001.74 86.3783M1014.86 86.3783C1011.24 86.3783 1008.3 89.2727 1008.3 92.8434M1001.74 86.3783H932.562M1001.74 86.3783C1005.36 86.3783 1008.3 89.2727 1008.3 92.8434M932.562 86.3783C928.938 86.3783 926 89.2727 926 92.8434V160.842C926 164.413 928.938 167.308 932.562 167.308M1413.24 167.308H1344.07M1413.24 167.308C1416.87 167.308 1419.81 170.202 1419.81 173.773V241.772C1419.81 245.343 1416.87 248.237 1413.24 248.237M1337.51 160.842V92.8434M1337.51 160.842C1337.51 164.413 1340.44 167.308 1344.07 167.308M1337.51 160.842C1337.51 164.413 1334.57 167.308 1330.94 167.308M1344.07 167.308C1340.44 167.308 1337.51 170.202 1337.51 173.773M1330.94 167.308H1261.77M1330.94 167.308C1334.57 167.308 1337.51 170.202 1337.51 173.773M1255.2 160.842V92.8434M1255.2 160.842C1255.2 164.413 1258.14 167.308 1261.77 167.308M1255.2 160.842C1255.2 164.413 1252.27 167.308 1248.64 167.308M1261.77 167.308C1258.14 167.308 1255.2 170.202 1255.2 173.773M1248.64 167.308H1179.47M1248.64 167.308C1252.27 167.308 1255.2 170.202 1255.2 173.773M1172.9 160.842V92.8434M1172.9 160.842C1172.9 164.413 1175.84 167.308 1179.47 167.308M1172.9 160.842C1172.9 164.413 1169.97 167.308 1166.34 167.308M1179.47 167.308C1175.84 167.308 1172.9 170.202 1172.9 173.773M1166.34 167.308H1097.16M1166.34 167.308C1169.97 167.308 1172.9 170.202 1172.9 173.773M1090.6 160.842V92.8434M1090.6 160.842C1090.6 164.413 1093.54 167.308 1097.16 167.308M1090.6 160.842C1090.6 164.413 1087.66 167.308 1084.04 167.308M1097.16 167.308C1093.54 167.308 1090.6 170.202 1090.6 173.773M1084.04 167.308H1014.86M1084.04 167.308C1087.66 167.308 1090.6 170.202 1090.6 173.773M1008.3 160.842V92.8434M1008.3 160.842C1008.3 164.413 1011.24 167.308 1014.86 167.308M1008.3 160.842C1008.3 164.413 1005.36 167.308 1001.74 167.308M1014.86 167.308C1011.24 167.308 1008.3 170.202 1008.3 173.773M1001.74 167.308H932.562M1001.74 167.308C1005.36 167.308 1008.3 170.202 1008.3 173.773M932.562 167.308C928.938 167.308 926 170.202 926 173.773V241.772C926 245.343 928.938 248.237 932.562 248.237M1413.24 248.237H1344.07M1413.24 248.237C1416.87 248.237 1419.81 251.132 1419.81 254.703V322.702C1419.81 326.272 1416.87 329.167 1413.24 329.167M1337.51 241.772V173.773M1337.51 241.772C1337.51 245.343 1340.44 248.237 1344.07 248.237M1337.51 241.772C1337.51 245.343 1334.57 248.237 1330.94 248.237M1344.07 248.237C1340.44 248.237 1337.51 251.132 1337.51 254.703M1330.94 248.237H1261.77M1330.94 248.237C1334.57 248.237 1337.51 251.132 1337.51 254.703M1255.2 241.772V173.773M1255.2 241.772C1255.2 245.343 1258.14 248.237 1261.77 248.237M1255.2 241.772C1255.2 245.343 1252.27 248.237 1248.64 248.237M1261.77 248.237C1258.14 248.237 1255.2 251.132 1255.2 254.703M1248.64 248.237H1179.47M1248.64 248.237C1252.27 248.237 1255.2 251.132 1255.2 254.703M1172.9 241.772V173.773M1172.9 241.772C1172.9 245.343 1175.84 248.237 1179.47 248.237M1172.9 241.772C1172.9 245.343 1169.97 248.237 1166.34 248.237M1179.47 248.237C1175.84 248.237 1172.9 251.132 1172.9 254.703M1166.34 248.237H1097.16M1166.34 248.237C1169.97 248.237 1172.9 251.132 1172.9 254.703M1090.6 241.772V173.773M1090.6 241.772C1090.6 245.343 1093.54 248.237 1097.16 248.237M1090.6 241.772C1090.6 245.343 1087.66 248.237 1084.04 248.237M1097.16 248.237C1093.54 248.237 1090.6 251.132 1090.6 254.703M1084.04 248.237H1014.86M1084.04 248.237C1087.66 248.237 1090.6 251.132 1090.6 254.703M1008.3 241.772V173.773M1008.3 241.772C1008.3 245.343 1011.24 248.237 1014.86 248.237M1008.3 241.772C1008.3 245.343 1005.36 248.237 1001.74 248.237M1014.86 248.237C1011.24 248.237 1008.3 251.132 1008.3 254.703M1001.74 248.237H932.562M1001.74 248.237C1005.36 248.237 1008.3 251.132 1008.3 254.703M932.562 248.237C928.938 248.237 926 251.132 926 254.703V322.702C926 326.272 928.938 329.167 932.562 329.167M1413.24 329.167H1344.07M1413.24 329.167C1416.87 329.167 1419.81 332.061 1419.81 335.632V403.631C1419.81 407.201 1416.87 410.096 1413.24 410.096M1337.51 322.702V254.703M1337.51 322.702C1337.51 326.272 1340.44 329.167 1344.07 329.167M1337.51 322.702C1337.51 326.272 1334.57 329.167 1330.94 329.167M1344.07 329.167C1340.44 329.167 1337.51 332.061 1337.51 335.632M1330.94 329.167H1261.77M1330.94 329.167C1334.57 329.167 1337.51 332.061 1337.51 335.632M1255.2 322.702V254.703M1255.2 322.702C1255.2 326.272 1258.14 329.167 1261.77 329.167M1255.2 322.702C1255.2 326.272 1252.27 329.167 1248.64 329.167M1261.77 329.167C1258.14 329.167 1255.2 332.061 1255.2 335.632M1248.64 329.167H1179.47M1248.64 329.167C1252.27 329.167 1255.2 332.061 1255.2 335.632M1172.9 322.702V254.703M1172.9 322.702C1172.9 326.272 1175.84 329.167 1179.47 329.167M1172.9 322.702C1172.9 326.272 1169.97 329.167 1166.34 329.167M1179.47 329.167C1175.84 329.167 1172.9 332.061 1172.9 335.632M1166.34 329.167H1097.16M1166.34 329.167C1169.97 329.167 1172.9 332.061 1172.9 335.632M1090.6 322.702V254.703M1090.6 322.702C1090.6 326.272 1093.54 329.167 1097.16 329.167M1090.6 322.702C1090.6 326.272 1087.66 329.167 1084.04 329.167M1097.16 329.167C1093.54 329.167 1090.6 332.061 1090.6 335.632M1084.04 329.167H1014.86M1084.04 329.167C1087.66 329.167 1090.6 332.061 1090.6 335.632M1008.3 322.702V254.703M1008.3 322.702C1008.3 326.272 1011.24 329.167 1014.86 329.167M1008.3 322.702C1008.3 326.272 1005.36 329.167 1001.74 329.167M1014.86 329.167C1011.24 329.167 1008.3 332.061 1008.3 335.632M1001.74 329.167H932.562M1001.74 329.167C1005.36 329.167 1008.3 332.061 1008.3 335.632M932.562 329.167C928.938 329.167 926 332.061 926 335.632V403.631C926 407.201 928.938 410.096 932.562 410.096M1413.24 410.096H1344.07M1413.24 410.096C1416.87 410.096 1419.81 412.991 1419.81 416.561V484.56C1419.81 488.131 1416.87 491.026 1413.24 491.026H1344.07C1340.44 491.026 1337.51 488.131 1337.51 484.56M1337.51 403.631V335.632M1337.51 403.631C1337.51 407.201 1340.44 410.096 1344.07 410.096M1337.51 403.631C1337.51 407.201 1334.57 410.096 1330.94 410.096M1344.07 410.096C1340.44 410.096 1337.51 412.991 1337.51 416.561M1330.94 410.096H1261.77M1330.94 410.096C1334.57 410.096 1337.51 412.991 1337.51 416.561M1255.2 403.631V335.632M1255.2 403.631C1255.2 407.201 1258.14 410.096 1261.77 410.096M1255.2 403.631C1255.2 407.201 1252.27 410.096 1248.64 410.096M1261.77 410.096C1258.14 410.096 1255.2 412.991 1255.2 416.562M1248.64 410.096H1179.47M1248.64 410.096C1252.27 410.096 1255.2 412.991 1255.2 416.562M1172.9 403.631V335.632M1172.9 403.631C1172.9 407.201 1175.84 410.096 1179.47 410.096M1172.9 403.631C1172.9 407.201 1169.97 410.096 1166.34 410.096M1179.47 410.096C1175.84 410.096 1172.9 412.991 1172.9 416.562M1166.34 410.096H1097.16M1166.34 410.096C1169.97 410.096 1172.9 412.991 1172.9 416.562M1090.6 403.631V335.632M1090.6 403.631C1090.6 407.201 1093.54 410.096 1097.16 410.096M1090.6 403.631C1090.6 407.201 1087.66 410.096 1084.04 410.096M1097.16 410.096C1093.54 410.096 1090.6 412.991 1090.6 416.562M1084.04 410.096H1014.86M1084.04 410.096C1087.66 410.096 1090.6 412.991 1090.6 416.562M1008.3 403.631V335.632M1008.3 403.631C1008.3 407.201 1011.24 410.096 1014.86 410.096M1008.3 403.631C1008.3 407.201 1005.36 410.096 1001.74 410.096M1014.86 410.096C1011.24 410.096 1008.3 412.991 1008.3 416.562M1001.74 410.096H932.562M1001.74 410.096C1005.36 410.096 1008.3 412.991 1008.3 416.562M932.562 410.096C928.938 410.096 926 412.991 926 416.562V484.56C926 488.131 928.938 491.026 932.562 491.026H1001.74C1005.36 491.026 1008.3 488.131 1008.3 484.56M1337.51 484.56V416.561M1337.51 484.56C1337.51 488.131 1334.57 491.026 1330.94 491.026H1261.77C1258.14 491.026 1255.2 488.131 1255.2 484.56M1255.2 484.56V416.562M1255.2 484.56C1255.2 488.131 1252.27 491.026 1248.64 491.026H1179.47C1175.84 491.026 1172.9 488.131 1172.9 484.56M1172.9 484.56V416.562M1172.9 484.56C1172.9 488.131 1169.97 491.026 1166.34 491.026H1097.16C1093.54 491.026 1090.6 488.131 1090.6 484.56M1090.6 484.56V416.562M1090.6 484.56C1090.6 488.131 1087.66 491.026 1084.04 491.026H1014.86C1011.24 491.026 1008.3 488.131 1008.3 484.56M1008.3 484.56V416.562" stroke="#A8ABBD" stroke-width="0.431035"/>
<path d="M1090.3 -69V-3.69827C1090.3 1.23371 1094.37 5.23188 1099.38 5.23188H1163.52C1168.54 5.23188 1172.6 9.23004 1172.6 14.162V77.2312C1172.6 82.1632 1176.67 86.1614 1181.68 86.1614H1245.82C1250.84 86.1614 1254.9 90.1595 1254.9 95.0915V158.161C1254.9 163.093 1258.97 167.091 1263.98 167.091H1328.12C1333.14 167.091 1337.2 171.089 1337.2 176.021V239.09C1337.2 244.022 1341.27 248.02 1346.29 248.02H1412.69M1008 -69V-3.69827C1008 1.23371 1012.07 5.23188 1017.08 5.23188H1081.22C1086.24 5.23188 1090.3 9.23004 1090.3 14.162V77.2312C1090.3 82.1632 1094.37 86.1614 1099.38 86.1614H1163.52C1168.54 86.1614 1172.6 90.1595 1172.6 95.0915V158.161C1172.6 163.093 1168.54 167.091 1163.52 167.091H1099.38C1094.37 167.091 1090.3 163.093 1090.3 158.161V93.9753L1090.22 93.4478C1089.61 89.403 1086.12 86.3829 1081.96 86.3042L1074.41 86.1614H1017.08C1012.07 86.1614 1008 90.1595 1008 95.0915V158.161C1008 163.093 1012.07 167.091 1017.08 167.091H1081.79L1083.94 167.232C1087.52 167.467 1090.3 170.389 1090.3 173.915V180.765M1090.3 173.788V239.09C1090.3 244.022 1094.37 248.02 1099.38 248.02H1163.52C1168.54 248.02 1172.6 252.019 1172.6 256.951V320.02C1172.6 324.952 1176.67 328.95 1181.68 328.95H1245.82C1250.84 328.95 1254.9 332.948 1254.9 337.88V400.949C1254.9 405.881 1258.97 409.879 1263.98 409.879H1328.12C1333.14 409.879 1337.2 413.878 1337.2 418.809V481.879C1337.2 486.811 1341.27 490.809 1346.29 490.809H1412.69" stroke="#597CF3"/>
<path d="M185.394 -69V-3.69827C185.394 1.23371 181.328 5.23188 176.313 5.23188H112.175C107.159 5.23188 103.093 9.23004 103.093 14.162V77.2312C103.093 82.1632 99.0272 86.1614 94.0116 86.1614H29.8736C24.858 86.1614 20.7921 90.1595 20.7921 95.0915V158.161C20.7921 163.093 16.7261 167.091 11.7106 167.091H-52.4275C-57.4431 167.091 -61.509 171.089 -61.509 176.021V239.09C-61.509 244.022 -65.575 248.02 -70.5905 248.02H-136.999M267.695 -69V-3.69827C267.695 1.23371 263.629 5.23188 258.614 5.23188H194.476C189.46 5.23188 185.394 9.23004 185.394 14.162V77.2312C185.394 82.1632 181.328 86.1614 176.313 86.1614H112.175C107.159 86.1614 103.093 90.1595 103.093 95.0915V158.161C103.093 163.093 107.159 167.091 112.175 167.091H176.313C181.328 167.091 185.394 163.093 185.394 158.161V93.9753L185.474 93.4478C186.083 89.403 189.575 86.3829 193.732 86.3042L201.287 86.1614H258.614C263.629 86.1614 267.695 90.1595 267.695 95.0915V158.161C267.695 163.093 263.629 167.091 258.614 167.091H193.908L191.752 167.232C188.174 167.467 185.394 170.389 185.394 173.915V180.765M185.394 173.788V239.09C185.394 244.022 181.328 248.02 176.313 248.02H112.175C107.159 248.02 103.093 252.019 103.093 256.951V320.02C103.093 324.952 99.0272 328.95 94.0116 328.95H29.8736C24.858 328.95 20.7921 332.948 20.7921 337.88V400.949C20.7921 405.881 16.7261 409.879 11.7106 409.879H-52.4275C-57.4431 409.879 -61.509 413.878 -61.509 418.809V481.879C-61.509 486.811 -65.575 490.809 -70.5905 490.809H-136.999" stroke="#597CF3"/>
</g>
</g>
<defs>
<radialGradient id="paint0_diamond_6008_2382" cx="0" cy="0" r="1" gradientUnits="userSpaceOnUse" gradientTransform="translate(581.515 168.433) rotate(90) scale(561.963 1307.02)">
<stop stop-color="white"/>
<stop offset="1" stop-color="#D9D9D9" stop-opacity="0"/>
</radialGradient>
<clipPath id="clip0_6008_2382">
<rect width="1440" height="587.596" fill="white" transform="translate(-80 -109)"/>
</clipPath>
</defs>
</svg>
