<svg width="64" height="64" viewBox="0 0 64 64" fill="none" xmlns="http://www.w3.org/2000/svg">
<rect width="64" height="64" rx="4" fill="#F0F5FF"/>
<path opacity="0.2" d="M20.1385 25.3271C20.0478 25.4809 20 25.6562 20 25.8348V38.1651C20 38.3426 20.0472 38.5168 20.1368 38.67C20.2264 38.8231 20.3551 38.9497 20.5097 39.0367L31.5097 45.2242C31.6594 45.3084 31.8283 45.3526 32 45.3526L32.0013 45.3526L32.1186 32L20.1385 25.3271L20.1385 25.3271Z" fill="#2F55D4"/>
<path d="M44 38.1651V25.8348C44 25.6574 43.9528 25.4832 43.8632 25.33C43.7736 25.1768 43.6449 25.0503 43.4903 24.9633L32.4903 18.7758C32.3406 18.6916 32.1717 18.6473 32 18.6473C31.8283 18.6473 31.6594 18.6916 31.5097 18.7758L20.5097 24.9633C20.3551 25.0503 20.2264 25.1768 20.1368 25.33C20.0472 25.4832 20 25.6574 20 25.8348V38.1651C20 38.3426 20.0472 38.5168 20.1368 38.67C20.2264 38.8232 20.3551 38.9497 20.5097 39.0367L31.5097 45.2242C31.6594 45.3084 31.8283 45.3526 32 45.3526C32.1717 45.3526 32.3406 45.3084 32.4903 45.2242L43.4903 39.0367C43.6449 38.9497 43.7736 38.8232 43.8632 38.67C43.9528 38.5168 44 38.3426 44 38.1651Z" stroke="#2F55D4" stroke-width="2" stroke-linecap="round" stroke-linejoin="round"/>
<path d="M38.1278 35.0639V28.5639L26 21.875" stroke="#2F55D4" stroke-width="2" stroke-linecap="round" stroke-linejoin="round"/>
<path d="M43.8621 25.3283L32.1186 32L20.1384 25.3271" stroke="#2F55D4" stroke-width="2" stroke-linecap="round" stroke-linejoin="round"/>
<path d="M32.1186 32L32.0012 45.3527" stroke="#2F55D4" stroke-width="2" stroke-linecap="round" stroke-linejoin="round"/>
</svg>
