<svg width="64" height="64" viewBox="0 0 64 64" fill="none" xmlns="http://www.w3.org/2000/svg">
<rect width="64" height="64" rx="4" fill="#2F55D4"/>
<path opacity="0.2" d="M42.424 31.9292L39.0007 25.0004H25.0007L21.5773 31.9293C21.4961 32.0937 21.4617 32.2773 21.4778 32.46C21.4939 32.6427 21.5599 32.8174 21.6686 32.9651L32.0007 47.0004L42.3327 32.965C42.4415 32.8173 42.5075 32.6426 42.5236 32.4599C42.5397 32.2772 42.5052 32.0936 42.424 31.9292ZM32.0007 35.0004C31.5062 35.0004 31.0229 34.8538 30.6118 34.5791C30.2006 34.3044 29.8802 33.914 29.691 33.4571C29.5018 33.0003 29.4523 32.4977 29.5487 32.0127C29.6452 31.5277 29.8833 31.0823 30.2329 30.7327C30.5826 30.383 31.028 30.1449 31.513 30.0485C31.9979 29.952 32.5006 30.0015 32.9574 30.1907C33.4142 30.3799 33.8047 30.7004 34.0794 31.1115C34.3541 31.5226 34.5007 32.006 34.5007 32.5004C34.5007 32.8287 34.436 33.1538 34.3104 33.4571C34.1848 33.7605 34.0006 34.0361 33.7685 34.2682C33.5363 34.5004 33.2607 34.6845 32.9574 34.8101C32.6541 34.9358 32.329 35.0004 32.0007 35.0004Z" fill="white"/>
<path d="M32.0006 35.0004L32.0006 47.0004" stroke="white" stroke-width="2" stroke-linecap="round" stroke-linejoin="round"/>
<path d="M32.0006 35.0004C33.3814 35.0004 34.5006 33.8811 34.5006 32.5004C34.5006 31.1197 33.3814 30.0004 32.0006 30.0004C30.6199 30.0004 29.5006 31.1197 29.5006 32.5004C29.5006 33.8811 30.6199 35.0004 32.0006 35.0004Z" stroke="white" stroke-width="2" stroke-linecap="round" stroke-linejoin="round"/>
<path d="M25.0006 25.0004V20.0004C25.0006 19.7352 25.106 19.4809 25.2935 19.2933C25.4811 19.1058 25.7354 19.0004 26.0006 19.0004H38.0006C38.2659 19.0004 38.5202 19.1058 38.7077 19.2933C38.8953 19.4809 39.0006 19.7352 39.0006 20.0004V25.0004" stroke="white" stroke-width="2" stroke-linecap="round" stroke-linejoin="round"/>
<path d="M25.0007 25.0004L21.5774 31.9293C21.4961 32.0937 21.4617 32.2773 21.4778 32.46C21.4939 32.6426 21.5599 32.8174 21.6686 32.9651L32.0007 47.0004L42.3328 32.965C42.4415 32.8173 42.5075 32.6426 42.5236 32.4599C42.5397 32.2772 42.5052 32.0936 42.424 31.9292L39.0007 25.0004H25.0007Z" stroke="white" stroke-width="2" stroke-linecap="round" stroke-linejoin="round"/>
</svg>
