<?xml version="1.0" encoding="UTF-8"?>
<svg id="Layer_1" xmlns="http://www.w3.org/2000/svg" viewBox="0 0 30 30">
  <defs>
    <style>
      .cls-1 {
        fill: #121212;
      }
    </style>
  </defs>
  <path class="cls-1" d="M1,15.7v-1.67c.08,0,.16-.04.24-.05.2-.03.39-.1.55-.22.16-.12.3-.27.39-.45.12-.23.19-.47.22-.73.02-.2.04-.4.04-.6v-5.21c-.01-.65.12-1.29.38-1.89.21-.47.53-.89.94-1.2.4-.32.88-.53,1.39-.61.28-.06.57-.08.85-.07h2.2v1.69h-2.16c-.29-.02-.58.06-.82.23-.24.17-.42.41-.5.69-.13.38-.2.77-.19,1.17v5.68c0,.4-.06.8-.18,1.18-.07.24-.19.47-.35.67s-.36.36-.58.47l-.05.03s0,0-.02.05l.06.03c.27.15.51.35.69.61.18.26.3.55.35.86.06.3.1.61.09.92v5.56c-.01.47.06.93.23,1.37.08.19.17.37.29.54.11.16.25.29.42.37.17.09.36.13.55.12h1.8c.01-.06.02-.12.02-.17v-4.98c-.15.11-.3.23-.44.36l-.41.35-.43.37s-.02-.09-.02-.13v-2.01s.01-.09.04-.13c.02-.04.05-.07.09-.1l2.85-2.5,5.12-4.46.18-.16,4.03,3.22c.07-.05.05-.12.05-.18v-1.07h1.49q.2,0,.2.2v2.27c0,.42-.04.31.25.55.82.71,1.68,1.41,2.52,2.11.04.03.08.07.1.12.02.05.03.1.03.15v2.08c-.07,0-.11-.05-.15-.09-.33-.28-.66-.56-.99-.83l-.13-.1h-.03v5s0,.08,0,.11h1.06c.18,0,.36-.05.53-.11.39-.15.75-.39,1.03-.7.29-.31.49-.69.61-1.1.05-.22.07-.45.07-.67v-5.28c-.01-.42.04-.84.16-1.25.07-.25.19-.48.35-.69.16-.2.36-.37.59-.49.03-.02.07-.04.09-.07-.02-.02-.05-.04-.08-.05-.26-.14-.48-.33-.65-.56-.17-.23-.29-.5-.35-.79-.08-.35-.12-.71-.11-1.07v-5.37c0-.22-.02-.43-.07-.64-.09-.39-.3-.73-.6-.99-.46-.43-1.06-.67-1.68-.66h-1.3c-.05-.57-.05-1.14,0-1.7.05,0,.1,0,.15,0,.56,0,1.12-.03,1.68,0,1.17.06,2.27.59,3.06,1.47.57.66.88,1.52.86,2.4v5.17c0,.31.04.62.12.92.06.21.16.4.3.57.19.23.46.38.75.42l.25.04c.04.57.04,1.14,0,1.7l-.26.04c-.21.03-.4.12-.56.25-.16.13-.29.3-.37.5-.15.36-.23.76-.21,1.15v5.21c0,.66-.15,1.31-.46,1.88-.33.61-.82,1.13-1.41,1.49-.58.37-1.24.61-1.92.7-.19.02-.38.03-.58.03h-2.71v-8.1c0-.32.05-.23-.21-.42l-5.34-4.24-.19-.15s-.08.05-.11.08l-4.93,4.39s-.07.07-.09.12c-.02.05-.03.1-.02.15v8.14h-3.63c-.72,0-1.42-.23-2-.66-.58-.43-1-1.05-1.21-1.74-.17-.52-.26-1.07-.25-1.62v-5.29c0-.36-.05-.72-.18-1.06-.09-.24-.25-.45-.45-.6-.21-.15-.45-.23-.71-.24l-.16-.03Z"/>
  <path class="cls-1" d="M16.6,19.59v1.67c-.55.04-1.1.04-1.64,0v-1.56c0-.07.02-.12.1-.11h1.54Z"/>
  <path class="cls-1" d="M12.75,21.88h1.64c.02.14.02.28,0,.42v.83c.01.14.01.28,0,.42h-1.64c-.03-.55-.03-1.11,0-1.67Z"/>
  <path class="cls-1" d="M12.73,21.26v-1.67c.54-.04,1.08-.05,1.62-.02.05.55.05,1.11.02,1.67-.55.04-1.1.05-1.64.02Z"/>
  <path class="cls-1" d="M16.62,21.89v1.64c-.55.05-1.1.05-1.64.02-.04-.55-.04-1.11,0-1.67.55-.04,1.1-.04,1.64,0Z"/>
</svg>