<svg width="686" height="800" viewBox="0 0 686 800" fill="none" xmlns="http://www.w3.org/2000/svg">
<g opacity="0.3" clip-path="url(#clip0_304_8905)">
<path d="M12.8609 42.3178H135.486M12.8609 42.3178C6.437 42.3178 1.2294 37.6865 1.2294 31.9734V-76.8249C1.2294 -82.538 6.43699 -87.1693 12.8609 -87.1693H135.486C141.91 -87.1693 147.117 -82.538 147.117 -76.8249M12.8609 42.3178C6.437 42.3178 1.2294 46.9495 1.2294 52.6625V161.461C1.2294 167.174 6.437 171.805 12.8609 171.805M147.117 31.9734V-76.8249M147.117 31.9734C147.117 37.6865 141.91 42.3178 135.486 42.3178M147.117 31.9734C147.117 37.6865 152.325 42.3178 158.749 42.3178M135.486 42.3178C141.91 42.3178 147.117 46.9495 147.117 52.6625M147.117 -76.8249C147.117 -82.538 152.325 -87.1693 158.749 -87.1693H281.373C287.797 -87.1693 293.005 -82.538 293.005 -76.8249M158.749 42.3178H281.373M158.749 42.3178C152.325 42.3178 147.117 46.9495 147.117 52.6625M293.005 31.9734V-76.8249M293.005 31.9734C293.005 37.6865 287.797 42.3178 281.373 42.3178M293.005 31.9734C293.005 37.6865 298.212 42.3178 304.636 42.3178M281.373 42.3178C287.797 42.3178 293.005 46.9493 293.005 52.6624M293.005 -76.8249C293.005 -82.538 298.212 -87.1693 304.636 -87.1693H427.261C433.685 -87.1693 438.893 -82.538 438.893 -76.8249M304.636 42.3178H427.261M304.636 42.3178C298.212 42.3178 293.005 46.9493 293.005 52.6624M438.893 31.9734V-76.8249M438.893 31.9734C438.893 37.6865 433.685 42.3178 427.261 42.3178M438.893 31.9734C438.893 37.6865 444.1 42.3178 450.524 42.3178M427.261 42.3178C433.685 42.3178 438.893 46.9493 438.893 52.6624M438.893 -76.8249C438.893 -82.538 444.1 -87.1693 450.524 -87.1693H573.149C579.573 -87.1693 584.78 -82.538 584.78 -76.8249M450.524 42.3178H573.149M450.524 42.3178C444.1 42.3178 438.893 46.9493 438.893 52.6624M584.78 31.9734V-76.8249M584.78 31.9734C584.78 37.6865 579.573 42.3178 573.149 42.3178M584.78 31.9734C584.78 37.6865 589.988 42.3178 596.412 42.3178M573.149 42.3178C579.573 42.3178 584.78 46.9493 584.78 52.6624M584.78 -76.8249C584.78 -82.538 589.988 -87.1693 596.412 -87.1693H719.036C725.46 -87.1693 730.668 -82.538 730.668 -76.8249M596.412 42.3178H719.036M596.412 42.3178C589.988 42.3178 584.78 46.9493 584.78 52.6624M730.668 31.9734V-76.8249M730.668 31.9734C730.668 37.6865 725.46 42.3178 719.036 42.3178M730.668 31.9734C730.668 37.6865 735.876 42.3178 742.299 42.3178M719.036 42.3178C725.46 42.3178 730.668 46.9493 730.668 52.6624M730.668 -76.8249C730.668 -82.538 735.875 -87.1693 742.299 -87.1693H864.924C871.348 -87.1693 876.556 -82.538 876.556 -76.8249V31.9734C876.556 37.6865 871.348 42.3178 864.924 42.3178M742.299 42.3178H864.924M742.299 42.3178C735.876 42.3178 730.668 46.9493 730.668 52.6624M864.924 42.3178C871.348 42.3178 876.556 46.9493 876.556 52.6624V161.461C876.556 167.174 871.348 171.805 864.924 171.805M12.8609 171.805H135.486M12.8609 171.805C6.437 171.805 1.2294 176.436 1.2294 182.149V290.947C1.2294 296.661 6.437 301.292 12.8609 301.292M147.117 161.461V52.6625M147.117 161.461C147.117 167.174 141.91 171.805 135.486 171.805M147.117 161.461C147.117 167.174 152.325 171.805 158.749 171.805M135.486 171.805C141.91 171.805 147.117 176.436 147.117 182.149M158.749 171.805H281.373M158.749 171.805C152.325 171.805 147.117 176.436 147.117 182.149M293.005 161.461V52.6624M293.005 161.461C293.005 167.174 287.797 171.805 281.373 171.805M293.005 161.461C293.005 167.174 298.212 171.805 304.636 171.805M281.373 171.805C287.797 171.805 293.005 176.436 293.005 182.149M304.636 171.805H427.261M304.636 171.805C298.212 171.805 293.005 176.436 293.005 182.149M438.893 161.461V52.6624M438.893 161.461C438.893 167.174 433.685 171.805 427.261 171.805M438.893 161.461C438.893 167.174 444.1 171.805 450.524 171.805M427.261 171.805C433.685 171.805 438.893 176.436 438.893 182.149M450.524 171.805H573.149M450.524 171.805C444.1 171.805 438.893 176.436 438.893 182.149M584.78 161.461V52.6624M584.78 161.461C584.78 167.174 579.573 171.805 573.149 171.805M584.78 161.461C584.78 167.174 589.988 171.805 596.412 171.805M573.149 171.805C579.573 171.805 584.78 176.436 584.78 182.149M596.412 171.805H719.036M596.412 171.805C589.988 171.805 584.78 176.436 584.78 182.149M730.668 161.461V52.6624M730.668 161.461C730.668 167.174 725.46 171.805 719.036 171.805M730.668 161.461C730.668 167.174 735.876 171.805 742.299 171.805M719.036 171.805C725.46 171.805 730.668 176.436 730.668 182.149M742.299 171.805H864.924M742.299 171.805C735.876 171.805 730.668 176.436 730.668 182.149M864.924 171.805C871.348 171.805 876.556 176.436 876.556 182.149V290.948C876.556 296.661 871.348 301.292 864.924 301.292M12.8609 301.292H135.486M12.8609 301.292C6.437 301.292 1.2294 305.924 1.2294 311.637V420.435C1.2294 426.148 6.437 430.779 12.8609 430.779M147.117 290.948V182.149M147.117 290.948C147.117 296.661 141.91 301.292 135.486 301.292M147.117 290.948C147.117 296.661 152.325 301.292 158.749 301.292M135.486 301.292C141.91 301.292 147.117 305.924 147.117 311.637M158.749 301.292H281.373M158.749 301.292C152.325 301.292 147.117 305.924 147.117 311.637M293.005 290.948V182.149M293.005 290.948C293.005 296.661 287.797 301.292 281.373 301.292M293.005 290.948C293.005 296.661 298.212 301.292 304.636 301.292M281.373 301.292C287.797 301.292 293.005 305.923 293.005 311.636M304.636 301.292H427.261M304.636 301.292C298.212 301.292 293.005 305.923 293.005 311.636M438.893 290.948V182.149M438.893 290.948C438.893 296.661 433.685 301.292 427.261 301.292M438.893 290.948C438.893 296.661 444.1 301.292 450.524 301.292M427.261 301.292C433.685 301.292 438.893 305.923 438.893 311.636M450.524 301.292H573.149M450.524 301.292C444.1 301.292 438.893 305.923 438.893 311.636M584.78 290.948V182.149M584.78 290.948C584.78 296.661 579.573 301.292 573.149 301.292M584.78 290.948C584.78 296.661 589.988 301.292 596.412 301.292M573.149 301.292C579.573 301.292 584.78 305.923 584.78 311.636M596.412 301.292H719.036M596.412 301.292C589.988 301.292 584.78 305.923 584.78 311.636M730.668 290.948V182.149M730.668 290.948C730.668 296.661 725.46 301.292 719.036 301.292M730.668 290.948C730.668 296.661 735.876 301.292 742.299 301.292M719.036 301.292C725.46 301.292 730.668 305.923 730.668 311.636M742.299 301.292H864.924M742.299 301.292C735.876 301.292 730.668 305.923 730.668 311.636M864.924 301.292C871.348 301.292 876.556 305.923 876.556 311.636V420.435C876.556 426.148 871.348 430.779 864.924 430.779M12.8609 430.779H135.486M12.8609 430.779C6.437 430.779 1.2294 435.411 1.2294 441.124V549.922C1.2294 555.635 6.437 560.267 12.8609 560.267M147.117 420.435V311.637M147.117 420.435C147.117 426.148 141.91 430.779 135.486 430.779M147.117 420.435C147.117 426.148 152.325 430.779 158.749 430.779M135.486 430.779C141.91 430.779 147.117 435.411 147.117 441.124M158.749 430.779H281.373M158.749 430.779C152.325 430.779 147.117 435.411 147.117 441.124M293.005 420.435V311.636M293.005 420.435C293.005 426.148 287.797 430.779 281.373 430.779M293.005 420.435C293.005 426.148 298.212 430.779 304.636 430.779M281.373 430.779C287.797 430.779 293.005 435.411 293.005 441.124M304.636 430.779H427.261M304.636 430.779C298.212 430.779 293.005 435.411 293.005 441.124M438.893 420.435V311.636M438.893 420.435C438.893 426.148 433.685 430.779 427.261 430.779M438.893 420.435C438.893 426.148 444.1 430.779 450.524 430.779M427.261 430.779C433.685 430.779 438.893 435.411 438.893 441.124M450.524 430.779H573.149M450.524 430.779C444.1 430.779 438.893 435.411 438.893 441.124M584.78 420.435V311.636M584.78 420.435C584.78 426.148 579.573 430.779 573.149 430.779M584.78 420.435C584.78 426.148 589.988 430.779 596.412 430.779M573.149 430.779C579.573 430.779 584.78 435.411 584.78 441.124M596.412 430.779H719.036M596.412 430.779C589.988 430.779 584.78 435.411 584.78 441.124M730.668 420.435V311.636M730.668 420.435C730.668 426.148 725.46 430.779 719.036 430.779M730.668 420.435C730.668 426.148 735.876 430.779 742.299 430.779M719.036 430.779C725.46 430.779 730.668 435.411 730.668 441.124M742.299 430.779H864.924M742.299 430.779C735.876 430.779 730.668 435.411 730.668 441.124M864.924 430.779C871.348 430.779 876.556 435.411 876.556 441.124V549.922C876.556 555.636 871.348 560.267 864.924 560.267M12.8609 560.267H135.486M12.8609 560.267C6.437 560.267 1.2294 564.898 1.2294 570.611V679.409C1.2294 685.122 6.437 689.753 12.8609 689.753M147.117 549.922V441.124M147.117 549.922C147.117 555.635 141.91 560.267 135.486 560.267M147.117 549.922C147.117 555.635 152.325 560.267 158.749 560.267M135.486 560.267C141.91 560.267 147.117 564.898 147.117 570.611M158.749 560.267H281.373M158.749 560.267C152.325 560.267 147.117 564.898 147.117 570.611M293.005 549.922V441.124M293.005 549.922C293.005 555.636 287.797 560.267 281.373 560.267M293.005 549.922C293.005 555.636 298.212 560.267 304.636 560.267M281.373 560.267C287.797 560.267 293.005 564.898 293.005 570.611M304.636 560.267H427.261M304.636 560.267C298.212 560.267 293.005 564.898 293.005 570.611M438.893 549.922V441.124M438.893 549.922C438.893 555.636 433.685 560.267 427.261 560.267M438.893 549.922C438.893 555.636 444.1 560.267 450.524 560.267M427.261 560.267C433.685 560.267 438.893 564.898 438.893 570.611M450.524 560.267H573.149M450.524 560.267C444.1 560.267 438.893 564.898 438.893 570.611M584.78 549.922V441.124M584.78 549.922C584.78 555.636 579.573 560.267 573.149 560.267M584.78 549.922C584.78 555.636 589.988 560.267 596.412 560.267M573.149 560.267C579.573 560.267 584.78 564.898 584.78 570.611M596.412 560.267H719.036M596.412 560.267C589.988 560.267 584.78 564.898 584.78 570.611M730.668 549.922V441.124M730.668 549.922C730.668 555.636 725.46 560.267 719.036 560.267M730.668 549.922C730.668 555.636 735.876 560.267 742.299 560.267M719.036 560.267C725.46 560.267 730.668 564.898 730.668 570.611M742.299 560.267H864.924M742.299 560.267C735.876 560.267 730.668 564.898 730.668 570.611M864.924 560.267C871.348 560.267 876.556 564.898 876.556 570.611V679.409C876.556 685.122 871.348 689.753 864.924 689.753M12.8609 689.753H135.486M12.8609 689.753C6.437 689.753 1.2294 694.385 1.2294 700.098V808.896C1.2294 814.609 6.437 819.241 12.8609 819.241H135.486C141.91 819.241 147.117 814.609 147.117 808.896M147.117 679.409V570.611M147.117 679.409C147.117 685.122 141.91 689.753 135.486 689.753M147.117 679.409C147.117 685.122 152.325 689.753 158.749 689.753M135.486 689.753C141.91 689.753 147.117 694.385 147.117 700.098M158.749 689.753H281.373M158.749 689.753C152.325 689.753 147.117 694.385 147.117 700.098M293.005 679.409V570.611M293.005 679.409C293.005 685.122 287.797 689.753 281.373 689.753M293.005 679.409C293.005 685.122 298.212 689.753 304.636 689.753M281.373 689.753C287.797 689.753 293.005 694.385 293.005 700.098M304.636 689.753H427.261M304.636 689.753C298.212 689.753 293.005 694.385 293.005 700.098M438.893 679.409V570.611M438.893 679.409C438.893 685.122 433.685 689.753 427.261 689.753M438.893 679.409C438.893 685.122 444.1 689.753 450.524 689.753M427.261 689.753C433.685 689.753 438.893 694.385 438.893 700.098M450.524 689.753H573.149M450.524 689.753C444.1 689.753 438.893 694.385 438.893 700.098M584.78 679.409V570.611M584.78 679.409C584.78 685.122 579.573 689.753 573.149 689.753M584.78 679.409C584.78 685.122 589.988 689.753 596.412 689.753M573.149 689.753C579.573 689.753 584.78 694.385 584.78 700.098M596.412 689.753H719.036M596.412 689.753C589.988 689.753 584.78 694.385 584.78 700.098M730.668 679.409V570.611M730.668 679.409C730.668 685.122 725.46 689.753 719.036 689.753M730.668 679.409C730.668 685.122 735.876 689.753 742.299 689.753M719.036 689.753C725.46 689.753 730.668 694.385 730.668 700.098M742.299 689.753H864.924M742.299 689.753C735.876 689.753 730.668 694.385 730.668 700.098M864.924 689.753C871.348 689.753 876.556 694.385 876.556 700.098V808.897C876.556 814.61 871.348 819.241 864.924 819.241H742.299C735.876 819.241 730.668 814.61 730.668 808.897M147.117 808.896V700.098M147.117 808.896C147.117 814.609 152.325 819.241 158.749 819.241H281.373C287.797 819.241 293.005 814.61 293.005 808.897M293.005 808.897V700.098M293.005 808.897C293.005 814.61 298.212 819.241 304.636 819.241H427.261C433.685 819.241 438.893 814.61 438.893 808.897M438.893 808.897V700.098M438.893 808.897C438.893 814.61 444.1 819.241 450.524 819.241H573.149C579.573 819.241 584.78 814.61 584.78 808.897M584.78 808.897V700.098M584.78 808.897C584.78 814.61 589.988 819.241 596.412 819.241H719.036C725.46 819.241 730.668 814.61 730.668 808.897M730.668 808.897V700.098" stroke="#A8ABBD" stroke-width="0.431035"/>
<path d="M147.117 -76.7123V27.7704C147.117 35.6616 154.324 42.0587 163.215 42.0587H276.907C285.798 42.0587 293.005 48.4557 293.005 56.3469V157.258C293.005 165.149 300.212 171.546 309.103 171.546H422.795C431.685 171.546 438.893 177.943 438.893 185.834V286.745C438.893 294.636 446.1 301.033 454.991 301.033H568.682C577.573 301.033 584.78 307.43 584.78 315.321V416.232C584.78 424.123 591.988 430.52 600.878 430.52H718.595M1.2294 -76.7123V27.7704C1.2294 35.6616 8.4367 42.0587 17.3274 42.0587H131.019C139.91 42.0587 147.117 48.4557 147.117 56.3469V157.258C147.117 165.149 154.324 171.546 163.215 171.546H276.907C285.798 171.546 293.005 177.943 293.005 185.834V286.745C293.005 294.636 285.798 301.033 276.907 301.033H163.215C154.324 301.033 147.117 294.636 147.117 286.745V184.048L146.976 183.204C145.896 176.733 139.707 171.9 132.338 171.774L118.946 171.546H17.3274C8.4367 171.546 1.2294 177.943 1.2294 185.834V286.745C1.2294 294.636 8.4367 301.033 17.3274 301.033H132.025L135.847 301.259C142.189 301.634 147.117 306.31 147.117 311.952V322.912M147.117 311.749V416.232C147.117 424.123 154.324 430.52 163.215 430.52H276.907C285.798 430.52 293.005 436.917 293.005 444.808V545.719C293.005 553.61 300.212 560.007 309.103 560.007H422.795C431.685 560.007 438.893 566.404 438.893 574.296V675.206C438.893 683.097 446.1 689.495 454.991 689.495H568.682C577.573 689.495 584.78 695.892 584.78 703.783V804.693C584.78 812.585 591.988 818.982 600.878 818.982H718.595" stroke="#597CF3"/>
</g>
<defs>
<clipPath id="clip0_304_8905">
<rect width="686" height="800" fill="white"/>
</clipPath>
</defs>
</svg>
