<svg width="60" height="60" viewBox="0 0 60 60" fill="none" xmlns="http://www.w3.org/2000/svg">
<g clip-path="url(#clip0_1050_11778)">
<path d="M60 60H0C0 40 0 20 0 0C20 0 40 0 60 0V60ZM24.1 23.21C24.1 23.11 24.1 23.06 24.1 23C24.1 20.45 24.1 17.91 24.1 15.36C24.1 14.91 24.06 14.44 23.97 14C23.67 12.51 22.87 11.35 21.54 10.59C20.67 10.09 19.72 9.85 18.72 9.77C17.68 9.69 16.64 9.74 15.63 10.02C14.35 10.38 13.28 11.06 12.55 12.2C11.95 13.14 11.7 14.19 11.7 15.3C11.7 25.08 11.7 34.86 11.7 44.64C11.7 45.09 11.74 45.56 11.83 46C12.13 47.47 12.9 48.61 14.2 49.38C15.08 49.9 16.04 50.15 17.06 50.23C18.07 50.31 19.06 50.27 20.05 50.01C21.27 49.69 22.32 49.08 23.08 48.04C23.76 47.12 24.08 46.06 24.09 44.93C24.11 42.73 24.09 40.52 24.1 38.32C24.1 38.24 24.13 38.14 24.19 38.09C25.15 37.21 26.11 36.34 27.07 35.47C27.11 35.44 27.15 35.41 27.19 35.37C27.24 35.43 27.28 35.48 27.32 35.53C30.33 39.33 33.34 43.13 36.33 46.94C37.19 48.03 38.18 48.94 39.42 49.57C40.17 49.96 40.96 50.22 41.8 50.24C42.35 50.25 42.91 50.21 43.46 50.15C44.32 50.05 45.11 49.76 45.86 49.33C47.99 48.08 48.7 45.34 48.08 43.29C47.73 42.14 47.17 41.09 46.46 40.13C45.64 39.02 44.77 37.94 43.91 36.85C41.47 33.76 39.02 30.67 36.58 27.57C36.55 27.54 36.53 27.5 36.5 27.45C36.55 27.41 36.6 27.37 36.64 27.33C38.68 25.37 40.71 23.4 42.75 21.44C43.3 20.91 43.84 20.36 44.41 19.85C46.24 18.23 47 16.24 46.45 13.83C46.04 12.05 44.99 10.78 43.27 10.12C42.06 9.65 40.81 9.61 39.54 9.87C38.38 10.11 37.33 10.59 36.47 11.41C32.89 14.81 29.33 18.22 25.76 21.62C25.22 22.13 24.68 22.65 24.11 23.19L24.1 23.21Z" fill="#673AB7"/>
<path d="M24.0999 23.21C24.6699 22.67 25.2099 22.15 25.7499 21.64C29.3199 18.23 32.8799 14.82 36.4599 11.43C37.3199 10.61 38.3699 10.13 39.5299 9.88996C40.7899 9.61996 42.0499 9.66996 43.2599 10.14C44.9799 10.8 46.0399 12.07 46.4399 13.85C46.9899 16.26 46.2299 18.25 44.3999 19.87C43.8299 20.38 43.2899 20.93 42.7399 21.46C40.6999 23.42 38.6699 25.39 36.6299 27.35C36.5899 27.39 36.5399 27.43 36.4899 27.47C36.5199 27.52 36.5399 27.56 36.5699 27.59C39.0099 30.68 41.4599 33.77 43.8999 36.87C44.7599 37.96 45.6299 39.04 46.4499 40.15C47.1599 41.11 47.7299 42.16 48.0699 43.31C48.6899 45.36 47.9699 48.1 45.8499 49.35C45.0999 49.79 44.3099 50.07 43.4499 50.17C42.8999 50.23 42.3399 50.27 41.7899 50.26C40.9499 50.24 40.1599 49.98 39.4099 49.59C38.1799 48.95 37.1799 48.05 36.3199 46.96C33.3199 43.15 30.3099 39.35 27.3099 35.55C27.2699 35.5 27.2299 35.45 27.1799 35.39C27.1399 35.42 27.0999 35.45 27.0599 35.49C26.0999 36.36 25.1399 37.23 24.1799 38.11C24.1299 38.16 24.0899 38.26 24.0899 38.34C24.0899 40.54 24.0999 42.75 24.0799 44.95C24.0699 46.08 23.7499 47.13 23.0699 48.06C22.3099 49.1 21.2699 49.7 20.0399 50.03C19.0599 50.29 18.0599 50.33 17.0499 50.25C16.0399 50.17 15.0699 49.92 14.1899 49.4C12.8899 48.63 12.1099 47.49 11.8199 46.02C11.7299 45.58 11.6899 45.11 11.6899 44.66C11.6899 34.88 11.6899 25.1 11.6899 15.32C11.6899 14.21 11.9399 13.16 12.5399 12.22C13.2699 11.08 14.3399 10.41 15.6199 10.04C16.6299 9.74996 17.6699 9.69996 18.7099 9.78996C19.7099 9.86996 20.6599 10.11 21.5299 10.61C22.8599 11.37 23.6499 12.53 23.9599 14.02C24.0499 14.46 24.0899 14.93 24.0899 15.38C24.0999 17.93 24.0899 20.47 24.0899 23.02C24.0899 23.08 24.0899 23.13 24.0899 23.23L24.0999 23.21Z" fill="white"/>
</g>
<defs>
<clipPath id="clip0_1050_11778">
<rect width="60" height="60" rx="6" fill="white"/>
</clipPath>
</defs>
</svg>
