<svg width="60" height="60" viewBox="0 0 60 60" fill="none" xmlns="http://www.w3.org/2000/svg">
<g clip-path="url(#clip0_1050_11911)">
<path d="M60.0001 32.2701C59.7601 33.6701 59.5701 35.0801 59.2701 36.4701C56.5801 49.0901 45.8201 58.6401 32.9601 59.8301C32.7301 59.8501 32.5001 59.9401 32.2701 60.0001H27.8901C26.4901 59.7601 25.0801 59.5701 23.6901 59.2701C11.0201 56.5801 1.46013 45.7301 0.340134 32.7901C-1.06987 16.6201 10.3101 2.49005 26.4301 0.400053C43.0001 -1.74995 58.2401 10.4801 59.8301 27.2001C59.8501 27.4401 59.9401 27.6601 60.0001 27.9001V32.2801V32.2701ZM59.2201 30.1101C59.2201 14.0301 46.1601 0.940053 30.1201 0.940053C14.0401 0.940053 0.950134 14.0101 0.960134 30.0501C0.960134 46.1401 14.0201 59.2201 30.0601 59.2201C46.1401 59.2201 59.2201 46.1601 59.2201 30.1101Z" fill="white"/>
<path d="M58.3498 30.0499C58.3598 45.6399 45.7298 58.3199 30.1498 58.3499C14.5198 58.3699 1.82985 45.6999 1.83985 30.0699C1.83985 14.4799 14.4998 1.81995 30.0898 1.81995C45.6798 1.81995 58.3399 14.4699 58.3599 30.0499H58.3498ZM56.0199 31.8499C56.2499 31.5599 56.5399 31.3499 56.5299 31.1599C56.4899 30.4699 56.5399 29.6699 56.1999 29.1399C55.6199 28.2399 55.5399 27.2899 55.3899 26.2999C53.5899 14.4399 43.8398 5.40995 31.9398 4.54995C19.9698 3.68995 9.06985 11.2099 5.58985 22.7799C5.15985 24.1899 4.90985 25.6599 4.56985 27.0899C4.25985 27.1299 3.96985 27.1699 3.68985 27.2099V36.9199C3.89985 36.9399 4.04985 36.9999 4.18985 36.9699C5.19985 36.7799 5.54985 37.2799 5.84985 38.1999C9.83985 50.2999 22.4799 57.7699 34.8799 55.1699C44.8099 53.0899 51.3599 47.0599 54.5799 37.4199C54.6899 37.0899 54.8398 36.7199 55.0998 36.5099C56.8898 35.0299 57.1499 33.7199 56.0199 31.8399V31.8499Z" fill="white"/>
<path d="M26.14 7.59997C28.82 7.53997 31.33 7.82997 33.4 9.70997C33.58 9.87997 33.88 9.95997 34.13 9.98997C37.03 10.42 38.81 12.23 40 14.76C40.13 15.04 40.14 15.42 40.08 15.73C39.45 19.17 36.82 21.63 33.36 22.1C32.99 22.15 32.65 22.37 32.29 22.52C31.38 22.91 30.5 23.36 29.57 23.69C29.03 23.88 28.54 23.6 28.63 22.97C28.83 21.46 27.93 20.82 26.78 20.21C26.02 19.8 25.37 19.17 24.65 18.61C23.37 19.54 21.93 20.02 20.04 19.79C20.22 18.75 20.42 17.74 20.57 16.72C20.63 16.27 20.64 15.79 20.57 15.35C20.42 14.35 20.21 13.36 20.02 12.28C21.89 12.07 23.36 12.49 24.65 13.48C25.33 12.94 26 12.46 26.58 11.9C26.79 11.69 26.94 11.26 26.89 10.97C26.7 9.87997 26.41 8.79997 26.13 7.59997H26.14ZM30.2 22.01C30.77 21.68 31.14 21.43 31.54 21.24C32.02 21.02 32.51 20.74 33.02 20.69C35.81 20.39 37.94 18.53 38.53 15.77C38.58 15.52 38.57 15.21 38.47 14.99C37.46 12.91 35.94 11.54 33.51 11.39C33.18 11.37 32.8 11.14 32.55 10.91C31.33 9.79997 29.9 9.32997 28.27 9.23997C28.32 10.14 28.39 10.93 28.41 11.71C28.41 11.93 28.36 12.22 28.21 12.35C27.07 13.38 25.91 14.37 24.79 15.34C23.93 14.85 22.99 14.32 22.05 13.78C21.97 13.86 21.88 13.93 21.8 14.01C22.43 15.32 22.56 16.65 21.8 17.99C21.89 18.04 21.99 18.09 22.08 18.14C23.02 17.65 23.96 17.15 24.94 16.64C26.33 18.35 28.12 19.61 30.19 20.36V22L30.2 22.01Z" fill="white"/>
<path d="M9.88018 32.26C9.88018 31.58 9.88018 30.89 9.88018 30.21C9.88018 29.53 9.88018 28.89 9.88018 28.18H11.8002V35.87C10.8502 36.08 10.0802 36.04 9.45018 35.1C8.66018 33.93 7.70018 32.88 6.61018 31.84V35.9H4.68018V28.23C5.68018 27.99 6.43018 28.11 7.06018 29.02C7.85018 30.18 8.81018 31.23 9.69018 32.33C9.75018 32.31 9.82018 32.29 9.88018 32.26Z" fill="white"/>
<path d="M19.22 36.1C16.93 36.07 15.09 34.23 15.12 32C15.15 29.79 17.06 27.97 19.34 27.99C21.62 28.01 23.51 29.87 23.5 32.07C23.49 34.33 21.58 36.13 19.23 36.11L19.22 36.1ZM17.12 32.05C17.12 33.22 18.07 34.2 19.24 34.23C20.42 34.26 21.47 33.25 21.48 32.06C21.48 30.92 20.5 29.92 19.34 29.89C18.12 29.86 17.12 30.83 17.12 32.05Z" fill="white"/>
<path d="M28.7598 30.0401V31.2001H31.9798V32.9601H28.7598C28.7398 33.3301 28.7198 33.6401 28.6998 34.0601H32.7098V35.8801C32.4898 35.9101 32.3198 35.9501 32.1398 35.9501C30.3798 35.9501 28.6198 35.9501 26.7798 35.9501V28.1801H32.6798V30.0401H28.7498H28.7598Z" fill="white"/>
<path d="M49.2798 33.71C50.0598 33.73 50.8598 33.33 51.4698 34.13C51.5698 34.25 51.7998 34.36 51.9598 34.34C52.4598 34.28 53.2998 34.28 53.3898 34.03C53.6498 33.34 52.8598 33.34 52.4298 33.14C51.7198 32.81 50.9298 32.6 50.2898 32.17C48.7898 31.17 48.9498 29.25 50.5498 28.41C52.5498 27.35 55.1198 28.26 55.5398 30.18C55.5598 30.26 55.5398 30.36 55.5398 30.58C54.7498 30.5 53.9198 31 53.3098 30.03C53.1798 29.82 52.6998 29.7 52.4098 29.74C52.0698 29.78 51.7598 30.04 51.4398 30.2C51.6598 30.41 51.8498 30.7 52.1198 30.83C52.8298 31.17 53.5998 31.39 54.2898 31.76C55.3798 32.34 55.7998 33.15 55.6398 34.2C55.5098 35.13 54.8198 35.89 53.6198 35.99C52.5998 36.07 51.5098 35.95 50.5198 35.67C49.7198 35.45 49.2098 34.74 49.2798 33.73V33.71Z" fill="white"/>
<path d="M36.1902 28.17H38.0602V34.04H41.8302V35.88H36.1802V28.17H36.1902Z" fill="white"/>
<path d="M25.4902 42.61C26.5802 43.7 27.6702 44.8 28.7602 45.89C30.5202 47.65 32.2802 49.42 34.0502 51.17C34.4202 51.54 34.7902 51.98 34.3602 52.41C33.8902 52.87 33.5002 52.43 33.1702 52.03C32.0502 50.67 30.9402 49.3 29.7902 47.97C29.5102 47.65 29.1002 47.4 28.7002 47.24C27.1702 46.65 26.0602 45.63 25.4202 44.14C25.2302 43.71 25.2502 43.18 25.1802 42.7C25.2802 42.67 25.3902 42.63 25.4902 42.6V42.61Z" fill="white"/>
<path d="M34.9298 43.9699C34.1398 44.8199 33.4198 45.7299 32.5398 46.4799C32.1398 46.8299 31.4498 46.8399 30.8898 46.9999V47.2799C30.6898 47.1299 30.4898 46.9799 30.3398 46.8599C30.7898 46.0199 31.1198 45.1799 31.6498 44.4799C32.1798 43.7699 32.8898 43.1999 33.5198 42.5699L33.7798 42.8099C33.2998 43.3499 32.8298 43.8799 32.3498 44.4199C32.4198 44.4999 32.4998 44.5799 32.5698 44.6599C33.1098 44.1899 33.6598 43.7099 34.1998 43.2399C34.2698 43.2999 34.3298 43.3599 34.3998 43.4199C33.9198 43.9599 33.4498 44.4999 32.9698 45.0399C33.0398 45.1199 33.1098 45.1999 33.1798 45.2799C33.7198 44.8099 34.2598 44.3299 34.7998 43.8599C34.8398 43.8999 34.8798 43.9299 34.9198 43.9699H34.9298Z" fill="white"/>
<path d="M44.49 32.0799C44.24 31.8399 44.02 31.6399 43.77 31.4099C43.99 31.0999 44.19 30.8099 44.42 30.4699C44.3 30.2999 44.17 30.1399 44.06 29.9699C43.7 29.4499 43.67 28.8599 44.14 28.4899C44.49 28.2199 45.19 27.9899 45.49 28.1599C45.89 28.3999 46.29 29.0599 46.26 29.5099C46.19 30.6399 45.31 31.3299 44.49 32.0799Z" fill="white"/>
<path d="M29.0802 47.85C29.3102 48.12 29.4702 48.3 29.6102 48.46C29.5902 48.55 29.6102 48.63 29.5702 48.66C28.4802 49.84 27.4002 51.03 26.2602 52.16C26.0402 52.38 25.5402 52.32 25.1802 52.39C25.2502 52.05 25.2102 51.59 25.4202 51.38C26.5802 50.19 27.8102 49.06 29.0802 47.84V47.85Z" fill="white"/>
<path d="M35.3399 14.55C35.8899 14.62 36.2699 14.98 36.2999 15.65C36.3299 16.31 35.8099 16.8 35.1599 16.76C34.4899 16.72 34.1099 16.35 34.0899 15.66C34.0699 15 34.5799 14.52 35.3399 14.54V14.55Z" fill="white"/>
<path d="M11.4378 41V39H12.2269C12.3779 39 12.5068 39.027 12.6136 39.0811C12.721 39.1344 12.8027 39.2103 12.8587 39.3086C12.9153 39.4062 12.9437 39.5212 12.9437 39.6533C12.9437 39.7861 12.915 39.9004 12.8577 39.9961C12.8004 40.0911 12.7174 40.1641 12.6087 40.2148C12.5006 40.2656 12.3698 40.291 12.2161 40.291H11.6878V39.9512H12.1478C12.2285 39.9512 12.2955 39.9401 12.3489 39.918C12.4023 39.8958 12.442 39.8626 12.4681 39.8184C12.4948 39.7741 12.5081 39.7191 12.5081 39.6533C12.5081 39.5869 12.4948 39.5309 12.4681 39.4854C12.442 39.4398 12.402 39.4053 12.348 39.3818C12.2946 39.3577 12.2272 39.3457 12.1458 39.3457H11.8606V41H11.4378ZM12.5179 40.0898L13.0149 41H12.5481L12.0618 40.0898H12.5179ZM13.2975 41V39H14.6451V39.3486H13.7203V39.8252H14.5758V40.1738H13.7203V40.6514H14.649V41H13.2975ZM16.1213 39.5752C16.1135 39.4964 16.0799 39.4352 16.0207 39.3916C15.9614 39.348 15.881 39.3262 15.7795 39.3262C15.7105 39.3262 15.6522 39.3359 15.6047 39.3555C15.5572 39.3743 15.5207 39.4007 15.4953 39.4346C15.4706 39.4684 15.4582 39.5068 15.4582 39.5498C15.4569 39.5856 15.4644 39.6169 15.4807 39.6436C15.4976 39.6702 15.5207 39.6934 15.55 39.7129C15.5793 39.7318 15.6131 39.7484 15.6516 39.7627C15.69 39.7764 15.731 39.7881 15.7746 39.7979L15.9543 39.8408C16.0415 39.8604 16.1216 39.8864 16.1945 39.9189C16.2674 39.9515 16.3306 39.9915 16.384 40.0391C16.4374 40.0866 16.4787 40.1426 16.508 40.207C16.5379 40.2715 16.5532 40.3454 16.5539 40.4287C16.5532 40.5511 16.522 40.6572 16.4601 40.7471C16.3989 40.8363 16.3104 40.9056 16.1945 40.9551C16.0793 41.0039 15.9403 41.0283 15.7775 41.0283C15.6161 41.0283 15.4754 41.0036 15.3557 40.9541C15.2365 40.9046 15.1434 40.8314 15.0764 40.7344C15.01 40.6367 14.9751 40.516 14.9719 40.3721H15.381C15.3856 40.4391 15.4048 40.4951 15.4387 40.54C15.4732 40.5843 15.5191 40.6178 15.5764 40.6406C15.6343 40.6628 15.6997 40.6738 15.7726 40.6738C15.8443 40.6738 15.9064 40.6634 15.9592 40.6426C16.0126 40.6217 16.0539 40.5928 16.0832 40.5557C16.1125 40.5186 16.1271 40.4759 16.1271 40.4277C16.1271 40.3828 16.1138 40.3451 16.0871 40.3145C16.0611 40.2839 16.0226 40.2578 15.9719 40.2363C15.9217 40.2148 15.8602 40.1953 15.7873 40.1777L15.5695 40.123C15.4009 40.082 15.2678 40.0179 15.1701 39.9307C15.0725 39.8434 15.0239 39.7259 15.0246 39.5781C15.0239 39.457 15.0562 39.3512 15.1213 39.2607C15.187 39.1702 15.2772 39.0996 15.3918 39.0488C15.5064 38.998 15.6366 38.9727 15.7824 38.9727C15.9309 38.9727 16.0604 38.998 16.1711 39.0488C16.2824 39.0996 16.369 39.1702 16.4309 39.2607C16.4927 39.3512 16.5246 39.4561 16.5266 39.5752H16.1213ZM16.8171 39.3486V39H18.4597V39.3486H17.8474V41H17.4295V39.3486H16.8171ZM18.8856 41H18.4325L19.1229 39H19.6678L20.3573 41H19.9041L19.4032 39.457H19.3875L18.8856 41ZM18.8573 40.2139H19.9276V40.5439H18.8573V40.2139ZM21.8883 39H22.3112V40.2988C22.3112 40.4447 22.2764 40.5723 22.2067 40.6816C22.1377 40.791 22.041 40.8763 21.9167 40.9375C21.7923 40.998 21.6474 41.0283 21.4821 41.0283C21.3161 41.0283 21.1709 40.998 21.0465 40.9375C20.9222 40.8763 20.8255 40.791 20.7565 40.6816C20.6875 40.5723 20.653 40.4447 20.653 40.2988V39H21.0758V40.2627C21.0758 40.3389 21.0924 40.4066 21.1256 40.4658C21.1595 40.5251 21.207 40.5716 21.2682 40.6055C21.3294 40.6393 21.4007 40.6562 21.4821 40.6562C21.5641 40.6562 21.6354 40.6393 21.6959 40.6055C21.7571 40.5716 21.8043 40.5251 21.8375 40.4658C21.8714 40.4066 21.8883 40.3389 21.8883 40.2627V39ZM22.7141 41V39H23.5031C23.6542 39 23.7831 39.027 23.8899 39.0811C23.9973 39.1344 24.079 39.2103 24.135 39.3086C24.1916 39.4062 24.2199 39.5212 24.2199 39.6533C24.2199 39.7861 24.1913 39.9004 24.134 39.9961C24.0767 40.0911 23.9937 40.1641 23.885 40.2148C23.7769 40.2656 23.646 40.291 23.4924 40.291H22.9641V39.9512H23.424C23.5048 39.9512 23.5718 39.9401 23.6252 39.918C23.6786 39.8958 23.7183 39.8626 23.7444 39.8184C23.771 39.7741 23.7844 39.7191 23.7844 39.6533C23.7844 39.5869 23.771 39.5309 23.7444 39.4854C23.7183 39.4398 23.6783 39.4053 23.6242 39.3818C23.5709 39.3577 23.5035 39.3457 23.4221 39.3457H23.1369V41H22.7141ZM23.7942 40.0898L24.2912 41H23.8244L23.3381 40.0898H23.7942ZM24.9185 41H24.4654L25.1558 39H25.7007L26.3902 41H25.9371L25.4361 39.457H25.4205L24.9185 41ZM24.8902 40.2139H25.9605V40.5439H24.8902V40.2139ZM28.3588 39V41H27.9935L27.1234 39.7412H27.1088V41H26.6859V39H27.057L27.9203 40.2578H27.9379V39H28.3588ZM28.6869 39.3486V39H30.3295V39.3486H29.7172V41H29.2992V39.3486H28.6869ZM31.952 41.0293C31.814 41.0293 31.6948 41.0046 31.5946 40.9551C31.4943 40.9056 31.4171 40.8385 31.3631 40.7539C31.3097 40.6686 31.283 40.5736 31.283 40.4687C31.283 40.3906 31.2987 40.3213 31.3299 40.2607C31.3612 40.2002 31.4048 40.1445 31.4608 40.0937C31.5168 40.0423 31.5819 39.9912 31.6561 39.9404L32.0438 39.6855C32.0939 39.6536 32.1307 39.6201 32.1541 39.585C32.1776 39.5492 32.1893 39.5104 32.1893 39.4687C32.1893 39.429 32.1733 39.3923 32.1414 39.3584C32.1095 39.3245 32.0643 39.3079 32.0057 39.3086C31.9666 39.3086 31.9328 39.3174 31.9041 39.335C31.8755 39.3519 31.853 39.3743 31.8367 39.4023C31.8211 39.4297 31.8133 39.4603 31.8133 39.4941C31.8133 39.5358 31.825 39.5781 31.8485 39.6211C31.8719 39.6641 31.9031 39.7096 31.9422 39.7578C31.9813 39.8053 32.0239 39.8568 32.0701 39.9121L33.0184 41H32.5848L31.7938 40.1191C31.7417 40.0599 31.6896 39.998 31.6375 39.9336C31.5861 39.8685 31.5431 39.7995 31.5086 39.7266C31.4741 39.653 31.4569 39.5732 31.4569 39.4873C31.4569 39.3903 31.4793 39.3031 31.5242 39.2256C31.5698 39.1481 31.6336 39.0869 31.7156 39.042C31.7977 38.9964 31.8934 38.9736 32.0028 38.9736C32.1095 38.9736 32.2016 38.9954 32.2791 39.0391C32.3572 39.082 32.4171 39.1393 32.4588 39.2109C32.5011 39.2819 32.5223 39.36 32.5223 39.4453C32.5223 39.5397 32.4988 39.6253 32.452 39.7021C32.4057 39.7783 32.3406 39.8467 32.2567 39.9072L31.8485 40.2012C31.7931 40.2415 31.7521 40.2829 31.7254 40.3252C31.6994 40.3669 31.6863 40.4069 31.6863 40.4453C31.6863 40.4928 31.6981 40.5355 31.7215 40.5732C31.7449 40.611 31.7781 40.641 31.8211 40.6631C31.8641 40.6846 31.9145 40.6953 31.9725 40.6953C32.0428 40.6953 32.1121 40.6794 32.1805 40.6475C32.2495 40.6149 32.312 40.569 32.368 40.5098C32.4246 40.4499 32.4699 40.3789 32.5037 40.2969C32.5376 40.2148 32.5545 40.124 32.5545 40.0244H32.8992C32.8992 40.1468 32.8859 40.2572 32.8592 40.3555C32.8325 40.4531 32.7954 40.5384 32.7479 40.6113C32.7003 40.6836 32.646 40.7428 32.5848 40.7891C32.5653 40.8014 32.5464 40.8132 32.5281 40.8242C32.5099 40.8353 32.491 40.847 32.4715 40.8594C32.3973 40.9193 32.3143 40.9626 32.2225 40.9893C32.1313 41.016 32.0412 41.0293 31.952 41.0293ZM33.8698 39.3486V39H35.5124V39.3486H34.9001V41H34.4821V39.3486H33.8698ZM35.9383 41H35.4851L36.1756 39H36.7205L37.4099 41H36.9568L36.4558 39.457H36.4402L35.9383 41ZM35.9099 40.2139H36.9803V40.5439H35.9099V40.2139ZM37.7057 41V39H38.1285V39.8818H38.1549L38.8746 39H39.3814L38.6393 39.8955L39.3902 41H38.8844L38.3365 40.1777L38.1285 40.4316V41H37.7057ZM39.6567 41V39H41.0043V39.3486H40.0795V39.8252H40.935V40.1738H40.0795V40.6514H41.0082V41H39.6567ZM41.7402 41H41.2871L41.9775 39H42.5225L43.2119 41H42.7588L42.2578 39.457H42.2422L41.7402 41ZM41.7119 40.2139H42.7822V40.5439H41.7119V40.2139ZM43.7564 41L43.1841 39H43.6461L43.9771 40.3896H43.9937L44.3589 39H44.7545L45.1187 40.3926H45.1363L45.4673 39H45.9293L45.357 41H44.9449L44.564 39.6924H44.5484L44.1685 41H43.7564ZM46.3539 41H45.9008L46.5912 39H47.1361L47.8256 41H47.3724L46.8715 39.457H46.8558L46.3539 41ZM46.3256 40.2139H47.3959V40.5439H46.3256V40.2139ZM47.8 39H48.2736L48.7297 39.8613H48.7492L49.2053 39H49.6789L48.9494 40.293V41H48.5295V40.293L47.8 39Z" fill="white"/>
</g>
<defs>
<clipPath id="clip0_1050_11911">
<rect width="60" height="60" fill="white"/>
</clipPath>
</defs>
</svg>
