<svg width="16" height="12" viewBox="0 0 16 12" fill="none" xmlns="http://www.w3.org/2000/svg">
<g clip-path="url(#clip0_280_9393)">
<mask id="mask0_280_9393" style="mask-type:luminance" maskUnits="userSpaceOnUse" x="0" y="0" width="16" height="12">
<rect width="16" height="12" fill="white"/>
</mask>
<g mask="url(#mask0_280_9393)">
<path fill-rule="evenodd" clip-rule="evenodd" d="M0 0V12H16V0H0Z" fill="#FFB400"/>
<mask id="mask1_280_9393" style="mask-type:luminance" maskUnits="userSpaceOnUse" x="0" y="0" width="16" height="12">
<path fill-rule="evenodd" clip-rule="evenodd" d="M0 0V12H16V0H0Z" fill="white"/>
</mask>
<g mask="url(#mask1_280_9393)">
<path fill-rule="evenodd" clip-rule="evenodd" d="M0 0V3H16V0H0Z" fill="#C51918"/>
<path fill-rule="evenodd" clip-rule="evenodd" d="M0 9V12H16V9H0Z" fill="#C51918"/>
<rect x="2.504" y="5.13599" width="0.56" height="2.912" fill="#F1F9FF"/>
<path fill-rule="evenodd" clip-rule="evenodd" d="M3.288 4.63196H2.28V4.91196H2.448V5.13596H3.12V4.91196H3.288V4.63196Z" fill="#C88A02"/>
<path fill-rule="evenodd" clip-rule="evenodd" d="M3.12 8.21594H3.288V8.49594H2.28V8.21594H2.448V7.99194H3.12V8.21594Z" fill="#C88A02"/>
<path fill-rule="evenodd" clip-rule="evenodd" d="M2.784 4.68796C2.90586 4.68796 2.91825 4.64207 2.99015 4.57354C3.04598 4.52032 3.176 4.45431 3.176 4.37996C3.176 4.20986 3.00049 4.07196 2.784 4.07196C2.5675 4.07196 2.392 4.20986 2.392 4.37996C2.392 4.46279 2.48154 4.51818 2.54924 4.57354C2.62057 4.63185 2.67293 4.68796 2.784 4.68796Z" fill="#AD1619"/>
<path fill-rule="evenodd" clip-rule="evenodd" d="M2.28 8.49597H3.288V8.94397C3.288 8.94397 3.162 8.88797 3.036 8.88797C2.91 8.88797 2.784 8.94397 2.784 8.94397C2.784 8.94397 2.658 8.88797 2.532 8.88797C2.406 8.88797 2.28 8.94397 2.28 8.94397V8.49597Z" fill="#005BBF"/>
<mask id="mask2_280_9393" style="mask-type:luminance" maskUnits="userSpaceOnUse" x="2" y="8" width="2" height="1">
<path fill-rule="evenodd" clip-rule="evenodd" d="M2.28 8.49597H3.288V8.94397C3.288 8.94397 3.162 8.88797 3.036 8.88797C2.91 8.88797 2.784 8.94397 2.784 8.94397C2.784 8.94397 2.658 8.88797 2.532 8.88797C2.406 8.88797 2.28 8.94397 2.28 8.94397V8.49597Z" fill="white"/>
</mask>
<g mask="url(#mask2_280_9393)">
</g>
<rect x="7.992" y="5.13599" width="0.56" height="2.912" fill="#F1F9FF"/>
<path fill-rule="evenodd" clip-rule="evenodd" d="M8.77601 4.63196H7.76801V4.91196H7.93601V5.13596H8.60801V4.91196H8.77601V4.63196Z" fill="#C88A02"/>
<path fill-rule="evenodd" clip-rule="evenodd" d="M8.60801 8.21594H8.77601V8.49594H7.76801V8.21594H7.93601V7.99194H8.60801V8.21594Z" fill="#C88A02"/>
<path fill-rule="evenodd" clip-rule="evenodd" d="M8.272 4.68796C8.39387 4.68796 8.40626 4.64207 8.47815 4.57354C8.53398 4.52032 8.664 4.45431 8.664 4.37996C8.664 4.20986 8.4885 4.07196 8.272 4.07196C8.05551 4.07196 7.88 4.20986 7.88 4.37996C7.88 4.46279 7.96954 4.51818 8.03725 4.57354C8.10857 4.63185 8.16093 4.68796 8.272 4.68796Z" fill="#AD1619"/>
<path fill-rule="evenodd" clip-rule="evenodd" d="M7.76801 8.49597H8.77601V8.94397C8.77601 8.94397 8.65001 8.88797 8.52401 8.88797C8.39801 8.88797 8.27201 8.94397 8.27201 8.94397C8.27201 8.94397 8.14601 8.88797 8.02001 8.88797C7.89401 8.88797 7.76801 8.94397 7.76801 8.94397V8.49597Z" fill="#005BBF"/>
<mask id="mask3_280_9393" style="mask-type:luminance" maskUnits="userSpaceOnUse" x="7" y="8" width="2" height="1">
<path fill-rule="evenodd" clip-rule="evenodd" d="M7.76801 8.49597H8.77601V8.94397C8.77601 8.94397 8.65001 8.88797 8.52401 8.88797C8.39801 8.88797 8.27201 8.94397 8.27201 8.94397C8.27201 8.94397 8.14601 8.88797 8.02001 8.88797C7.89401 8.88797 7.76801 8.94397 7.76801 8.94397V8.49597Z" fill="white"/>
</mask>
<g mask="url(#mask3_280_9393)">
</g>
<path fill-rule="evenodd" clip-rule="evenodd" d="M2.49397 7.83994C2.59493 7.71754 2.65139 7.60618 2.65139 7.48791C2.65139 7.41334 2.6292 7.34893 2.59032 7.29631L2.59689 7.29336C2.59629 7.29363 2.70765 7.24509 2.74642 7.22649C2.8185 7.19194 2.882 7.15533 2.94391 7.11031C2.98343 7.08156 3.03639 7.05025 3.11712 7.0069L3.21347 6.95568C3.25271 6.93474 3.28193 6.9187 3.30907 6.90295C3.39365 6.85389 3.44955 6.81334 3.4923 6.75912C3.59356 6.63072 3.57254 6.45666 3.43064 6.36005C3.36112 6.31272 3.26731 6.28556 3.1298 6.26418L2.93312 6.23369C2.86731 6.22336 2.8086 6.21372 2.75624 6.20457C3.10052 6.14728 3.59214 6.16834 3.80839 6.27999L4.01392 5.88192C3.57325 5.65439 2.56918 5.67763 2.19412 5.93592C1.91902 6.12538 1.95593 6.41176 2.24216 6.53508C2.36176 6.58661 2.51767 6.6208 2.8062 6.66715C2.75785 6.6952 2.71776 6.72083 2.68041 6.74799C2.64253 6.77553 2.60195 6.79893 2.55273 6.82253C2.52919 6.83382 2.45949 6.86442 2.42753 6.87845L2.42751 6.87846L2.42751 6.87847L2.41145 6.88554C2.17831 6.99155 2.06516 7.1382 2.09897 7.40293L2.11727 7.54624L2.1501 7.55632L2.49397 7.83994ZM2.20578 7.4696L2.20507 7.47166L2.20561 7.4702L2.20578 7.4696ZM8.35297 7.48791C8.35297 7.60618 8.40943 7.71754 8.51039 7.83994L8.85425 7.55632L8.88709 7.54624L8.90539 7.40293C8.9392 7.1382 8.82605 6.99155 8.59291 6.88554L8.57685 6.87846C8.5449 6.86444 8.47518 6.83382 8.45163 6.82253C8.40241 6.79893 8.36182 6.77553 8.32395 6.74799C8.2866 6.72083 8.24651 6.6952 8.19816 6.66715C8.48668 6.6208 8.6426 6.58661 8.7622 6.53508C9.04843 6.41176 9.08534 6.12538 8.81024 5.93592C8.43518 5.67763 7.43111 5.65439 6.99044 5.88192L7.19597 6.27999C7.41222 6.16834 7.90384 6.14728 8.24812 6.20457C8.19576 6.21372 8.13705 6.22336 8.07124 6.23369L7.87456 6.26418C7.73705 6.28556 7.64324 6.31272 7.57372 6.36005C7.43182 6.45666 7.4108 6.63072 7.51206 6.75912C7.55481 6.81334 7.6107 6.85389 7.69529 6.90295C7.72243 6.9187 7.75165 6.93474 7.79089 6.95568L7.88724 7.0069C7.96797 7.05025 8.02093 7.08156 8.06045 7.11031C8.12236 7.15533 8.18586 7.19194 8.25794 7.22649C8.29671 7.24509 8.40807 7.29363 8.40747 7.29336L8.41404 7.29631C8.37516 7.34893 8.35297 7.41334 8.35297 7.48791Z" fill="#AD1619"/>
<path d="M2.96168 6.19995L3.12697 6.23415V6.48052C2.95092 6.62098 2.504 6.85773 2.504 6.85773V6.19995H2.96168Z" fill="#F1F9FF"/>
<path d="M8.15728 6.19995L7.99199 6.23415V6.48052C8.16804 6.62098 8.61496 6.85773 8.61496 6.85773V6.19995H8.15728Z" fill="#F1F9FF"/>
<path fill-rule="evenodd" clip-rule="evenodd" d="M7.38801 3.60295V3.52096C7.09997 3.31424 6.79833 3.21088 6.4831 3.21088C6.18088 3.07714 5.87499 3.02523 5.5654 3.05514C5.56549 3.05418 5.56553 3.0537 5.56553 3.0537C5.10004 3.00815 4.63093 3.21088 4.63093 3.21088C4.15807 3.21088 3.72601 3.52096 3.72601 3.52096V3.60295L4.29083 4.17022C4.29083 4.17022 4.44975 4.71602 5.56264 4.58796C5.56303 4.58883 5.56323 4.58928 5.56323 4.58928C5.56323 4.58928 6.30041 4.56915 6.3522 4.55193C6.37276 4.54509 6.39407 4.53887 6.41585 4.53251C6.56024 4.49035 6.72508 4.44223 6.82319 4.17022L7.38801 3.60295ZM5.56287 3.08447C5.56054 3.11198 5.55685 3.15678 5.55248 3.21405C5.55802 3.17301 5.56174 3.12995 5.56287 3.08447Z" fill="#AD1619"/>
<path fill-rule="evenodd" clip-rule="evenodd" d="M3.75989 3.69917L3.79826 3.65839L4.31111 4.14089C4.40846 4.11471 4.93687 3.98006 5.52711 3.97343V3.97318L5.54957 3.97324L5.57202 3.97318V3.97343C6.22597 3.98077 6.80402 4.14527 6.80402 4.14527C6.80402 4.14527 6.79783 4.19835 6.78278 4.26074C6.79871 4.22808 6.81758 4.19178 6.8394 4.15172L6.8448 4.14472L7.36172 3.65839L7.40009 3.69917L6.88644 4.18243C6.8115 4.32044 6.77376 4.41154 6.77376 4.44938C6.77376 4.50711 6.62357 4.54137 6.33044 4.57657C6.1008 4.60414 5.82978 4.62265 5.60809 4.62541V4.62577L5.57999 4.62568L5.55189 4.62577V4.62541C5.3302 4.62265 5.05918 4.60414 4.82954 4.57657C4.53641 4.54137 4.38622 4.50711 4.38622 4.44938C4.38622 4.44222 4.38487 4.43316 4.38217 4.42223C4.35261 4.38459 4.33183 4.32301 4.318 4.26746C4.30502 4.24148 4.2902 4.21312 4.27354 4.18243L3.75989 3.69917ZM6.62653 4.45048C6.66576 4.46884 6.69721 4.45052 6.72208 4.41536C6.71993 4.42507 6.71858 4.43385 6.71804 4.44171C6.71476 4.44387 6.70972 4.44645 6.70311 4.44923C6.68466 4.45699 6.65649 4.46525 6.61985 4.47361C6.54781 4.49004 6.44528 4.50638 6.32376 4.52097C6.08647 4.54946 5.80431 4.56821 5.57999 4.56968C5.35567 4.56821 5.07351 4.54946 4.83622 4.52097C4.7147 4.50638 4.61217 4.49004 4.54014 4.47361C4.50942 4.4666 4.48465 4.45966 4.46658 4.45303L4.47261 4.45048C4.59495 4.39323 5.40389 4.33952 5.54957 4.33025C5.69525 4.33952 6.50419 4.39323 6.62653 4.45048ZM6.7808 4.44022L6.77995 4.4412L6.78046 4.44049L6.7808 4.44022Z" fill="#C88A02"/>
<path fill-rule="evenodd" clip-rule="evenodd" d="M5.55612 2.67352C5.64891 2.67352 5.72412 2.59831 5.72412 2.50552C5.72412 2.41274 5.64891 2.33752 5.55612 2.33752C5.46334 2.33752 5.38812 2.41274 5.38812 2.50552C5.38812 2.59831 5.46334 2.67352 5.55612 2.67352Z" fill="#005BBF"/>
<path fill-rule="evenodd" clip-rule="evenodd" d="M5.49343 2.03827H5.6101V2.11197H5.68633V2.22864H5.6101V2.46197H5.68633V2.57864H5.41602V2.46197H5.49343V2.22864H5.41602V2.11197H5.49343V2.03827Z" fill="#C88A02"/>
<rect x="5.47202" y="2.672" width="0.224" height="0.728" fill="#C88A02"/>
<path d="M3.85388 3.64843L3.54626 3.63686C3.6914 2.79807 4.40619 2.38708 5.5484 2.38708C6.69209 2.38708 7.40435 2.79985 7.53857 3.64176L7.12253 3.6854C7.05721 3.2757 6.37098 2.90493 5.55441 2.90493C4.73636 2.90493 3.92531 3.23561 3.85388 3.64843Z" fill="#C88A02"/>
<path opacity="0.3" fill-rule="evenodd" clip-rule="evenodd" d="M3.73599 4.63196H7.37599V7.90237C7.37599 7.90237 7.1056 8.99996 5.55599 8.99996C4.00638 8.99996 3.73599 7.87343 3.73599 7.87343V4.63196Z" fill="#E1E5E8"/>
<mask id="mask4_280_9393" style="mask-type:luminance" maskUnits="userSpaceOnUse" x="3" y="4" width="5" height="5">
<path fill-rule="evenodd" clip-rule="evenodd" d="M3.73599 4.63196H7.37599V7.90237C7.37599 7.90237 7.1056 8.99996 5.55599 8.99996C4.00638 8.99996 3.73599 7.87343 3.73599 7.87343V4.63196Z" fill="white"/>
</mask>
<g mask="url(#mask4_280_9393)">
<rect x="3.73599" y="6.64795" width="1.848" height="2.184" fill="#FFC034"/>
<rect x="3.73599" y="4.57593" width="1.848" height="2.128" fill="#AD1619"/>
<rect x="5.52798" y="6.59198" width="1.848" height="2.128" fill="#AD1619"/>
<rect x="5.52798" y="4.63196" width="1.96" height="2.072" fill="#F1F9FF"/>
<path fill-rule="evenodd" clip-rule="evenodd" d="M6.74136 8.72129C6.74136 8.72129 5.55526 8.81454 5.55526 8.04956C5.55526 8.04956 5.54395 8.72129 4.30545 8.72129V9.3252H6.74136V8.72129Z" fill="#F1F9FF"/>
<path fill-rule="evenodd" clip-rule="evenodd" d="M5.55599 7.09595C5.78795 7.09595 5.97599 6.89537 5.97599 6.64795C5.97599 6.40053 5.78795 6.19995 5.55599 6.19995C5.32403 6.19995 5.13599 6.40053 5.13599 6.64795C5.13599 6.89537 5.32403 7.09595 5.55599 7.09595Z" fill="#005BBF" stroke="#AD1619" stroke-width="0.583333"/>
</g>
<path fill-rule="evenodd" clip-rule="evenodd" d="M4.5 6C4.77614 6 5 5.77614 5 5.5C5 5.22386 4.77614 5 4.5 5C4.22386 5 4 5.22386 4 5.5C4 5.77614 4.22386 6 4.5 6Z" fill="#C88A02"/>
<path fill-rule="evenodd" clip-rule="evenodd" d="M6.5 6C6.77614 6 7 5.77614 7 5.5C7 5.22386 6.77614 5 6.5 5C6.22386 5 6 5.22386 6 5.5C6 5.77614 6.22386 6 6.5 6Z" fill="#C37C9C"/>
<path fill-rule="evenodd" clip-rule="evenodd" d="M6.5 8C6.77614 8 7 7.77614 7 7.5C7 7.22386 6.77614 7 6.5 7C6.22386 7 6 7.22386 6 7.5C6 7.77614 6.22386 8 6.5 8Z" fill="#FFC034"/>
<path d="M4.5 8C4.77614 8 5 7.77614 5 7.5C5 7.22386 4.77614 7 4.5 7C4.22386 7 4 7.22386 4 7.5C4 7.77614 4.22386 8 4.5 8Z" fill="#AD1619"/>
</g>
</g>
</g>
<defs>
<clipPath id="clip0_280_9393">
<rect width="16" height="12" rx="1" fill="white"/>
</clipPath>
</defs>
</svg>
