<svg width="49" height="34" viewBox="0 0 49 34" fill="none" xmlns="http://www.w3.org/2000/svg">
<path d="M9.48952 33.5515C6.17922 33.5515 3.75167 32.8159 2.20686 31.3446C0.735622 29.7998 0 27.8872 0 25.6068V23.2896C0 21.1563 0.294249 19.023 0.882746 16.8897C1.54481 14.6828 2.39077 12.5863 3.42064 10.6001C4.52407 8.61395 5.81141 6.77489 7.28265 5.08296C8.7539 3.31747 10.3355 1.77266 12.0274 0.448547H22.2893C19.8618 2.65541 17.7653 4.89905 15.9998 7.17948C14.3078 9.45991 13.0205 11.9978 12.1378 14.7932C14.4917 15.2345 16.2205 16.2276 17.3239 17.7724C18.4273 19.2437 18.979 20.9356 18.979 22.8482V25.6068C18.979 27.8872 18.2066 29.7998 16.6618 31.3446C15.1906 32.8159 12.7998 33.5515 9.48952 33.5515ZM35.4202 33.5515C32.1099 33.5515 29.6823 32.8159 28.1375 31.3446C26.6663 29.7998 25.9307 27.8872 25.9307 25.6068V23.2896C25.9307 21.1563 26.2249 19.023 26.8134 16.8897C27.4755 14.6828 28.3214 12.5863 29.3513 10.6001C30.4547 8.61395 31.7421 6.77489 33.2133 5.08296C34.6846 3.31747 36.2661 1.77266 37.9581 0.448547H48.22C45.7924 2.65541 43.6959 4.89905 41.9304 7.17948C40.2385 9.45991 38.9512 11.9978 38.0684 14.7932C40.4224 15.2345 42.1511 16.2276 43.2546 17.7724C44.358 19.2437 44.9097 20.9356 44.9097 22.8482V25.6068C44.9097 27.8872 44.1373 29.7998 42.5925 31.3446C41.1213 32.8159 38.7305 33.5515 35.4202 33.5515Z" fill="#D5DDF6"/>
</svg>
