<svg width="468" height="270" viewBox="0 0 468 270" fill="none" xmlns="http://www.w3.org/2000/svg">
<g opacity="0.3" clip-path="url(#clip0_1052_1068)">
<path d="M8.7738 -134.156H92.4303M8.7738 -134.156C4.39133 -134.156 0.838623 -137.641 0.838623 -141.94V-223.811C0.838623 -228.11 4.39132 -231.595 8.7738 -231.595H92.4303C96.8128 -231.595 100.366 -228.11 100.366 -223.811M8.7738 -134.156C4.39133 -134.156 0.838623 -130.671 0.838623 -126.371V-44.5007C0.838623 -40.2016 4.39133 -36.7165 8.7738 -36.7165M100.366 -141.94V-223.811M100.366 -141.94C100.366 -137.641 96.8128 -134.156 92.4303 -134.156M100.366 -141.94C100.366 -137.641 103.918 -134.156 108.301 -134.156M92.4303 -134.156C96.8128 -134.156 100.366 -130.671 100.366 -126.371M100.366 -223.811C100.366 -228.11 103.918 -231.595 108.301 -231.595H191.957C196.34 -231.595 199.892 -228.11 199.892 -223.811M108.301 -134.156H191.957M108.301 -134.156C103.918 -134.156 100.366 -130.671 100.366 -126.371M199.892 -141.94V-223.811M199.892 -141.94C199.892 -137.641 196.34 -134.156 191.957 -134.156M199.892 -141.94C199.892 -137.641 203.445 -134.156 207.828 -134.156M191.957 -134.156C196.34 -134.156 199.892 -130.671 199.892 -126.372M199.892 -223.811C199.892 -228.11 203.445 -231.595 207.828 -231.595H291.484C295.867 -231.595 299.419 -228.11 299.419 -223.811M207.828 -134.156H291.484M207.828 -134.156C203.445 -134.156 199.892 -130.671 199.892 -126.372M299.419 -141.94V-223.811M299.419 -141.94C299.419 -137.641 295.867 -134.156 291.484 -134.156M299.419 -141.94C299.419 -137.641 302.972 -134.156 307.354 -134.156M291.484 -134.156C295.867 -134.156 299.419 -130.671 299.419 -126.372M299.419 -223.811C299.419 -228.11 302.972 -231.595 307.354 -231.595H391.011C395.393 -231.595 398.946 -228.11 398.946 -223.811M307.354 -134.156H391.011M307.354 -134.156C302.972 -134.156 299.419 -130.671 299.419 -126.372M398.946 -141.94V-223.811M398.946 -141.94C398.946 -137.641 395.393 -134.156 391.011 -134.156M398.946 -141.94C398.946 -137.641 402.499 -134.156 406.881 -134.156M391.011 -134.156C395.393 -134.156 398.946 -130.671 398.946 -126.372M398.946 -223.811C398.946 -228.11 402.499 -231.595 406.881 -231.595H490.538C494.92 -231.595 498.473 -228.11 498.473 -223.811M406.881 -134.156H490.538M406.881 -134.156C402.499 -134.156 398.946 -130.671 398.946 -126.372M498.473 -141.94V-223.811M498.473 -141.94C498.473 -137.641 494.92 -134.156 490.538 -134.156M498.473 -141.94C498.473 -137.641 502.026 -134.156 506.408 -134.156M490.538 -134.156C494.92 -134.156 498.473 -130.671 498.473 -126.372M498.473 -223.811C498.473 -228.11 502.026 -231.595 506.408 -231.595H590.065C594.447 -231.595 598 -228.11 598 -223.811V-141.94C598 -137.641 594.447 -134.156 590.065 -134.156M506.408 -134.156H590.065M506.408 -134.156C502.026 -134.156 498.473 -130.671 498.473 -126.372M590.065 -134.156C594.447 -134.156 598 -130.671 598 -126.372V-44.5008C598 -40.2018 594.447 -36.7167 590.065 -36.7167M8.7738 -36.7165H92.4303M8.7738 -36.7165C4.39133 -36.7165 0.838623 -33.2318 0.838623 -28.9327V52.938C0.838623 57.2371 4.39133 60.7222 8.7738 60.7222M100.366 -44.5007V-126.371M100.366 -44.5007C100.366 -40.2016 96.8128 -36.7165 92.4303 -36.7165M100.366 -44.5007C100.366 -40.2016 103.918 -36.7167 108.301 -36.7167M92.4303 -36.7165C96.8128 -36.7165 100.366 -33.2318 100.366 -28.9327M108.301 -36.7167H191.957M108.301 -36.7167C103.918 -36.7167 100.366 -33.2318 100.366 -28.9327M199.892 -44.5008V-126.372M199.892 -44.5008C199.892 -40.2018 196.34 -36.7167 191.957 -36.7167M199.892 -44.5008C199.892 -40.2018 203.445 -36.7167 207.828 -36.7167M191.957 -36.7167C196.34 -36.7167 199.892 -33.2318 199.892 -28.9327M207.828 -36.7167H291.484M207.828 -36.7167C203.445 -36.7167 199.892 -33.2318 199.892 -28.9327M299.419 -44.5008V-126.372M299.419 -44.5008C299.419 -40.2018 295.867 -36.7167 291.484 -36.7167M299.419 -44.5008C299.419 -40.2018 302.972 -36.7167 307.354 -36.7167M291.484 -36.7167C295.867 -36.7167 299.419 -33.2318 299.419 -28.9327M307.354 -36.7167H391.011M307.354 -36.7167C302.972 -36.7167 299.419 -33.2318 299.419 -28.9327M398.946 -44.5008V-126.372M398.946 -44.5008C398.946 -40.2018 395.393 -36.7167 391.011 -36.7167M398.946 -44.5008C398.946 -40.2018 402.499 -36.7167 406.881 -36.7167M391.011 -36.7167C395.393 -36.7167 398.946 -33.2318 398.946 -28.9327M406.881 -36.7167H490.538M406.881 -36.7167C402.499 -36.7167 398.946 -33.2318 398.946 -28.9327M498.473 -44.5008V-126.372M498.473 -44.5008C498.473 -40.2018 494.92 -36.7167 490.538 -36.7167M498.473 -44.5008C498.473 -40.2018 502.026 -36.7167 506.408 -36.7167M490.538 -36.7167C494.92 -36.7167 498.473 -33.2318 498.473 -28.9327M506.408 -36.7167H590.065M506.408 -36.7167C502.026 -36.7167 498.473 -33.2318 498.473 -28.9327M590.065 -36.7167C594.447 -36.7167 598 -33.2318 598 -28.9327V52.938C598 57.2371 594.447 60.7222 590.065 60.7222M8.7738 60.7222H92.4303M8.7738 60.7222C4.39133 60.7222 0.838623 64.2075 0.838623 68.5066V150.377C0.838623 154.676 4.39133 158.161 8.7738 158.161M100.366 52.938V-28.9327M100.366 52.938C100.366 57.2371 96.8128 60.7222 92.4303 60.7222M100.366 52.938C100.366 57.2371 103.918 60.7222 108.301 60.7222M92.4303 60.7222C96.8128 60.7222 100.366 64.2075 100.366 68.5066M108.301 60.7222H191.957M108.301 60.7222C103.918 60.7222 100.366 64.2075 100.366 68.5066M199.892 52.938V-28.9327M199.892 52.938C199.892 57.2371 196.34 60.7222 191.957 60.7222M199.892 52.938C199.892 57.2371 203.445 60.7222 207.828 60.7222M191.957 60.7222C196.34 60.7222 199.892 64.2074 199.892 68.5065M207.828 60.7222H291.484M207.828 60.7222C203.445 60.7222 199.892 64.2074 199.892 68.5065M299.419 52.938V-28.9327M299.419 52.938C299.419 57.2371 295.867 60.7222 291.484 60.7222M299.419 52.938C299.419 57.2371 302.972 60.7222 307.354 60.7222M291.484 60.7222C295.867 60.7222 299.419 64.2074 299.419 68.5065M307.354 60.7222H391.011M307.354 60.7222C302.972 60.7222 299.419 64.2074 299.419 68.5065M398.946 52.938V-28.9327M398.946 52.938C398.946 57.2371 395.393 60.7222 391.011 60.7222M398.946 52.938C398.946 57.2371 402.499 60.7222 406.881 60.7222M391.011 60.7222C395.393 60.7222 398.946 64.2074 398.946 68.5065M406.881 60.7222H490.538M406.881 60.7222C402.499 60.7222 398.946 64.2074 398.946 68.5065M498.473 52.938V-28.9327M498.473 52.938C498.473 57.2371 494.92 60.7222 490.538 60.7222M498.473 52.938C498.473 57.2371 502.026 60.7222 506.408 60.7222M490.538 60.7222C494.92 60.7222 498.473 64.2074 498.473 68.5065M506.408 60.7222H590.065M506.408 60.7222C502.026 60.7222 498.473 64.2074 498.473 68.5065M590.065 60.7222C594.447 60.7222 598 64.2074 598 68.5065V150.377C598 154.676 594.447 158.161 590.065 158.161M8.7738 158.161H92.4303M8.7738 158.161C4.39133 158.161 0.838623 161.647 0.838623 165.946V247.817C0.838623 252.116 4.39133 255.601 8.7738 255.601M100.366 150.377V68.5066M100.366 150.377C100.366 154.676 96.8128 158.161 92.4303 158.161M100.366 150.377C100.366 154.676 103.918 158.161 108.301 158.161M92.4303 158.161C96.8128 158.161 100.366 161.647 100.366 165.946M108.301 158.161H191.957M108.301 158.161C103.918 158.161 100.366 161.647 100.366 165.946M199.892 150.377V68.5065M199.892 150.377C199.892 154.676 196.34 158.161 191.957 158.161M199.892 150.377C199.892 154.676 203.445 158.161 207.828 158.161M191.957 158.161C196.34 158.161 199.892 161.647 199.892 165.946M207.828 158.161H291.484M207.828 158.161C203.445 158.161 199.892 161.647 199.892 165.946M299.419 150.377V68.5065M299.419 150.377C299.419 154.676 295.867 158.161 291.484 158.161M299.419 150.377C299.419 154.676 302.972 158.161 307.354 158.161M291.484 158.161C295.867 158.161 299.419 161.647 299.419 165.946M307.354 158.161H391.011M307.354 158.161C302.972 158.161 299.419 161.647 299.419 165.946M398.946 150.377V68.5065M398.946 150.377C398.946 154.676 395.393 158.161 391.011 158.161M398.946 150.377C398.946 154.676 402.499 158.161 406.881 158.161M391.011 158.161C395.393 158.161 398.946 161.647 398.946 165.946M406.881 158.161H490.538M406.881 158.161C402.499 158.161 398.946 161.647 398.946 165.946M498.473 150.377V68.5065M498.473 150.377C498.473 154.676 494.92 158.161 490.538 158.161M498.473 150.377C498.473 154.676 502.026 158.161 506.408 158.161M490.538 158.161C494.92 158.161 498.473 161.647 498.473 165.946M506.408 158.161H590.065M506.408 158.161C502.026 158.161 498.473 161.647 498.473 165.946M590.065 158.161C594.447 158.161 598 161.647 598 165.946V247.817C598 252.116 594.447 255.601 590.065 255.601M8.7738 255.601H92.4303M8.7738 255.601C4.39133 255.601 0.838623 259.085 0.838623 263.385V345.255C0.838623 349.554 4.39133 353.039 8.7738 353.039M100.366 247.817V165.946M100.366 247.817C100.366 252.116 96.8128 255.601 92.4303 255.601M100.366 247.817C100.366 252.116 103.918 255.601 108.301 255.601M92.4303 255.601C96.8128 255.601 100.366 259.085 100.366 263.385M108.301 255.601H191.957M108.301 255.601C103.918 255.601 100.366 259.085 100.366 263.385M199.892 247.817V165.946M199.892 247.817C199.892 252.116 196.34 255.601 191.957 255.601M199.892 247.817C199.892 252.116 203.445 255.601 207.828 255.601M191.957 255.601C196.34 255.601 199.892 259.085 199.892 263.385M207.828 255.601H291.484M207.828 255.601C203.445 255.601 199.892 259.085 199.892 263.385M299.419 247.817V165.946M299.419 247.817C299.419 252.116 295.867 255.601 291.484 255.601M299.419 247.817C299.419 252.116 302.972 255.601 307.354 255.601M291.484 255.601C295.867 255.601 299.419 259.085 299.419 263.385M307.354 255.601H391.011M307.354 255.601C302.972 255.601 299.419 259.085 299.419 263.385M398.946 247.817V165.946M398.946 247.817C398.946 252.116 395.393 255.601 391.011 255.601M398.946 247.817C398.946 252.116 402.499 255.601 406.881 255.601M391.011 255.601C395.393 255.601 398.946 259.085 398.946 263.385M406.881 255.601H490.538M406.881 255.601C402.499 255.601 398.946 259.085 398.946 263.385M498.473 247.817V165.946M498.473 247.817C498.473 252.116 494.92 255.601 490.538 255.601M498.473 247.817C498.473 252.116 502.026 255.601 506.408 255.601M490.538 255.601C494.92 255.601 498.473 259.085 498.473 263.385M506.408 255.601H590.065M506.408 255.601C502.026 255.601 498.473 259.085 498.473 263.385M590.065 255.601C594.447 255.601 598 259.085 598 263.385V345.255C598 349.554 594.447 353.039 590.065 353.039M8.7738 353.039H92.4303M8.7738 353.039C4.39133 353.039 0.838623 356.525 0.838623 360.824V442.695C0.838623 446.994 4.39133 450.479 8.7738 450.479H92.4303C96.8128 450.479 100.366 446.994 100.366 442.695M100.366 345.255V263.385M100.366 345.255C100.366 349.554 96.8128 353.039 92.4303 353.039M100.366 345.255C100.366 349.554 103.918 353.039 108.301 353.039M92.4303 353.039C96.8128 353.039 100.366 356.525 100.366 360.824M108.301 353.039H191.957M108.301 353.039C103.918 353.039 100.366 356.525 100.366 360.824M199.892 345.255V263.385M199.892 345.255C199.892 349.554 196.34 353.039 191.957 353.039M199.892 345.255C199.892 349.554 203.445 353.039 207.828 353.039M191.957 353.039C196.34 353.039 199.892 356.525 199.892 360.824M207.828 353.039H291.484M207.828 353.039C203.445 353.039 199.892 356.525 199.892 360.824M299.419 345.255V263.385M299.419 345.255C299.419 349.554 295.867 353.039 291.484 353.039M299.419 345.255C299.419 349.554 302.972 353.039 307.354 353.039M291.484 353.039C295.867 353.039 299.419 356.525 299.419 360.824M307.354 353.039H391.011M307.354 353.039C302.972 353.039 299.419 356.525 299.419 360.824M398.946 345.255V263.385M398.946 345.255C398.946 349.554 395.393 353.039 391.011 353.039M398.946 345.255C398.946 349.554 402.499 353.039 406.881 353.039M391.011 353.039C395.393 353.039 398.946 356.525 398.946 360.824M406.881 353.039H490.538M406.881 353.039C402.499 353.039 398.946 356.525 398.946 360.824M498.473 345.255V263.385M498.473 345.255C498.473 349.554 494.92 353.039 490.538 353.039M498.473 345.255C498.473 349.554 502.026 353.039 506.408 353.039M490.538 353.039C494.92 353.039 498.473 356.525 498.473 360.824M506.408 353.039H590.065M506.408 353.039C502.026 353.039 498.473 356.525 498.473 360.824M590.065 353.039C594.447 353.039 598 356.525 598 360.824V442.695C598 446.994 594.447 450.479 590.065 450.479H506.408C502.026 450.479 498.473 446.994 498.473 442.695M100.366 442.695V360.824M100.366 442.695C100.366 446.994 103.918 450.479 108.301 450.479H191.957C196.34 450.479 199.892 446.994 199.892 442.695M199.892 442.695V360.824M199.892 442.695C199.892 446.994 203.445 450.479 207.828 450.479H291.484C295.867 450.479 299.419 446.994 299.419 442.695M299.419 442.695V360.824M299.419 442.695C299.419 446.994 302.972 450.479 307.354 450.479H391.011C395.393 450.479 398.946 446.994 398.946 442.695M398.946 442.695V360.824M398.946 442.695C398.946 446.994 402.499 450.479 406.881 450.479H490.538C494.92 450.479 498.473 446.994 498.473 442.695M498.473 442.695V360.824" stroke="#A8ABBD" stroke-width="0.431035"/>
<path d="M100.366 -223.726V-145.103C100.366 -139.165 105.282 -134.351 111.348 -134.351H188.91C194.975 -134.351 199.892 -129.537 199.892 -123.599V-47.6637C199.892 -41.7255 204.809 -36.9118 210.875 -36.9118H288.437C294.502 -36.9118 299.419 -32.098 299.419 -26.1599V49.7755C299.419 55.7136 304.336 60.5274 310.402 60.5274H387.964C394.029 60.5274 398.946 65.3412 398.946 71.2793V147.215C398.946 153.153 403.863 157.966 409.928 157.966H490.236M0.838623 -223.726V-145.103C0.838623 -139.165 5.75556 -134.351 11.8209 -134.351H89.3832C95.4486 -134.351 100.366 -129.537 100.366 -123.599V-47.6637C100.366 -41.7255 105.282 -36.9118 111.348 -36.9118H188.91C194.975 -36.9118 199.892 -32.098 199.892 -26.1599V49.7755C199.892 55.7136 194.975 60.5274 188.91 60.5274H111.348C105.282 60.5274 100.366 55.7136 100.366 49.7755V-27.5038L100.269 -28.1389C99.5325 -33.0088 95.3102 -36.6451 90.2826 -36.7397L81.1465 -36.9118H11.8209C5.75556 -36.9118 0.838623 -32.098 0.838623 -26.1599V49.7755C0.838623 55.7136 5.75556 60.5274 11.8209 60.5274H90.0696L92.6767 60.6975C97.0034 60.9799 100.366 64.4982 100.366 68.7436V76.9912M100.366 68.5913V147.215C100.366 153.153 105.282 157.966 111.348 157.966H188.91C194.975 157.966 199.892 162.78 199.892 168.718V244.654C199.892 250.592 204.809 255.406 210.875 255.406H288.437C294.502 255.406 299.419 260.219 299.419 266.157V342.093C299.419 348.031 304.336 352.845 310.402 352.845H387.964C394.029 352.845 398.946 357.658 398.946 363.597V439.532C398.946 445.47 403.863 450.284 409.928 450.284H490.236" stroke="#597CF3"/>
</g>
<defs>
<clipPath id="clip0_1052_1068">
<rect width="468" height="602" fill="white" transform="translate(0 -166)"/>
</clipPath>
</defs>
</svg>
