<svg width="558" height="650" viewBox="0 0 558 650" fill="none" xmlns="http://www.w3.org/2000/svg">
<g opacity="0.3" clip-path="url(#clip0_4036_514)">
<path d="M10.4612 34.3832H110.205M10.4612 34.3832C5.23592 34.3832 1 30.6203 1 25.9784V-62.4202C1 -67.0621 5.23591 -70.8251 10.4612 -70.8251H110.205C115.431 -70.8251 119.667 -67.0621 119.667 -62.4202M10.4612 34.3832C5.23592 34.3832 1 38.1464 1 42.7883V131.187C1 135.829 5.23592 139.592 10.4612 139.592M119.667 25.9784V-62.4202M119.667 25.9784C119.667 30.6203 115.431 34.3832 110.205 34.3832M119.667 25.9784C119.667 30.6203 123.903 34.3832 129.128 34.3832M110.205 34.3832C115.431 34.3832 119.667 38.1464 119.667 42.7883M119.667 -62.4202C119.667 -67.0621 123.903 -70.8251 129.128 -70.8251H228.872C234.097 -70.8251 238.333 -67.0621 238.333 -62.4202M129.128 34.3832H228.872M129.128 34.3832C123.903 34.3832 119.667 38.1464 119.667 42.7883M238.333 25.9784V-62.4202M238.333 25.9784C238.333 30.6203 234.097 34.3832 228.872 34.3832M238.333 25.9784C238.333 30.6203 242.569 34.3832 247.795 34.3832M228.872 34.3832C234.097 34.3832 238.333 38.1463 238.333 42.7882M238.333 -62.4202C238.333 -67.0621 242.569 -70.8251 247.794 -70.8251H347.539C352.764 -70.8251 357 -67.0621 357 -62.4202M247.795 34.3832H347.539M247.795 34.3832C242.569 34.3832 238.333 38.1463 238.333 42.7882M357 25.9784V-62.4202M357 25.9784C357 30.6203 352.764 34.3832 347.539 34.3832M357 25.9784C357 30.6203 361.236 34.3832 366.461 34.3832M347.539 34.3832C352.764 34.3832 357 38.1463 357 42.7882M357 -62.4202C357 -67.0621 361.236 -70.8251 366.461 -70.8251H466.205C471.431 -70.8251 475.667 -67.0621 475.667 -62.4202M366.461 34.3832H466.205M366.461 34.3832C361.236 34.3832 357 38.1463 357 42.7882M475.667 25.9784V-62.4202M475.667 25.9784C475.667 30.6203 471.431 34.3832 466.205 34.3832M475.667 25.9784C475.667 30.6203 479.903 34.3832 485.128 34.3832M466.205 34.3832C471.431 34.3832 475.667 38.1463 475.667 42.7882M475.667 -62.4202C475.667 -67.0621 479.903 -70.8251 485.128 -70.8251H584.872C590.097 -70.8251 594.333 -67.0621 594.333 -62.4202M485.128 34.3832H584.872M485.128 34.3832C479.903 34.3832 475.667 38.1463 475.667 42.7882M594.333 25.9784V-62.4202M594.333 25.9784C594.333 30.6203 590.097 34.3832 584.872 34.3832M594.333 25.9784C594.333 30.6203 598.569 34.3832 603.795 34.3832M584.872 34.3832C590.097 34.3832 594.333 38.1463 594.333 42.7882M594.333 -62.4202C594.333 -67.0621 598.569 -70.8251 603.794 -70.8251H703.539C708.764 -70.8251 713 -67.0621 713 -62.4202V25.9784C713 30.6203 708.764 34.3832 703.539 34.3832M603.795 34.3832H703.539M603.795 34.3832C598.569 34.3832 594.333 38.1463 594.333 42.7882M703.539 34.3832C708.764 34.3832 713 38.1463 713 42.7882V131.187C713 135.829 708.764 139.592 703.539 139.592M10.4612 139.592H110.205M10.4612 139.592C5.23592 139.592 1 143.354 1 147.996V236.395C1 241.037 5.23592 244.8 10.4612 244.8M119.667 131.187V42.7883M119.667 131.187C119.667 135.829 115.431 139.592 110.205 139.592M119.667 131.187C119.667 135.829 123.903 139.592 129.128 139.592M110.205 139.592C115.431 139.592 119.667 143.354 119.667 147.996M129.128 139.592H228.872M129.128 139.592C123.903 139.592 119.667 143.354 119.667 147.996M238.333 131.187V42.7882M238.333 131.187C238.333 135.829 234.097 139.592 228.872 139.592M238.333 131.187C238.333 135.829 242.569 139.592 247.795 139.592M228.872 139.592C234.097 139.592 238.333 143.354 238.333 147.996M247.795 139.592H347.539M247.795 139.592C242.569 139.592 238.333 143.354 238.333 147.996M357 131.187V42.7882M357 131.187C357 135.829 352.764 139.592 347.539 139.592M357 131.187C357 135.829 361.236 139.592 366.461 139.592M347.539 139.592C352.764 139.592 357 143.354 357 147.996M366.461 139.592H466.205M366.461 139.592C361.236 139.592 357 143.354 357 147.996M475.667 131.187V42.7882M475.667 131.187C475.667 135.829 471.431 139.592 466.205 139.592M475.667 131.187C475.667 135.829 479.903 139.592 485.128 139.592M466.205 139.592C471.431 139.592 475.667 143.354 475.667 147.996M485.128 139.592H584.872M485.128 139.592C479.903 139.592 475.667 143.354 475.667 147.996M594.333 131.187V42.7882M594.333 131.187C594.333 135.829 590.097 139.592 584.872 139.592M594.333 131.187C594.333 135.829 598.569 139.592 603.795 139.592M584.872 139.592C590.097 139.592 594.333 143.354 594.333 147.996M603.795 139.592H703.539M603.795 139.592C598.569 139.592 594.333 143.354 594.333 147.996M703.539 139.592C708.764 139.592 713 143.354 713 147.996V236.395C713 241.037 708.764 244.8 703.539 244.8M10.4612 244.8H110.205M10.4612 244.8C5.23592 244.8 1 248.563 1 253.205V341.603C1 346.245 5.23592 350.008 10.4612 350.008M119.667 236.395V147.996M119.667 236.395C119.667 241.037 115.431 244.8 110.205 244.8M119.667 236.395C119.667 241.037 123.903 244.8 129.128 244.8M110.205 244.8C115.431 244.8 119.667 248.563 119.667 253.205M129.128 244.8H228.872M129.128 244.8C123.903 244.8 119.667 248.563 119.667 253.205M238.333 236.395V147.996M238.333 236.395C238.333 241.037 234.097 244.8 228.872 244.8M238.333 236.395C238.333 241.037 242.569 244.8 247.795 244.8M228.872 244.8C234.097 244.8 238.333 248.563 238.333 253.205M247.795 244.8H347.539M247.795 244.8C242.569 244.8 238.333 248.563 238.333 253.205M357 236.395V147.996M357 236.395C357 241.037 352.764 244.8 347.539 244.8M357 236.395C357 241.037 361.236 244.8 366.461 244.8M347.539 244.8C352.764 244.8 357 248.563 357 253.205M366.461 244.8H466.205M366.461 244.8C361.236 244.8 357 248.563 357 253.205M475.667 236.395V147.996M475.667 236.395C475.667 241.037 471.431 244.8 466.205 244.8M475.667 236.395C475.667 241.037 479.903 244.8 485.128 244.8M466.205 244.8C471.431 244.8 475.667 248.563 475.667 253.205M485.128 244.8H584.872M485.128 244.8C479.903 244.8 475.667 248.563 475.667 253.205M594.333 236.395V147.996M594.333 236.395C594.333 241.037 590.097 244.8 584.872 244.8M594.333 236.395C594.333 241.037 598.569 244.8 603.795 244.8M584.872 244.8C590.097 244.8 594.333 248.563 594.333 253.205M603.795 244.8H703.539M603.795 244.8C598.569 244.8 594.333 248.563 594.333 253.205M703.539 244.8C708.764 244.8 713 248.563 713 253.205V341.603C713 346.245 708.764 350.008 703.539 350.008M10.4612 350.008H110.205M10.4612 350.008C5.23592 350.008 1 353.771 1 358.413V446.812C1 451.454 5.23592 455.217 10.4612 455.217M119.667 341.603V253.205M119.667 341.603C119.667 346.245 115.431 350.008 110.205 350.008M119.667 341.603C119.667 346.245 123.903 350.008 129.128 350.008M110.205 350.008C115.431 350.008 119.667 353.771 119.667 358.413M129.128 350.008H228.872M129.128 350.008C123.903 350.008 119.667 353.771 119.667 358.413M238.333 341.603V253.205M238.333 341.603C238.333 346.245 234.097 350.008 228.872 350.008M238.333 341.603C238.333 346.245 242.569 350.008 247.795 350.008M228.872 350.008C234.097 350.008 238.333 353.771 238.333 358.413M247.795 350.008H347.539M247.795 350.008C242.569 350.008 238.333 353.771 238.333 358.413M357 341.603V253.205M357 341.603C357 346.245 352.764 350.008 347.539 350.008M357 341.603C357 346.245 361.236 350.008 366.461 350.008M347.539 350.008C352.764 350.008 357 353.771 357 358.413M366.461 350.008H466.205M366.461 350.008C361.236 350.008 357 353.771 357 358.413M475.667 341.603V253.205M475.667 341.603C475.667 346.245 471.431 350.008 466.205 350.008M475.667 341.603C475.667 346.245 479.903 350.008 485.128 350.008M466.205 350.008C471.431 350.008 475.667 353.771 475.667 358.413M485.128 350.008H584.872M485.128 350.008C479.903 350.008 475.667 353.771 475.667 358.413M594.333 341.603V253.205M594.333 341.603C594.333 346.245 590.097 350.008 584.872 350.008M594.333 341.603C594.333 346.245 598.569 350.008 603.795 350.008M584.872 350.008C590.097 350.008 594.333 353.771 594.333 358.413M603.795 350.008H703.539M603.795 350.008C598.569 350.008 594.333 353.771 594.333 358.413M703.539 350.008C708.764 350.008 713 353.771 713 358.413V446.812C713 451.454 708.764 455.217 703.539 455.217M10.4612 455.217H110.205M10.4612 455.217C5.23592 455.217 1 458.979 1 463.621V552.02C1 556.662 5.23592 560.425 10.4612 560.425M119.667 446.812V358.413M119.667 446.812C119.667 451.454 115.431 455.217 110.205 455.217M119.667 446.812C119.667 451.454 123.903 455.217 129.128 455.217M110.205 455.217C115.431 455.217 119.667 458.979 119.667 463.621M129.128 455.217H228.872M129.128 455.217C123.903 455.217 119.667 458.979 119.667 463.621M238.333 446.812V358.413M238.333 446.812C238.333 451.454 234.097 455.217 228.872 455.217M238.333 446.812C238.333 451.454 242.569 455.217 247.795 455.217M228.872 455.217C234.097 455.217 238.333 458.979 238.333 463.621M247.795 455.217H347.539M247.795 455.217C242.569 455.217 238.333 458.979 238.333 463.621M357 446.812V358.413M357 446.812C357 451.454 352.764 455.217 347.539 455.217M357 446.812C357 451.454 361.236 455.217 366.461 455.217M347.539 455.217C352.764 455.217 357 458.979 357 463.621M366.461 455.217H466.205M366.461 455.217C361.236 455.217 357 458.979 357 463.621M475.667 446.812V358.413M475.667 446.812C475.667 451.454 471.431 455.217 466.205 455.217M475.667 446.812C475.667 451.454 479.903 455.217 485.128 455.217M466.205 455.217C471.431 455.217 475.667 458.979 475.667 463.621M485.128 455.217H584.872M485.128 455.217C479.903 455.217 475.667 458.979 475.667 463.621M594.333 446.812V358.413M594.333 446.812C594.333 451.454 590.097 455.217 584.872 455.217M594.333 446.812C594.333 451.454 598.569 455.217 603.795 455.217M584.872 455.217C590.097 455.217 594.333 458.979 594.333 463.621M603.795 455.217H703.539M603.795 455.217C598.569 455.217 594.333 458.979 594.333 463.621M703.539 455.217C708.764 455.217 713 458.979 713 463.621V552.02C713 556.662 708.764 560.425 703.539 560.425M10.4612 560.425H110.205M10.4612 560.425C5.23592 560.425 1 564.188 1 568.83V657.228C1 661.87 5.23592 665.633 10.4612 665.633H110.205C115.431 665.633 119.667 661.87 119.667 657.228M119.667 552.02V463.621M119.667 552.02C119.667 556.662 115.431 560.425 110.205 560.425M119.667 552.02C119.667 556.662 123.903 560.425 129.128 560.425M110.205 560.425C115.431 560.425 119.667 564.188 119.667 568.83M129.128 560.425H228.872M129.128 560.425C123.903 560.425 119.667 564.188 119.667 568.83M238.333 552.02V463.621M238.333 552.02C238.333 556.662 234.097 560.425 228.872 560.425M238.333 552.02C238.333 556.662 242.569 560.425 247.795 560.425M228.872 560.425C234.097 560.425 238.333 564.188 238.333 568.83M247.795 560.425H347.539M247.795 560.425C242.569 560.425 238.333 564.188 238.333 568.83M357 552.02V463.621M357 552.02C357 556.662 352.764 560.425 347.539 560.425M357 552.02C357 556.662 361.236 560.425 366.461 560.425M347.539 560.425C352.764 560.425 357 564.188 357 568.83M366.461 560.425H466.205M366.461 560.425C361.236 560.425 357 564.188 357 568.83M475.667 552.02V463.621M475.667 552.02C475.667 556.662 471.431 560.425 466.205 560.425M475.667 552.02C475.667 556.662 479.903 560.425 485.128 560.425M466.205 560.425C471.431 560.425 475.667 564.188 475.667 568.83M485.128 560.425H584.872M485.128 560.425C479.903 560.425 475.667 564.188 475.667 568.83M594.333 552.02V463.621M594.333 552.02C594.333 556.662 590.097 560.425 584.872 560.425M594.333 552.02C594.333 556.662 598.569 560.425 603.795 560.425M584.872 560.425C590.097 560.425 594.333 564.188 594.333 568.83M603.795 560.425H703.539M603.795 560.425C598.569 560.425 594.333 564.188 594.333 568.83M703.539 560.425C708.764 560.425 713 564.188 713 568.83V657.228C713 661.87 708.764 665.633 703.539 665.633H603.795C598.569 665.633 594.333 661.87 594.333 657.228M119.667 657.228V568.83M119.667 657.228C119.667 661.87 123.903 665.633 129.128 665.633H228.872C234.097 665.633 238.333 661.87 238.333 657.228M238.333 657.228V568.83M238.333 657.228C238.333 661.87 242.569 665.633 247.795 665.633H347.539C352.764 665.633 357 661.87 357 657.228M357 657.228V568.83M357 657.228C357 661.87 361.236 665.633 366.461 665.633H466.205C471.431 665.633 475.667 661.87 475.667 657.228M475.667 657.228V568.83M475.667 657.228C475.667 661.87 479.903 665.633 485.128 665.633H584.872C590.097 665.633 594.333 661.87 594.333 657.228M594.333 657.228V568.83" stroke="#A8ABBD" stroke-width="0.431035"/>
<path d="M119.667 -62.3288V22.5634C119.667 28.975 125.529 34.1726 132.761 34.1726H225.239C232.471 34.1726 238.333 39.3703 238.333 45.7818V127.772C238.333 134.183 244.196 139.381 251.428 139.381H343.906C351.138 139.381 357 144.579 357 150.99V232.98C357 239.392 362.863 244.589 370.094 244.589H462.572C469.804 244.589 475.667 249.787 475.667 256.199V338.188C475.667 344.6 481.529 349.798 488.761 349.798H584.513M1 -62.3288V22.5634C1 28.975 6.8625 34.1726 14.0943 34.1726H106.572C113.804 34.1726 119.667 39.3703 119.667 45.7818V127.772C119.667 134.183 125.529 139.381 132.761 139.381H225.239C232.471 139.381 238.333 144.579 238.333 150.99V232.98C238.333 239.392 232.471 244.589 225.239 244.589H132.761C125.529 244.589 119.667 239.392 119.667 232.98V149.539L119.552 148.853C118.673 143.595 113.639 139.669 107.645 139.567L96.7517 139.381H14.0943C6.8625 139.381 1 144.579 1 150.99V232.98C1 239.392 6.8625 244.589 14.0943 244.589H107.391L110.499 244.773C115.658 245.078 119.667 248.877 119.667 253.461V262.366M119.667 253.296V338.188C119.667 344.6 125.529 349.798 132.761 349.798H225.239C232.471 349.798 238.333 354.995 238.333 361.407V443.397C238.333 449.808 244.196 455.006 251.428 455.006H343.906C351.138 455.006 357 460.204 357 466.615V548.605C357 555.017 362.863 560.214 370.094 560.214H462.572C469.804 560.214 475.667 565.412 475.667 571.824V653.813C475.667 660.225 481.529 665.423 488.761 665.423H584.513" stroke="#597CF3"/>
</g>
<defs>
<clipPath id="clip0_4036_514">
<rect width="558" height="650" fill="white"/>
</clipPath>
</defs>
</svg>
