<svg width="80" height="80" viewBox="0 0 80 80" fill="none" xmlns="http://www.w3.org/2000/svg">
<rect width="80" height="80" rx="8" fill="#F2F5FD"/>
<path opacity="0.2" d="M34.6966 48.8388C32.9289 54.1421 25.8578 54.1421 25.8578 54.1421C25.8578 54.1421 25.8578 47.071 31.1611 45.3033L34.6966 48.8388Z" fill="#2F55D4"/>
<path opacity="0.2" d="M41.3569 47.4819L47.5888 41.25L47.5888 48.3211L42.5354 53.3745L41.3569 47.4819Z" fill="#2F55D4" stroke="#2F55D4" stroke-width="2.5"/>
<path opacity="0.2" d="M31.679 32.4112H38.7501L32.5182 38.6431L26.6256 37.4646L31.679 32.4112Z" fill="#2F55D4" stroke="#2F55D4" stroke-width="2.5"/>
<path d="M34.6966 48.8388C32.9289 54.1421 25.8578 54.1421 25.8578 54.1421C25.8578 54.1421 25.8578 47.071 31.1611 45.3033" stroke="#2F55D4" stroke-width="2.5" stroke-linecap="round" stroke-linejoin="round"/>
<path d="M50.6066 36.4645L40 47.0711L32.9289 40L43.5355 29.3934C47.5518 25.3771 51.568 25.4163 53.2809 25.6718C53.5446 25.7112 53.7887 25.8341 53.9773 26.0227C54.1658 26.2112 54.2888 26.4554 54.3281 26.7191C54.5837 28.4319 54.6228 32.4482 50.6066 36.4645Z" stroke="#2F55D4" stroke-width="2.5" stroke-linecap="round" stroke-linejoin="round"/>
<path d="M48.8388 38.2322V48.3211C48.8388 48.4852 48.8065 48.6478 48.7437 48.7994C48.6809 48.9511 48.5888 49.0889 48.4727 49.205L43.4193 54.2584C43.2593 54.4183 43.0589 54.5319 42.8395 54.5869C42.62 54.642 42.3897 54.6364 42.1732 54.5708C41.9567 54.5053 41.762 54.3822 41.6099 54.2147C41.4578 54.0471 41.3541 53.8415 41.3097 53.6196L40 47.0711" stroke="#2F55D4" stroke-width="2.5" stroke-linecap="round" stroke-linejoin="round"/>
<path d="M41.7678 31.1612H31.679C31.5149 31.1612 31.3523 31.1935 31.2007 31.2563C31.049 31.3192 30.9112 31.4112 30.7951 31.5273L25.7417 36.5807C25.5817 36.7407 25.4682 36.9411 25.4132 37.1606C25.3581 37.38 25.3637 37.6103 25.4292 37.8268C25.4948 38.0434 25.6179 38.2381 25.7854 38.3901C25.953 38.5422 26.1586 38.6459 26.3805 38.6903L32.929 40" stroke="#2F55D4" stroke-width="2.5" stroke-linecap="round" stroke-linejoin="round"/>
</svg>
