<svg width="306" height="130" viewBox="0 0 306 130" fill="none" xmlns="http://www.w3.org/2000/svg">
<path d="M47.7091 128.102V104.802H0.187988V85.2956L51.4856 0.767212H71.3123V83.6701H86.4184V104.802H71.3123V128.102H47.7091ZM47.7091 83.6701V34.0006H51.643L17.8117 90.1723V83.6701H47.7091Z" fill="#2F55D4"/>
<path d="M153 129.233C138.061 129.233 126.533 123.645 118.417 112.47C110.418 101.178 106.418 85.2978 106.418 64.8301C106.418 44.0094 110.418 28.1881 118.417 17.3661C126.533 6.42649 138.061 0.956665 153 0.956665C168.057 0.956665 179.585 6.42649 187.584 17.3661C195.582 28.1881 199.582 43.9506 199.582 64.6536C199.582 85.239 195.582 101.178 187.584 112.47C179.585 123.645 168.057 129.233 153 129.233ZM153 107.001C159.823 107.001 164.881 103.648 168.175 96.9432C171.586 90.1206 173.291 79.3574 173.291 64.6536C173.291 49.9498 171.586 39.363 168.175 32.8934C164.881 26.4237 159.823 23.1888 153 23.1888C146.178 23.1888 141.061 26.4237 137.649 32.8934C134.356 39.363 132.709 49.891 132.709 64.4772C132.709 79.2986 134.415 90.1206 137.826 96.9432C141.237 103.648 146.295 107.001 153 107.001Z" fill="#2F55D4"/>
<path d="M267.103 128.102V104.802H219.582V85.2956L270.879 0.767212H290.706V83.6701H305.812V104.802H290.706V128.102H267.103ZM267.103 83.6701V34.0006H271.037L237.206 90.1723V83.6701H267.103Z" fill="#2F55D4"/>
</svg>
